	<?xml version="1.0" encoding="iso-8859-1"?>
<!-- Generator: Adobe Illustrator 16.0.0, SVG Export Plug-In . SVG Version: 6.00 Build 0)  -->
<!DOCTYPE svg PUBLIC "-//W3C//DTD SVG 1.1//EN" "http://www.w3.org/Graphics/SVG/1.1/DTD/svg11.dtd">
<svg version="1.1" id="Capa_1" xmlns="http://www.w3.org/2000/svg" xmlns:xlink="http://www.w3.org/1999/xlink" x="0px" y="0px"
	 width="270.128px" height="270.127px" viewBox="0 0 270.128 270.127" style="enable-background:new 0 0 270.128 270.127;"
	 xml:space="preserve">
<g id="zajebiscie">
	<g>
		<path d="M268.563,58.932c-0.4-2.8-3.601-4.7-6.2-4.7c-29.2,0.1-58.4-0.2-87.5,0.6c-1.4,0-18.9-0.6-26.3,2.1c0-0.7,0-1.4-0.101-2
			c-0.1-2.5-1.8-5.5-4.5-5.9c-9.5-1.4-19.1-2.1-28.7-2.3c0.3-0.5,0.6-0.9,0.7-1.6c1.6-7,2.1-13.5-0.1-20.5c-0.6-1.9-2.2-4-4.4-4.4
			c-25.8-4-51.9-5.6-77.6,0.2c-2.5,0.6-4.5,3.2-4.4,5.8c0.4,7.3,1,14.3,3.1,21.3c-10.8,0.6-22,5-25,16.6
			c-7.1,27.7-5.7,59.1-6.8,87.6c-1.2,29.1-2,59.4,5.8,87.7c0.7,2.7,2.7,3.899,4.7,4.3c-0.5,0.6-0.8,1.4-0.6,2.4
			c0.1,0.399,0.2,0.899,0.3,1.3c0.3,1.3,1.5,2.399,2.8,2.8c9.6,2.4,19.5,1.3,29.3,1c30.5-1,60.9,3.1,91.5,2.1
			c2.6-0.1,5.201-1.699,5.8-4.399c1.4-6.7,2.6-13.3,3.7-20c20.899,1.5,42,2,62.899,2.1c3.5,0,6.601-3,6.5-6.5
			c-0.899-33.3,7.601-62.6,44.9-64.8c4.6-0.3,6.8-5.5,4.9-8.7c1.399-0.8,2.5-2.3,2.6-4.6
			C267.063,117.132,272.863,88.032,268.563,58.932z M137.463,174.532c-0.5,10.3-1.199,20.601-2.3,30.9c-9.5-5.5-28.6-4.3-41.8-3.101
			c-26.9-1.1-53.8-1.699-80.6-5.8c-1.8-28.899,1.2-58.8,2.9-86.9c0.5-8.8,1.4-17.4,3.6-25c2.6-0.5,5.2-1.4,7.7-1.9
			c12.5-2.4,26.1-1.7,38.8-1.6c23.9,0.3,47.7,1.9,71.5,3.8c0.399,10.4,0.6,20.9,0.8,31.4c-0.3,7.3-0.4,14.4-0.7,20.9
			C136.863,149.532,136.764,162.032,137.463,174.532z M227.963,66.932c-0.5,3.9-0.399,8.2-0.6,11.5c-0.2,2.3-0.3,4.5-0.4,6.8
			c-2.6,0-5.3,0.1-7.899,0.1c-0.101-6.2-0.4-12.3-1-18.4C221.363,66.832,224.663,66.932,227.963,66.932z M197.764,66.731
			c3.3,0,6.699,0,10,0.1c0.1,6.1,0.1,12.1,0,18.2c-3.801-0.1-7.7-0.2-11.5-0.4C196.663,78.731,197.163,72.731,197.764,66.731z
			 M159.463,219.332c-2.5,0.101-4.899,0.2-7.399,0.301c0-0.301,0.1-0.601,0.1-0.9c-0.7-6.7-1-13.3-1.3-19.9c2.4,1.2,5,1.5,8.7,1.801
			c0.3,0,0.7,0,1,0.1c-0.5,5-1.101,9.9-1.9,14.8C158.363,217.132,158.764,218.332,159.463,219.332z M155.863,83.832
			c0.3-5.2,0.7-10.4,0.9-15.6c0-0.5-0.101-1-0.2-1.5c3.399,0.5,7.3,0.7,11.1,0.7c-1,5.1-1.8,10.2-2.399,15.4
			C161.963,82.832,158.764,83.132,155.863,83.832z M167.663,219.032c0.101-0.3,0.3-0.5,0.3-0.8c1-5.6,1.801-11.2,2.601-16.8
			c3.6,0.1,7.3,0.2,10.899,0.2c0.5,5.699,1.101,11.399,1.9,17C178.163,218.732,172.863,218.732,167.663,219.032z M183.264,84.032
			c-2-0.2-4.101-0.4-6.301-0.6c0-5.4-0.1-10.9-0.1-16.2c4.3-0.2,8-0.5,10.2-0.5c0.399,0,0.8,0,1.2,0
			C186.063,72.132,184.463,78.032,183.264,84.032z M200.563,218.132c-3.9,0-7.8,0.199-11.7,0.3c0.3-5.8,0.5-11.5,0.7-17.2
			c4.3-0.2,8.5-0.6,12.7-1.2C201.264,206.132,200.663,212.232,200.563,218.132z M255.063,83.332c-5.2,0.7-10.4,1.2-15.601,1.5
			c0.7-6.3,1.101-12.8,0.2-17.9c5.7,0,11.3,0.1,17,0.1c0.601,5.5,0.7,11,0.601,16.4C256.563,83.332,255.863,83.231,255.063,83.332z"
			/>
	</g>
</g>
<g>
</g>
<g>
</g>
<g>
</g>
<g>
</g>
<g>
</g>
<g>
</g>
<g>
</g>
<g>
</g>
<g>
</g>
<g>
</g>
<g>
</g>
<g>
</g>
<g>
</g>
<g>
</g>
<g>
</g>
</svg>
