<svg xmlns="http://www.w3.org/2000/svg" xmlns:xlink="http://www.w3.org/1999/xlink" viewBox="0 0 1440 967.43"><defs><clipPath id="clip-path"><rect width="109.13" height="103.21" fill="none"/></clipPath><linearGradient id="linear-gradient" x1="-0.12" y1="845.75" x2="1.13" y2="845.75" gradientTransform="translate(443.36 -470150.06) scale(556.63)" gradientUnits="userSpaceOnUse"><stop offset="0" stop-color="#fafafa"/><stop offset="0.23" stop-color="#f6f6f6"/><stop offset="0.46" stop-color="#eaeaea"/><stop offset="0.5" stop-color="#e7e7e7"/><stop offset="0.55" stop-color="#ebebeb"/><stop offset="0.75" stop-color="#f5f5f5"/><stop offset="1" stop-color="#f8f8f8"/></linearGradient><pattern id="Unnamed_Pattern_2" data-name="Unnamed Pattern 2" width="109.12" height="103.21" patternTransform="matrix(1.23, 0, 0, -1.23, 2412.7, 21097.93)" patternUnits="userSpaceOnUse" viewBox="0 0 109.13 103.22"><rect width="109.13" height="103.21" fill="none"/><g clip-path="url(#clip-path)"><path d="M218.25,6.71a46.64,46.64,0,0,0-13.64,2.13A46.7,46.7,0,0,1,191,11a46.7,46.7,0,0,1-13.64-2.13,44.74,44.74,0,0,0-27.28,0A46.7,46.7,0,0,1,136.41,11a46.64,46.64,0,0,1-13.64-2.13,46.77,46.77,0,0,0-13.64-2.13" fill="none" stroke="#ccc" stroke-linecap="square" stroke-width="4"/><path d="M218.25-1.89A46.64,46.64,0,0,0,204.61.24,46.7,46.7,0,0,1,191,2.37,46.7,46.7,0,0,1,177.33.24a44.74,44.74,0,0,0-27.28,0,46.7,46.7,0,0,1-13.64,2.13A46.64,46.64,0,0,1,122.77.24a46.77,46.77,0,0,0-13.64-2.13" fill="none" stroke="#ccc" stroke-linecap="square" stroke-width="4"/><rect y="-12.9" width="109.13" height="25.8" fill="#e6e6e6"/><path d="M109.13,6.71A46.79,46.79,0,0,0,95.48,8.84,46.64,46.64,0,0,1,81.84,11,46.7,46.7,0,0,1,68.2,8.84,46.64,46.64,0,0,0,54.56,6.71,46.7,46.7,0,0,0,40.92,8.84,46.7,46.7,0,0,1,27.28,11,46.7,46.7,0,0,1,13.64,8.84,46.7,46.7,0,0,0,0,6.71" fill="none" stroke="#ccc" stroke-linecap="square" stroke-width="4"/><path d="M109.13-1.89A46.79,46.79,0,0,0,95.48.24,46.64,46.64,0,0,1,81.84,2.37,46.7,46.7,0,0,1,68.2.24,46.64,46.64,0,0,0,54.56-1.89,46.7,46.7,0,0,0,40.92.24,46.7,46.7,0,0,1,27.28,2.37,46.7,46.7,0,0,1,13.64.24,46.7,46.7,0,0,0,0-1.89" fill="none" stroke="#ccc" stroke-linecap="square" stroke-width="4"/><path d="M0,6.71A46.64,46.64,0,0,0-13.64,8.84,46.7,46.7,0,0,1-27.28,11,46.7,46.7,0,0,1-40.92,8.84,46.7,46.7,0,0,0-54.56,6.71,46.64,46.64,0,0,0-68.2,8.84,46.7,46.7,0,0,1-81.84,11,46.64,46.64,0,0,1-95.48,8.84a46.77,46.77,0,0,0-13.64-2.13" fill="none" stroke="#ccc" stroke-linecap="square" stroke-width="4"/><path d="M0-1.89A46.64,46.64,0,0,0-13.64.24,46.7,46.7,0,0,1-27.28,2.37,46.7,46.7,0,0,1-40.92.24,46.7,46.7,0,0,0-54.56-1.89,46.64,46.64,0,0,0-68.2.24,46.7,46.7,0,0,1-81.84,2.37,46.64,46.64,0,0,1-95.48.24a46.77,46.77,0,0,0-13.64-2.13" fill="none" stroke="#ccc" stroke-linecap="square" stroke-width="4"/><path d="M218.25,15.31a46.64,46.64,0,0,0-13.64,2.13A46.7,46.7,0,0,1,191,19.57a46.7,46.7,0,0,1-13.64-2.13,44.74,44.74,0,0,0-27.28,0,46.7,46.7,0,0,1-13.64,2.13,46.64,46.64,0,0,1-13.64-2.13,46.77,46.77,0,0,0-13.64-2.13" fill="none" stroke="#ccc" stroke-linecap="square" stroke-width="4"/><path d="M218.25,32.52a46.71,46.71,0,0,0-13.64,2.12A46.36,46.36,0,0,1,191,36.77a46.36,46.36,0,0,1-13.64-2.13,44.94,44.94,0,0,0-27.28,0,46.36,46.36,0,0,1-13.64,2.13,46.3,46.3,0,0,1-13.64-2.13,46.83,46.83,0,0,0-13.64-2.12" fill="none" stroke="#ccc" stroke-linecap="square" stroke-width="4"/><path d="M218.25,23.91A46.64,46.64,0,0,0,204.61,26,46.7,46.7,0,0,1,191,28.17,46.7,46.7,0,0,1,177.33,26a44.74,44.74,0,0,0-27.28,0,46.7,46.7,0,0,1-13.64,2.13A46.64,46.64,0,0,1,122.77,26a46.77,46.77,0,0,0-13.64-2.13" fill="none" stroke="#ccc" stroke-linecap="square" stroke-width="4"/><rect y="12.9" width="109.13" height="25.8" fill="#e6e6e6"/><path d="M109.13,15.31a46.79,46.79,0,0,0-13.65,2.13,46.64,46.64,0,0,1-13.64,2.13A46.7,46.7,0,0,1,68.2,17.44a46.64,46.64,0,0,0-13.64-2.13,46.7,46.7,0,0,0-13.64,2.13,46.7,46.7,0,0,1-13.64,2.13,46.7,46.7,0,0,1-13.64-2.13A46.7,46.7,0,0,0,0,15.31" fill="none" stroke="#ccc" stroke-linecap="square" stroke-width="4"/><path d="M109.13,32.52a46.85,46.85,0,0,0-13.65,2.12,46.3,46.3,0,0,1-13.64,2.13A46.36,46.36,0,0,1,68.2,34.64a46.71,46.71,0,0,0-13.64-2.12,46.77,46.77,0,0,0-13.64,2.12,46.36,46.36,0,0,1-13.64,2.13,46.36,46.36,0,0,1-13.64-2.13A46.77,46.77,0,0,0,0,32.52" fill="none" stroke="#ccc" stroke-linecap="square" stroke-width="4"/><path d="M109.13,23.91A46.79,46.79,0,0,0,95.48,26a46.64,46.64,0,0,1-13.64,2.13A46.7,46.7,0,0,1,68.2,26a46.64,46.64,0,0,0-13.64-2.13A46.7,46.7,0,0,0,40.92,26a46.7,46.7,0,0,1-13.64,2.13A46.7,46.7,0,0,1,13.64,26,46.7,46.7,0,0,0,0,23.91" fill="none" stroke="#ccc" stroke-linecap="square" stroke-width="4"/><path d="M0,15.31a46.64,46.64,0,0,0-13.64,2.13,46.7,46.7,0,0,1-13.64,2.13,46.7,46.7,0,0,1-13.64-2.13,46.7,46.7,0,0,0-13.64-2.13A46.64,46.64,0,0,0-68.2,17.44a46.7,46.7,0,0,1-13.64,2.13,46.64,46.64,0,0,1-13.64-2.13,46.77,46.77,0,0,0-13.64-2.13" fill="none" stroke="#ccc" stroke-linecap="square" stroke-width="4"/><path d="M0,32.52a46.71,46.71,0,0,0-13.64,2.12,46.36,46.36,0,0,1-13.64,2.13,46.36,46.36,0,0,1-13.64-2.13,46.77,46.77,0,0,0-13.64-2.12A46.71,46.71,0,0,0-68.2,34.64a46.36,46.36,0,0,1-13.64,2.13,46.3,46.3,0,0,1-13.64-2.13,46.83,46.83,0,0,0-13.64-2.12" fill="none" stroke="#ccc" stroke-linecap="square" stroke-width="4"/><path d="M0,23.91A46.64,46.64,0,0,0-13.64,26a46.7,46.7,0,0,1-13.64,2.13A46.7,46.7,0,0,1-40.92,26a46.7,46.7,0,0,0-13.64-2.13A46.64,46.64,0,0,0-68.2,26a46.7,46.7,0,0,1-13.64,2.13A46.64,46.64,0,0,1-95.48,26a46.77,46.77,0,0,0-13.64-2.13" fill="none" stroke="#ccc" stroke-linecap="square" stroke-width="4"/><path d="M218.25,41.12a46.71,46.71,0,0,0-13.64,2.12A46.36,46.36,0,0,1,191,45.37a46.36,46.36,0,0,1-13.64-2.13,44.94,44.94,0,0,0-27.28,0,46.36,46.36,0,0,1-13.64,2.13,46.3,46.3,0,0,1-13.64-2.13,46.83,46.83,0,0,0-13.64-2.12" fill="none" stroke="#ccc" stroke-linecap="square" stroke-width="4"/><path d="M218.25,58.32a46.3,46.3,0,0,0-13.64,2.13,44.74,44.74,0,0,1-27.28,0,44.74,44.74,0,0,0-27.28,0,44.74,44.74,0,0,1-27.28,0,46.43,46.43,0,0,0-13.64-2.13" fill="none" stroke="#ccc" stroke-linecap="square" stroke-width="4"/><path d="M218.25,49.72a46.3,46.3,0,0,0-13.64,2.13,44.94,44.94,0,0,1-27.28,0,44.74,44.74,0,0,0-27.28,0,44.94,44.94,0,0,1-27.28,0,46.43,46.43,0,0,0-13.64-2.13" fill="none" stroke="#ccc" stroke-linecap="square" stroke-width="4"/><rect y="38.71" width="109.13" height="25.8" fill="#e6e6e6"/><path d="M109.13,41.12a46.85,46.85,0,0,0-13.65,2.12,46.3,46.3,0,0,1-13.64,2.13A46.36,46.36,0,0,1,68.2,43.24a46.71,46.71,0,0,0-13.64-2.12,46.77,46.77,0,0,0-13.64,2.12,46.36,46.36,0,0,1-13.64,2.13,46.36,46.36,0,0,1-13.64-2.13A46.77,46.77,0,0,0,0,41.12" fill="none" stroke="#ccc" stroke-linecap="square" stroke-width="4"/><path d="M109.13,58.32a46.44,46.44,0,0,0-13.65,2.13,44.74,44.74,0,0,1-27.28,0,44.74,44.74,0,0,0-27.28,0,46.7,46.7,0,0,1-13.64,2.13,46.7,46.7,0,0,1-13.64-2.13A46.36,46.36,0,0,0,0,58.32" fill="none" stroke="#ccc" stroke-linecap="square" stroke-width="4"/><path d="M109.13,49.72a46.44,46.44,0,0,0-13.65,2.13,44.94,44.94,0,0,1-27.28,0,44.74,44.74,0,0,0-27.28,0A46.77,46.77,0,0,1,27.28,54a46.77,46.77,0,0,1-13.64-2.12A46.36,46.36,0,0,0,0,49.72" fill="none" stroke="#ccc" stroke-linecap="square" stroke-width="4"/><path d="M0,41.12a46.71,46.71,0,0,0-13.64,2.12,46.36,46.36,0,0,1-13.64,2.13,46.36,46.36,0,0,1-13.64-2.13,46.77,46.77,0,0,0-13.64-2.12A46.71,46.71,0,0,0-68.2,43.24a46.36,46.36,0,0,1-13.64,2.13,46.3,46.3,0,0,1-13.64-2.13,46.83,46.83,0,0,0-13.64-2.12" fill="none" stroke="#ccc" stroke-linecap="square" stroke-width="4"/><path d="M0,58.32a46.3,46.3,0,0,0-13.64,2.13,46.7,46.7,0,0,1-13.64,2.13,46.7,46.7,0,0,1-13.64-2.13,46.36,46.36,0,0,0-13.64-2.13A46.3,46.3,0,0,0-68.2,60.45a46.7,46.7,0,0,1-13.64,2.13,46.64,46.64,0,0,1-13.64-2.13,46.43,46.43,0,0,0-13.64-2.13" fill="none" stroke="#ccc" stroke-linecap="square" stroke-width="4"/><path d="M0,49.72a46.3,46.3,0,0,0-13.64,2.13A46.77,46.77,0,0,1-27.28,54a46.77,46.77,0,0,1-13.64-2.12,46.36,46.36,0,0,0-13.64-2.13A46.3,46.3,0,0,0-68.2,51.85,46.77,46.77,0,0,1-81.84,54a46.71,46.71,0,0,1-13.64-2.12,46.43,46.43,0,0,0-13.64-2.13" fill="none" stroke="#ccc" stroke-linecap="square" stroke-width="4"/><path d="M218.25,66.92a46.64,46.64,0,0,0-13.64,2.13,44.74,44.74,0,0,1-27.28,0,44.74,44.74,0,0,0-27.28,0,44.74,44.74,0,0,1-27.28,0,46.77,46.77,0,0,0-13.64-2.13" fill="none" stroke="#ccc" stroke-linecap="square" stroke-width="4"/><path d="M218.25,84.12a46.64,46.64,0,0,0-13.64,2.13,44.74,44.74,0,0,1-27.28,0,44.74,44.74,0,0,0-27.28,0,44.74,44.74,0,0,1-27.28,0,46.77,46.77,0,0,0-13.64-2.13" fill="none" stroke="#ccc" stroke-linecap="square" stroke-width="4"/><path d="M218.25,75.52a46.64,46.64,0,0,0-13.64,2.13,44.74,44.74,0,0,1-27.28,0,44.74,44.74,0,0,0-27.28,0,44.74,44.74,0,0,1-27.28,0,46.77,46.77,0,0,0-13.64-2.13" fill="none" stroke="#ccc" stroke-linecap="square" stroke-width="4"/><rect y="64.51" width="109.13" height="25.8" fill="#e6e6e6"/><path d="M109.13,66.92a46.79,46.79,0,0,0-13.65,2.13,44.74,44.74,0,0,1-27.28,0,46.64,46.64,0,0,0-13.64-2.13,46.7,46.7,0,0,0-13.64,2.13,46.7,46.7,0,0,1-13.64,2.13,46.7,46.7,0,0,1-13.64-2.13A46.7,46.7,0,0,0,0,66.92" fill="none" stroke="#ccc" stroke-linecap="square" stroke-width="4"/><path d="M109.13,84.12a46.79,46.79,0,0,0-13.65,2.13,44.74,44.74,0,0,1-27.28,0,46.64,46.64,0,0,0-13.64-2.13,46.7,46.7,0,0,0-13.64,2.13,46.7,46.7,0,0,1-13.64,2.13,46.7,46.7,0,0,1-13.64-2.13A46.7,46.7,0,0,0,0,84.12" fill="none" stroke="#ccc" stroke-linecap="square" stroke-width="4"/><path d="M109.13,75.52a46.79,46.79,0,0,0-13.65,2.13,44.74,44.74,0,0,1-27.28,0,46.64,46.64,0,0,0-13.64-2.13,46.7,46.7,0,0,0-13.64,2.13,46.7,46.7,0,0,1-13.64,2.13,46.7,46.7,0,0,1-13.64-2.13A46.7,46.7,0,0,0,0,75.52" fill="none" stroke="#ccc" stroke-linecap="square" stroke-width="4"/><path d="M0,66.92a46.64,46.64,0,0,0-13.64,2.13,46.7,46.7,0,0,1-13.64,2.13,46.7,46.7,0,0,1-13.64-2.13,46.7,46.7,0,0,0-13.64-2.13A46.64,46.64,0,0,0-68.2,69.05a46.7,46.7,0,0,1-13.64,2.13,46.64,46.64,0,0,1-13.64-2.13,46.77,46.77,0,0,0-13.64-2.13" fill="none" stroke="#ccc" stroke-linecap="square" stroke-width="4"/><path d="M0,84.12a46.64,46.64,0,0,0-13.64,2.13,46.7,46.7,0,0,1-13.64,2.13,46.7,46.7,0,0,1-13.64-2.13,46.7,46.7,0,0,0-13.64-2.13A46.64,46.64,0,0,0-68.2,86.25a46.7,46.7,0,0,1-13.64,2.13,46.64,46.64,0,0,1-13.64-2.13,46.77,46.77,0,0,0-13.64-2.13" fill="none" stroke="#ccc" stroke-linecap="square" stroke-width="4"/><path d="M0,75.52a46.64,46.64,0,0,0-13.64,2.13,46.7,46.7,0,0,1-13.64,2.13,46.7,46.7,0,0,1-13.64-2.13,46.7,46.7,0,0,0-13.64-2.13A46.64,46.64,0,0,0-68.2,77.65a46.7,46.7,0,0,1-13.64,2.13,46.64,46.64,0,0,1-13.64-2.13,46.77,46.77,0,0,0-13.64-2.13" fill="none" stroke="#ccc" stroke-linecap="square" stroke-width="4"/><path d="M218.25,92.72a46.64,46.64,0,0,0-13.64,2.13,44.74,44.74,0,0,1-27.28,0,44.74,44.74,0,0,0-27.28,0,44.74,44.74,0,0,1-27.28,0,46.77,46.77,0,0,0-13.64-2.13" fill="none" stroke="#ccc" stroke-linecap="square" stroke-width="4"/><path d="M218.25,101.33a46.71,46.71,0,0,0-13.64,2.12,44.74,44.74,0,0,1-27.28,0,44.94,44.94,0,0,0-27.28,0,44.74,44.74,0,0,1-27.28,0,46.83,46.83,0,0,0-13.64-2.12" fill="none" stroke="#ccc" stroke-linecap="square" stroke-width="4"/><rect y="90.31" width="109.13" height="25.8" fill="#e6e6e6"/><path d="M109.13,92.72a46.79,46.79,0,0,0-13.65,2.13,44.74,44.74,0,0,1-27.28,0,46.64,46.64,0,0,0-13.64-2.13,46.7,46.7,0,0,0-13.64,2.13A46.7,46.7,0,0,1,27.28,97a46.7,46.7,0,0,1-13.64-2.13A46.7,46.7,0,0,0,0,92.72" fill="none" stroke="#ccc" stroke-linecap="square" stroke-width="4"/><path d="M109.13,101.33a46.85,46.85,0,0,0-13.65,2.12,44.74,44.74,0,0,1-27.28,0,46.71,46.71,0,0,0-13.64-2.12,46.77,46.77,0,0,0-13.64,2.12,46.36,46.36,0,0,1-13.64,2.13,46.36,46.36,0,0,1-13.64-2.13A46.77,46.77,0,0,0,0,101.33" fill="none" stroke="#ccc" stroke-linecap="square" stroke-width="4"/><path d="M0,92.72a46.64,46.64,0,0,0-13.64,2.13A46.7,46.7,0,0,1-27.28,97a46.7,46.7,0,0,1-13.64-2.13,46.7,46.7,0,0,0-13.64-2.13A46.64,46.64,0,0,0-68.2,94.85,46.7,46.7,0,0,1-81.84,97a46.64,46.64,0,0,1-13.64-2.13,46.77,46.77,0,0,0-13.64-2.13" fill="none" stroke="#ccc" stroke-linecap="square" stroke-width="4"/><path d="M0,101.33a46.71,46.71,0,0,0-13.64,2.12,46.36,46.36,0,0,1-13.64,2.13,46.36,46.36,0,0,1-13.64-2.13,46.77,46.77,0,0,0-13.64-2.12,46.71,46.71,0,0,0-13.64,2.12,46.36,46.36,0,0,1-13.64,2.13,46.3,46.3,0,0,1-13.64-2.13,46.83,46.83,0,0,0-13.64-2.12" fill="none" stroke="#ccc" stroke-linecap="square" stroke-width="4"/></g></pattern><linearGradient id="linear-gradient-2" x1="725.6" y1="236.12" x2="719.96" y2="939.01" gradientUnits="userSpaceOnUse"><stop offset="0"/><stop offset="0.1" stop-color="#111"/><stop offset="0.29" stop-color="#3e3e3e"/><stop offset="0.56" stop-color="#878787"/><stop offset="0.89" stop-color="#e9e9e9"/></linearGradient><linearGradient id="linear-gradient-3" x1="483.03" y1="604.57" x2="538.47" y2="531.28" gradientUnits="userSpaceOnUse"><stop offset="0" stop-color="#666665"/><stop offset="0.02" stop-color="#6a6a69"/><stop offset="0.49" stop-color="#aeaeae"/><stop offset="0.83" stop-color="#d9d9d9"/><stop offset="1" stop-color="#e9e9e9"/></linearGradient><linearGradient id="linear-gradient-4" x1="241.89" y1="604.57" x2="297.33" y2="531.28" gradientTransform="matrix(-1, 0, 0, 1, 1206.47, 0)" xlink:href="#linear-gradient-3"/><mask id="mask" x="0" y="-63.68" width="1440" height="1031.11" maskUnits="userSpaceOnUse"><polygon id="paper-mask" points="723.59 663.24 1041.42 439.38 1067.77 -63.68 379.91 -63.68 405.73 438.93 723.59 663.24" fill="#fff"/><rect id="paper-mask-full" width="1440" height="967.43" fill="#fff"/></mask><pattern id="Unnamed_Pattern_2-5" data-name="Unnamed Pattern 2" width="109.12" height="103.21" patternTransform="matrix(1, 0, 0, -1, 3300.37, 17215.36)" patternUnits="userSpaceOnUse" viewBox="0 0 109.13 103.22"><rect width="109.13" height="103.21" fill="none"/><g clip-path="url(#clip-path)"><path d="M218.25,6.71a46.64,46.64,0,0,0-13.64,2.13A46.7,46.7,0,0,1,191,11a46.7,46.7,0,0,1-13.64-2.13,44.74,44.74,0,0,0-27.28,0A46.7,46.7,0,0,1,136.41,11a46.64,46.64,0,0,1-13.64-2.13,46.77,46.77,0,0,0-13.64-2.13" fill="none" stroke="#ccc" stroke-linecap="square" stroke-width="4"/><path d="M218.25-1.89A46.64,46.64,0,0,0,204.61.24,46.7,46.7,0,0,1,191,2.37,46.7,46.7,0,0,1,177.33.24a44.74,44.74,0,0,0-27.28,0,46.7,46.7,0,0,1-13.64,2.13A46.64,46.64,0,0,1,122.77.24a46.77,46.77,0,0,0-13.64-2.13" fill="none" stroke="#ccc" stroke-linecap="square" stroke-width="4"/><rect y="-12.9" width="109.13" height="25.8" fill="#e6e6e6"/><path d="M109.13,6.71A46.79,46.79,0,0,0,95.48,8.84,46.64,46.64,0,0,1,81.84,11,46.7,46.7,0,0,1,68.2,8.84,46.64,46.64,0,0,0,54.56,6.71,46.7,46.7,0,0,0,40.92,8.84,46.7,46.7,0,0,1,27.28,11,46.7,46.7,0,0,1,13.64,8.84,46.7,46.7,0,0,0,0,6.71" fill="none" stroke="#ccc" stroke-linecap="square" stroke-width="4"/><path d="M109.13-1.89A46.79,46.79,0,0,0,95.48.24,46.64,46.64,0,0,1,81.84,2.37,46.7,46.7,0,0,1,68.2.24,46.64,46.64,0,0,0,54.56-1.89,46.7,46.7,0,0,0,40.92.24,46.7,46.7,0,0,1,27.28,2.37,46.7,46.7,0,0,1,13.64.24,46.7,46.7,0,0,0,0-1.89" fill="none" stroke="#ccc" stroke-linecap="square" stroke-width="4"/><path d="M0,6.71A46.64,46.64,0,0,0-13.64,8.84,46.7,46.7,0,0,1-27.28,11,46.7,46.7,0,0,1-40.92,8.84,46.7,46.7,0,0,0-54.56,6.71,46.64,46.64,0,0,0-68.2,8.84,46.7,46.7,0,0,1-81.84,11,46.64,46.64,0,0,1-95.48,8.84a46.77,46.77,0,0,0-13.64-2.13" fill="none" stroke="#ccc" stroke-linecap="square" stroke-width="4"/><path d="M0-1.89A46.64,46.64,0,0,0-13.64.24,46.7,46.7,0,0,1-27.28,2.37,46.7,46.7,0,0,1-40.92.24,46.7,46.7,0,0,0-54.56-1.89,46.64,46.64,0,0,0-68.2.24,46.7,46.7,0,0,1-81.84,2.37,46.64,46.64,0,0,1-95.48.24a46.77,46.77,0,0,0-13.64-2.13" fill="none" stroke="#ccc" stroke-linecap="square" stroke-width="4"/><path d="M218.25,15.31a46.64,46.64,0,0,0-13.64,2.13A46.7,46.7,0,0,1,191,19.57a46.7,46.7,0,0,1-13.64-2.13,44.74,44.74,0,0,0-27.28,0,46.7,46.7,0,0,1-13.64,2.13,46.64,46.64,0,0,1-13.64-2.13,46.77,46.77,0,0,0-13.64-2.13" fill="none" stroke="#ccc" stroke-linecap="square" stroke-width="4"/><path d="M218.25,32.52a46.71,46.71,0,0,0-13.64,2.12A46.36,46.36,0,0,1,191,36.77a46.36,46.36,0,0,1-13.64-2.13,44.94,44.94,0,0,0-27.28,0,46.36,46.36,0,0,1-13.64,2.13,46.3,46.3,0,0,1-13.64-2.13,46.83,46.83,0,0,0-13.64-2.12" fill="none" stroke="#ccc" stroke-linecap="square" stroke-width="4"/><path d="M218.25,23.91A46.64,46.64,0,0,0,204.61,26,46.7,46.7,0,0,1,191,28.17,46.7,46.7,0,0,1,177.33,26a44.74,44.74,0,0,0-27.28,0,46.7,46.7,0,0,1-13.64,2.13A46.64,46.64,0,0,1,122.77,26a46.77,46.77,0,0,0-13.64-2.13" fill="none" stroke="#ccc" stroke-linecap="square" stroke-width="4"/><rect y="12.9" width="109.13" height="25.8" fill="#e6e6e6"/><path d="M109.13,15.31a46.79,46.79,0,0,0-13.65,2.13,46.64,46.64,0,0,1-13.64,2.13A46.7,46.7,0,0,1,68.2,17.44a46.64,46.64,0,0,0-13.64-2.13,46.7,46.7,0,0,0-13.64,2.13,46.7,46.7,0,0,1-13.64,2.13,46.7,46.7,0,0,1-13.64-2.13A46.7,46.7,0,0,0,0,15.31" fill="none" stroke="#ccc" stroke-linecap="square" stroke-width="4"/><path d="M109.13,32.52a46.85,46.85,0,0,0-13.65,2.12,46.3,46.3,0,0,1-13.64,2.13A46.36,46.36,0,0,1,68.2,34.64a46.71,46.71,0,0,0-13.64-2.12,46.77,46.77,0,0,0-13.64,2.12,46.36,46.36,0,0,1-13.64,2.13,46.36,46.36,0,0,1-13.64-2.13A46.77,46.77,0,0,0,0,32.52" fill="none" stroke="#ccc" stroke-linecap="square" stroke-width="4"/><path d="M109.13,23.91A46.79,46.79,0,0,0,95.48,26a46.64,46.64,0,0,1-13.64,2.13A46.7,46.7,0,0,1,68.2,26a46.64,46.64,0,0,0-13.64-2.13A46.7,46.7,0,0,0,40.92,26a46.7,46.7,0,0,1-13.64,2.13A46.7,46.7,0,0,1,13.64,26,46.7,46.7,0,0,0,0,23.91" fill="none" stroke="#ccc" stroke-linecap="square" stroke-width="4"/><path d="M0,15.31a46.64,46.64,0,0,0-13.64,2.13,46.7,46.7,0,0,1-13.64,2.13,46.7,46.7,0,0,1-13.64-2.13,46.7,46.7,0,0,0-13.64-2.13A46.64,46.64,0,0,0-68.2,17.44a46.7,46.7,0,0,1-13.64,2.13,46.64,46.64,0,0,1-13.64-2.13,46.77,46.77,0,0,0-13.64-2.13" fill="none" stroke="#ccc" stroke-linecap="square" stroke-width="4"/><path d="M0,32.52a46.71,46.71,0,0,0-13.64,2.12,46.36,46.36,0,0,1-13.64,2.13,46.36,46.36,0,0,1-13.64-2.13,46.77,46.77,0,0,0-13.64-2.12A46.71,46.71,0,0,0-68.2,34.64a46.36,46.36,0,0,1-13.64,2.13,46.3,46.3,0,0,1-13.64-2.13,46.83,46.83,0,0,0-13.64-2.12" fill="none" stroke="#ccc" stroke-linecap="square" stroke-width="4"/><path d="M0,23.91A46.64,46.64,0,0,0-13.64,26a46.7,46.7,0,0,1-13.64,2.13A46.7,46.7,0,0,1-40.92,26a46.7,46.7,0,0,0-13.64-2.13A46.64,46.64,0,0,0-68.2,26a46.7,46.7,0,0,1-13.64,2.13A46.64,46.64,0,0,1-95.48,26a46.77,46.77,0,0,0-13.64-2.13" fill="none" stroke="#ccc" stroke-linecap="square" stroke-width="4"/><path d="M218.25,41.12a46.71,46.71,0,0,0-13.64,2.12A46.36,46.36,0,0,1,191,45.37a46.36,46.36,0,0,1-13.64-2.13,44.94,44.94,0,0,0-27.28,0,46.36,46.36,0,0,1-13.64,2.13,46.3,46.3,0,0,1-13.64-2.13,46.83,46.83,0,0,0-13.64-2.12" fill="none" stroke="#ccc" stroke-linecap="square" stroke-width="4"/><path d="M218.25,58.32a46.3,46.3,0,0,0-13.64,2.13,44.74,44.74,0,0,1-27.28,0,44.74,44.74,0,0,0-27.28,0,44.74,44.74,0,0,1-27.28,0,46.43,46.43,0,0,0-13.64-2.13" fill="none" stroke="#ccc" stroke-linecap="square" stroke-width="4"/><path d="M218.25,49.72a46.3,46.3,0,0,0-13.64,2.13,44.94,44.94,0,0,1-27.28,0,44.74,44.74,0,0,0-27.28,0,44.94,44.94,0,0,1-27.28,0,46.43,46.43,0,0,0-13.64-2.13" fill="none" stroke="#ccc" stroke-linecap="square" stroke-width="4"/><rect y="38.71" width="109.13" height="25.8" fill="#e6e6e6"/><path d="M109.13,41.12a46.85,46.85,0,0,0-13.65,2.12,46.3,46.3,0,0,1-13.64,2.13A46.36,46.36,0,0,1,68.2,43.24a46.71,46.71,0,0,0-13.64-2.12,46.77,46.77,0,0,0-13.64,2.12,46.36,46.36,0,0,1-13.64,2.13,46.36,46.36,0,0,1-13.64-2.13A46.77,46.77,0,0,0,0,41.12" fill="none" stroke="#ccc" stroke-linecap="square" stroke-width="4"/><path d="M109.13,58.32a46.44,46.44,0,0,0-13.65,2.13,44.74,44.74,0,0,1-27.28,0,44.74,44.74,0,0,0-27.28,0,46.7,46.7,0,0,1-13.64,2.13,46.7,46.7,0,0,1-13.64-2.13A46.36,46.36,0,0,0,0,58.32" fill="none" stroke="#ccc" stroke-linecap="square" stroke-width="4"/><path d="M109.13,49.72a46.44,46.44,0,0,0-13.65,2.13,44.94,44.94,0,0,1-27.28,0,44.74,44.74,0,0,0-27.28,0A46.77,46.77,0,0,1,27.28,54a46.77,46.77,0,0,1-13.64-2.12A46.36,46.36,0,0,0,0,49.72" fill="none" stroke="#ccc" stroke-linecap="square" stroke-width="4"/><path d="M0,41.12a46.71,46.71,0,0,0-13.64,2.12,46.36,46.36,0,0,1-13.64,2.13,46.36,46.36,0,0,1-13.64-2.13,46.77,46.77,0,0,0-13.64-2.12A46.71,46.71,0,0,0-68.2,43.24a46.36,46.36,0,0,1-13.64,2.13,46.3,46.3,0,0,1-13.64-2.13,46.83,46.83,0,0,0-13.64-2.12" fill="none" stroke="#ccc" stroke-linecap="square" stroke-width="4"/><path d="M0,58.32a46.3,46.3,0,0,0-13.64,2.13,46.7,46.7,0,0,1-13.64,2.13,46.7,46.7,0,0,1-13.64-2.13,46.36,46.36,0,0,0-13.64-2.13A46.3,46.3,0,0,0-68.2,60.45a46.7,46.7,0,0,1-13.64,2.13,46.64,46.64,0,0,1-13.64-2.13,46.43,46.43,0,0,0-13.64-2.13" fill="none" stroke="#ccc" stroke-linecap="square" stroke-width="4"/><path d="M0,49.72a46.3,46.3,0,0,0-13.64,2.13A46.77,46.77,0,0,1-27.28,54a46.77,46.77,0,0,1-13.64-2.12,46.36,46.36,0,0,0-13.64-2.13A46.3,46.3,0,0,0-68.2,51.85,46.77,46.77,0,0,1-81.84,54a46.71,46.71,0,0,1-13.64-2.12,46.43,46.43,0,0,0-13.64-2.13" fill="none" stroke="#ccc" stroke-linecap="square" stroke-width="4"/><path d="M218.25,66.92a46.64,46.64,0,0,0-13.64,2.13,44.74,44.74,0,0,1-27.28,0,44.74,44.74,0,0,0-27.28,0,44.74,44.74,0,0,1-27.28,0,46.77,46.77,0,0,0-13.64-2.13" fill="none" stroke="#ccc" stroke-linecap="square" stroke-width="4"/><path d="M218.25,84.12a46.64,46.64,0,0,0-13.64,2.13,44.74,44.74,0,0,1-27.28,0,44.74,44.74,0,0,0-27.28,0,44.74,44.74,0,0,1-27.28,0,46.77,46.77,0,0,0-13.64-2.13" fill="none" stroke="#ccc" stroke-linecap="square" stroke-width="4"/><path d="M218.25,75.52a46.64,46.64,0,0,0-13.64,2.13,44.74,44.74,0,0,1-27.28,0,44.74,44.74,0,0,0-27.28,0,44.74,44.74,0,0,1-27.28,0,46.77,46.77,0,0,0-13.64-2.13" fill="none" stroke="#ccc" stroke-linecap="square" stroke-width="4"/><rect y="64.51" width="109.13" height="25.8" fill="#e6e6e6"/><path d="M109.13,66.92a46.79,46.79,0,0,0-13.65,2.13,44.74,44.74,0,0,1-27.28,0,46.64,46.64,0,0,0-13.64-2.13,46.7,46.7,0,0,0-13.64,2.13,46.7,46.7,0,0,1-13.64,2.13,46.7,46.7,0,0,1-13.64-2.13A46.7,46.7,0,0,0,0,66.92" fill="none" stroke="#ccc" stroke-linecap="square" stroke-width="4"/><path d="M109.13,84.12a46.79,46.79,0,0,0-13.65,2.13,44.74,44.74,0,0,1-27.28,0,46.64,46.64,0,0,0-13.64-2.13,46.7,46.7,0,0,0-13.64,2.13,46.7,46.7,0,0,1-13.64,2.13,46.7,46.7,0,0,1-13.64-2.13A46.7,46.7,0,0,0,0,84.12" fill="none" stroke="#ccc" stroke-linecap="square" stroke-width="4"/><path d="M109.13,75.52a46.79,46.79,0,0,0-13.65,2.13,44.74,44.74,0,0,1-27.28,0,46.64,46.64,0,0,0-13.64-2.13,46.7,46.7,0,0,0-13.64,2.13,46.7,46.7,0,0,1-13.64,2.13,46.7,46.7,0,0,1-13.64-2.13A46.7,46.7,0,0,0,0,75.52" fill="none" stroke="#ccc" stroke-linecap="square" stroke-width="4"/><path d="M0,66.92a46.64,46.64,0,0,0-13.64,2.13,46.7,46.7,0,0,1-13.64,2.13,46.7,46.7,0,0,1-13.64-2.13,46.7,46.7,0,0,0-13.64-2.13A46.64,46.64,0,0,0-68.2,69.05a46.7,46.7,0,0,1-13.64,2.13,46.64,46.64,0,0,1-13.64-2.13,46.77,46.77,0,0,0-13.64-2.13" fill="none" stroke="#ccc" stroke-linecap="square" stroke-width="4"/><path d="M0,84.12a46.64,46.64,0,0,0-13.64,2.13,46.7,46.7,0,0,1-13.64,2.13,46.7,46.7,0,0,1-13.64-2.13,46.7,46.7,0,0,0-13.64-2.13A46.64,46.64,0,0,0-68.2,86.25a46.7,46.7,0,0,1-13.64,2.13,46.64,46.64,0,0,1-13.64-2.13,46.77,46.77,0,0,0-13.64-2.13" fill="none" stroke="#ccc" stroke-linecap="square" stroke-width="4"/><path d="M0,75.52a46.64,46.64,0,0,0-13.64,2.13,46.7,46.7,0,0,1-13.64,2.13,46.7,46.7,0,0,1-13.64-2.13,46.7,46.7,0,0,0-13.64-2.13A46.64,46.64,0,0,0-68.2,77.65a46.7,46.7,0,0,1-13.64,2.13,46.64,46.64,0,0,1-13.64-2.13,46.77,46.77,0,0,0-13.64-2.13" fill="none" stroke="#ccc" stroke-linecap="square" stroke-width="4"/><path d="M218.25,92.72a46.64,46.64,0,0,0-13.64,2.13,44.74,44.74,0,0,1-27.28,0,44.74,44.74,0,0,0-27.28,0,44.74,44.74,0,0,1-27.28,0,46.77,46.77,0,0,0-13.64-2.13" fill="none" stroke="#ccc" stroke-linecap="square" stroke-width="4"/><path d="M218.25,101.33a46.71,46.71,0,0,0-13.64,2.12,44.74,44.74,0,0,1-27.28,0,44.94,44.94,0,0,0-27.28,0,44.74,44.74,0,0,1-27.28,0,46.83,46.83,0,0,0-13.64-2.12" fill="none" stroke="#ccc" stroke-linecap="square" stroke-width="4"/><rect y="90.31" width="109.13" height="25.8" fill="#e6e6e6"/><path d="M109.13,92.72a46.79,46.79,0,0,0-13.65,2.13,44.74,44.74,0,0,1-27.28,0,46.64,46.64,0,0,0-13.64-2.13,46.7,46.7,0,0,0-13.64,2.13A46.7,46.7,0,0,1,27.28,97a46.7,46.7,0,0,1-13.64-2.13A46.7,46.7,0,0,0,0,92.72" fill="none" stroke="#ccc" stroke-linecap="square" stroke-width="4"/><path d="M109.13,101.33a46.85,46.85,0,0,0-13.65,2.12,44.74,44.74,0,0,1-27.28,0,46.71,46.71,0,0,0-13.64-2.12,46.77,46.77,0,0,0-13.64,2.12,46.36,46.36,0,0,1-13.64,2.13,46.36,46.36,0,0,1-13.64-2.13A46.77,46.77,0,0,0,0,101.33" fill="none" stroke="#ccc" stroke-linecap="square" stroke-width="4"/><path d="M0,92.72a46.64,46.64,0,0,0-13.64,2.13A46.7,46.7,0,0,1-27.28,97a46.7,46.7,0,0,1-13.64-2.13,46.7,46.7,0,0,0-13.64-2.13A46.64,46.64,0,0,0-68.2,94.85,46.7,46.7,0,0,1-81.84,97a46.64,46.64,0,0,1-13.64-2.13,46.77,46.77,0,0,0-13.64-2.13" fill="none" stroke="#ccc" stroke-linecap="square" stroke-width="4"/><path d="M0,101.33a46.71,46.71,0,0,0-13.64,2.12,46.36,46.36,0,0,1-13.64,2.13,46.36,46.36,0,0,1-13.64-2.13,46.77,46.77,0,0,0-13.64-2.12,46.71,46.71,0,0,0-13.64,2.12,46.36,46.36,0,0,1-13.64,2.13,46.3,46.3,0,0,1-13.64-2.13,46.83,46.83,0,0,0-13.64-2.12" fill="none" stroke="#ccc" stroke-linecap="square" stroke-width="4"/></g></pattern><radialGradient id="radial-gradient" cx="150.14" cy="4308.13" r="89.86" gradientTransform="translate(-419.72 -1547.84) scale(7.61 0.56)" gradientUnits="userSpaceOnUse"><stop offset="0" stop-color="#131517"/><stop offset="0.07" stop-color="#2e3031"/><stop offset="0.21" stop-color="#737374"/><stop offset="0.23" stop-color="#7d7d7d"/><stop offset="0.26" stop-color="#8a8a8a" stop-opacity="0.9"/><stop offset="0.35" stop-color="#aeaeae" stop-opacity="0.62"/><stop offset="0.45" stop-color="#ccc" stop-opacity="0.4"/><stop offset="0.56" stop-color="#e2e2e2" stop-opacity="0.22"/><stop offset="0.68" stop-color="#f3f3f3" stop-opacity="0.1"/><stop offset="0.81" stop-color="#fcfcfc" stop-opacity="0.02"/><stop offset="1" stop-color="#fff" stop-opacity="0"/></radialGradient><linearGradient id="linear-gradient-5" x1="-0.08" y1="845.72" x2="1.08" y2="845.72" xlink:href="#linear-gradient"/><linearGradient id="linear-gradient-6" x1="396.33" y1="223.19" x2="1043.07" y2="223.19" gradientUnits="userSpaceOnUse"><stop offset="0" stop-color="#fbfbfb"/><stop offset="1" stop-color="#e9e9e9"/></linearGradient><linearGradient id="linear-gradient-7" x1="721.28" y1="251.77" x2="716.07" y2="901.31" xlink:href="#linear-gradient-2"/><linearGradient id="linear-gradient-8" x1="497.13" y1="592.25" x2="548.36" y2="524.52" xlink:href="#linear-gradient-3"/><linearGradient id="linear-gradient-9" x1="264.35" y1="592.25" x2="315.58" y2="524.52" gradientTransform="matrix(-1, 0, 0, 1, 1206.47, 0)" xlink:href="#linear-gradient-3"/></defs><title>envelope</title><g style="isolation:isolate"><g id="Layer_2" data-name="Layer 2"><g id="animation"><rect id="body" x="373.96" y="358.5" width="699.86" height="513.27" fill="url(#linear-gradient)"/><g id="accents"><polygon id="accent-left" points="657.7 629.39 662.82 632.9 373.82 826.25 373.82 820.9 657.7 629.39" fill="#f2f2f2"/><polygon id="accent-right" points="792.43 627.67 787.89 630.78 1073.65 831.6 1073.65 824.98 792.43 627.67" fill="#f2f2f2"/></g><g id="pattern-bottom" opacity="0.6"><polygon points="1038.53 441.35 1038.53 358.51 410.04 358.51 410.14 442.08 723.8 658.37 1038.53 441.35" fill="url(#Unnamed_Pattern_2)"/><polygon points="1038.53 441.35 1038.53 358.51 410.04 358.51 410.14 442.08 723.8 658.37 1038.53 441.35" opacity="0.2" fill="url(#linear-gradient-2)"/></g><g id="shadows-inner"><polygon points="373.96 376.55 398.28 451.65 723.8 674.7 723.8 674.7 723.8 658.37 405.76 439 373.96 360.34 373.96 376.55" fill="url(#linear-gradient-3)"/><polygon points="1073.65 376.55 1049.33 451.65 723.8 674.7 723.8 674.7 723.8 658.37 1041.85 439 1073.65 360.34 1073.65 376.55" fill="url(#linear-gradient-4)"/></g><path id="closed" d="M743.72,358.46h-369a.79.79,0,0,0-.8.92L386.18,443c0,.21,321.47,228.86,321.47,228.86l15.72,11.17a1,1,0,0,0,1,0c.28-.19,7.36-5.22,15.73-11.19l321-229.1c.17-.12,12.66-83.4,12.66-83.4a.79.79,0,0,0-.8-.92Z" fill="#fff"/><polygon id="pattern-top" points="1038.57 351.16 1016.94 283.37 725.33 80.91 724.4 80.28 724.28 80.36 724.17 80.28 723.24 80.91 431.63 283.37 410 351.16 410.04 358.47 724.28 358.47 1038.53 358.47 1038.57 351.16" fill="url(#Unnamed_Pattern_2)"/><g mask="url(#mask)"><polygon id="paper" points="406 799.53 406 369.65 1041.18 369.65 1041.18 800.92 406 799.53" fill="#f2f2f2" stroke="#fff" stroke-miterlimit="10" stroke-width="9.18"/></g><g id="button"><path d="M771.45,672.32a48.09,48.09,0,1,1-48.09-48.08,48.09,48.09,0,0,1,48.09,48.08" fill="url(#Unnamed_Pattern_2-5)"/><circle cx="723.36" cy="672.32" r="48.09" fill="none" stroke="#fff" stroke-miterlimit="10" stroke-width="0.5"/><path d="M717.05,652.19c4.87-2.05,9.68-1.8,14,1.28,4.73,3.35,4.13,9.26,1.41,12.57-.89,1.08-1.17,1.14-2.41.43-.84-.49-1.62-1.08-2.43-1.63-.54-.38-.55-.81-.26-1.39a8.16,8.16,0,0,0,.87-3c0-2.79-2.45-4.64-5.61-4.4-2.27.19-4,1.14-4.8,3.3a4.67,4.67,0,0,0,1.56,5.6,44,44,0,0,0,4.74,3.12c2.77,1.66,5.67,3.15,8.37,4.92a10.39,10.39,0,0,1,4.76,6.67,11.14,11.14,0,0,1-5.6,11.87,18.36,18.36,0,0,1-9.55,2.31,17.36,17.36,0,0,1-9.4-2.62,10.79,10.79,0,0,1-3.06-3.11,8.32,8.32,0,0,0,1-.61,9.62,9.62,0,0,0,1.71-1.34,9.67,9.67,0,0,1-1.84.44,9,9,0,0,1-1.65.15,11.67,11.67,0,0,1-4.33-.8,1.16,1.16,0,0,1-.76-.72,1.12,1.12,0,0,1,.13-1l1.51-3c.36-.72.88-.81,1.67-.51A5,5,0,0,0,713,679c.49-.69,1-.85,1.68-.46l3,1.66a1.23,1.23,0,0,1,.69.79,1.15,1.15,0,0,1-.23,1,11.62,11.62,0,0,1-3,2.9,6.82,6.82,0,0,0,3.39,2.89,10.64,10.64,0,0,0,7.75.24c4.7-1.58,6.38-7.64,2.18-10.91a46.75,46.75,0,0,0-5.42-3.43c-2.37-1.39-4.88-2.56-7.17-4.06a9.65,9.65,0,0,1-4.72-7.2,9.53,9.53,0,0,1,5.95-10.22" fill="#4d4d4d"/></g><path id="arrow" d="M719,563.15l4,6.17,3.91-6c1.19-1.82,3-4.84,3.92-6.73l1.52-2.93-.52-.17-2.24,2.82c-1.39,1.75-3.49,4.66-4.67,6.48l-1.55,2.39.3-3.77c.22-2.88.41-7.57.41-10.46V536.51c0-2.88-.19-7.58-.41-10.45l-.37-4.62h-.6l-.37,4.62c-.23,2.88-.41,7.57-.41,10.45v14.42c0,2.88.18,7.57.41,10.46l.3,3.77L721,562.62c-1.19-1.82-3.28-4.73-4.67-6.49l-2.12-2.67-.56.19,1.43,2.77c1,1.88,2.74,4.9,3.93,6.73" fill="#4d4d4d"/><g id="text"><path d="M646.52,493.41a5,5,0,0,1-1.73-2.16,7.43,7.43,0,0,1-.56-2.88,14.12,14.12,0,0,1,1.51-6.18,15.59,15.59,0,0,1,3.87-5.11,7.28,7.28,0,0,1,4.74-2,2.84,2.84,0,0,1,1.79.53,1.94,1.94,0,0,1,.68,1.64,6.79,6.79,0,0,1-.44,2.19,7.53,7.53,0,0,1-1.12,2.11,1.85,1.85,0,0,1-1.37.86,1.11,1.11,0,0,1-1-.73,16.88,16.88,0,0,0,1.75-2.38,4.7,4.7,0,0,0,.84-2.24c0-.62-.36-.93-1.07-.93-1.11,0-2.29.68-3.53,2a16.91,16.91,0,0,0-3.12,5,14.14,14.14,0,0,0-1.25,5.47,5.73,5.73,0,0,0,.86,3.21A2.86,2.86,0,0,0,650,493.1a5.17,5.17,0,0,0,2.52-.7,9.22,9.22,0,0,0,2.36-1.87,10.39,10.39,0,0,0,1.71-2.52l.62.4a13.12,13.12,0,0,1-3.37,4.2,6.83,6.83,0,0,1-4.41,1.63,4.8,4.8,0,0,1-2.9-.83" fill="#666"/><path d="M656.53,492.2a3.22,3.22,0,0,1-.47-1.83,16.52,16.52,0,0,1,1.49-5.86,40.33,40.33,0,0,1,3.34-6.57c1.24-1.93,2.15-2.9,2.74-2.9q.4,0,.69.63a3.48,3.48,0,0,1,.31,1.27,9.32,9.32,0,0,1-.89,3.21,23.74,23.74,0,0,1-2.36,4.27,15.51,15.51,0,0,1-3.18,3.49,14.55,14.55,0,0,0-.26,2.24,2.26,2.26,0,0,0,.27,1.24.85.85,0,0,0,.75.4,2.52,2.52,0,0,0,1.77-1.1,11.8,11.8,0,0,0,1.68-2.68l.57.31a11.48,11.48,0,0,1-2.31,3.37,3.78,3.78,0,0,1-2.61,1.2,1.73,1.73,0,0,1-1.53-.69m4.51-9a23.64,23.64,0,0,0,1.81-3.52,7.5,7.5,0,0,0,.68-2.47c-.21,0-.62.48-1.25,1.45a33.2,33.2,0,0,0-2,3.6,32.58,32.58,0,0,0-1.68,4.18A19.49,19.49,0,0,0,661,483.2" fill="#666"/><path d="M662.2,492.29a2.12,2.12,0,0,1-.55-1.52,8.76,8.76,0,0,1,.54-2.58,11.54,11.54,0,0,1,1.35-2.87c.55-.82,1.1-1.24,1.66-1.24a.76.76,0,0,1,.51.18.66.66,0,0,1,.2.51,1.36,1.36,0,0,1-.19.59c-.13.24-.33.59-.62,1.06a21.43,21.43,0,0,0-1.2,2.22,4.44,4.44,0,0,0-.44,1.82,1.45,1.45,0,0,0,.26,1,1.11,1.11,0,0,0,.81.26q1.88,0,3.74-3.64l.35.38a8.51,8.51,0,0,1-2.12,3.26,4,4,0,0,1-2.75,1.17,2,2,0,0,1-1.55-.6m3.51-10.37a.79.79,0,0,1-.35-.69,1.17,1.17,0,0,1,.61-1,2.3,2.3,0,0,1,1.3-.41c.68,0,1,.29,1,.88a1.28,1.28,0,0,1-.55,1,1.8,1.8,0,0,1-1.19.47,1.43,1.43,0,0,1-.84-.24" fill="#666"/><path d="M668.28,492.71a3.21,3.21,0,0,1-.78-2.34,6.23,6.23,0,0,1,.78-3,6.68,6.68,0,0,1,2-2.35,4.17,4.17,0,0,1,2.5-.91,1.88,1.88,0,0,1,1.41.48,1.62,1.62,0,0,1,.47,1.19,2.66,2.66,0,0,1-.35,1.32,1,1,0,0,1-.84.6.85.85,0,0,1-.74-.45,1.67,1.67,0,0,0,.52-.66,2.46,2.46,0,0,0,.24-1.12c0-.27-.15-.41-.45-.41a2.4,2.4,0,0,0-1.64.91,7.74,7.74,0,0,0-1.48,2.19,5.52,5.52,0,0,0-.59,2.33,2,2,0,0,0,.38,1.27,1.53,1.53,0,0,0,1.31.51,4,4,0,0,0,1.89-.52,6.67,6.67,0,0,0,1.84-1.49,7.57,7.57,0,0,0,1.36-2.22l.47.43a8.74,8.74,0,0,1-1.58,2.57,7.76,7.76,0,0,1-2.25,1.79,5.1,5.1,0,0,1-2.42.66,2.73,2.73,0,0,1-2.06-.8" fill="#666"/><path d="M681.54,492.33a5,5,0,0,1-.95-1.8,6.93,6.93,0,0,1-.31-1.88c2.05-.46,3.07-1.16,3.07-2.12a.93.93,0,0,0-.27-.69,1.1,1.1,0,0,0-.78-.26,3.1,3.1,0,0,0-2.55,1.85,25.36,25.36,0,0,0-2,4.27,3.38,3.38,0,0,1-.5,1,.9.9,0,0,1-.69.25.82.82,0,0,1-.66-.33,2.56,2.56,0,0,1-.27-1.45,19.25,19.25,0,0,1,1.4-6.51,35,35,0,0,1,3.21-6.6c1.21-1.89,2.13-2.84,2.76-2.84a.8.8,0,0,1,.68.5,2.5,2.5,0,0,1,.28,1.24,6.08,6.08,0,0,1-.63,2.46,11,11,0,0,1-1.76,2.68,10.62,10.62,0,0,1-2.54,2.12,22.19,22.19,0,0,0-1,3,16.68,16.68,0,0,0-.47,2.75q2.57-5.9,5.28-5.9a2.34,2.34,0,0,1,1.66.68,2.18,2.18,0,0,1,.72,1.65,2.11,2.11,0,0,1-.6,1.51,3.77,3.77,0,0,1-1.4,1,4.38,4.38,0,0,1-1.43.34,8.33,8.33,0,0,0,.66,1.94,1.31,1.31,0,0,0,1.22.85,2.59,2.59,0,0,0,1.81-1.13,12.82,12.82,0,0,0,1.74-2.87l.33.4a9.73,9.73,0,0,1-1.9,3.33,3.46,3.46,0,0,1-2.53,1.41,2,2,0,0,1-1.57-.75m.3-12.23a5.13,5.13,0,0,0,1-2.68,5.11,5.11,0,0,0-1.31,1.67,29.2,29.2,0,0,0-1.81,3.47,12.25,12.25,0,0,0,2.13-2.46" fill="#666"/><path d="M693.11,492.32a6.54,6.54,0,0,1-.24-1.93,18.33,18.33,0,0,1,1.34-5.82A37,37,0,0,1,697.3,478c1.15-1.9,2.1-2.86,2.83-2.86a.85.85,0,0,1,.75.53,2.48,2.48,0,0,1,.27,1.16,7.74,7.74,0,0,1-.8,2.93,17.07,17.07,0,0,1-2.09,3.53,9.42,9.42,0,0,1-2.68,2.51,11.48,11.48,0,0,0-.81,4.05l0,.5a4.74,4.74,0,0,0,.21-.52,20.72,20.72,0,0,1,1-2.24,7.16,7.16,0,0,1,1.44-1.87,3,3,0,0,1,2.13-.87,1.83,1.83,0,0,1,1.59.7,2.74,2.74,0,0,1,.5,1.66,3.4,3.4,0,0,1-.14,1c-.09.32-.24.72-.43,1.21l-.18.45a5.81,5.81,0,0,0-.19.61,2.41,2.41,0,0,0-.06.49c0,.51.22.76.65.76a2.17,2.17,0,0,0,1.23-.52,7.43,7.43,0,0,0,1.41-1.4,10.72,10.72,0,0,0,1.19-1.91l.38.41a10.3,10.3,0,0,1-2.13,3.16,3.8,3.8,0,0,1-2.68,1.21,1.93,1.93,0,0,1-1.37-.46,1.6,1.6,0,0,1-.48-1.2,7.92,7.92,0,0,1,.33-1.71,6.63,6.63,0,0,0,.36-1.74c0-.67-.29-1-.86-1a1.71,1.71,0,0,0-1.44.89,17.52,17.52,0,0,0-1.32,2.63,15.49,15.49,0,0,1-1.05,2.2,1.26,1.26,0,0,1-1,.73c-.34,0-.58-.26-.74-.76M698,482a19.51,19.51,0,0,0,1.48-2.73,5.67,5.67,0,0,0,.57-1.89,4,4,0,0,0-1,1.15,21,21,0,0,0-1.55,2.6,24,24,0,0,0-1.36,3.15A11.43,11.43,0,0,0,698,482" fill="#666"/><path d="M704.93,492.41a2.78,2.78,0,0,1-.83-2.07,6,6,0,0,1,.93-3,8.68,8.68,0,0,1,2.38-2.69,4.75,4.75,0,0,1,2.85-1.09,2.05,2.05,0,0,1,1.24.37,1.45,1.45,0,0,1,.5,1.23,3.2,3.2,0,0,1-.88,2.15,6.62,6.62,0,0,1-2.27,1.66,9.5,9.5,0,0,1-2.85.8,3.09,3.09,0,0,0,0,.55,2.52,2.52,0,0,0,.34,1.24,1.57,1.57,0,0,0,1.49.62,4.82,4.82,0,0,0,3-1.18,9.07,9.07,0,0,0,2.44-2.94l.48.38a8.51,8.51,0,0,1-2.73,3.45,6.11,6.11,0,0,1-3.67,1.31,3.23,3.23,0,0,1-2.34-.81m3.25-4.19a6.31,6.31,0,0,0,1.8-1.46,2.68,2.68,0,0,0,.74-1.7.53.53,0,0,0-.1-.36.44.44,0,0,0-.31-.09,2.48,2.48,0,0,0-1.51.65,7.62,7.62,0,0,0-1.51,1.66,7.83,7.83,0,0,0-1,2,5,5,0,0,0,1.91-.69" fill="#666"/><path d="M715.59,492.33a1.57,1.57,0,0,1-.54-1.25,3.15,3.15,0,0,1,.18-1,10.21,10.21,0,0,1,.53-1.3,12.08,12.08,0,0,0,.48-1.13,2.46,2.46,0,0,0,.16-.82c0-.6-.39-1.11-1.19-1.52a25.35,25.35,0,0,1-1.1,2.4c-.42.81-.8,1.5-1.13,2l-.36-.69a28,28,0,0,0,1.93-4.31.84.84,0,0,1-.24-.64,2.06,2.06,0,0,1,.38-1.17c.25-.36.5-.54.74-.54a.44.44,0,0,1,.39.28,1.12,1.12,0,0,1,.16.48,2.11,2.11,0,0,1-.11.42l-.16.46a.57.57,0,0,0,.19.32,5.06,5.06,0,0,0,.62.44,6.92,6.92,0,0,1,1.3,1.06,2,2,0,0,1,.46,1.37,3.38,3.38,0,0,1-.17,1,12.16,12.16,0,0,1-.54,1.27,4,4,0,0,0-.52,1.5c0,.36.19.54.59.54a2.83,2.83,0,0,0,1.56-.57,7.77,7.77,0,0,0,1.55-1.39,7.11,7.11,0,0,0,1-1.54l.57.43a7.81,7.81,0,0,1-1.33,2.05,7.61,7.61,0,0,1-1.92,1.59,4,4,0,0,1-2.08.62,2.15,2.15,0,0,1-1.43-.46" fill="#666"/><path d="M721.69,492.41a2.75,2.75,0,0,1-.84-2.07,6,6,0,0,1,.93-3,8.68,8.68,0,0,1,2.38-2.69,4.75,4.75,0,0,1,2.86-1.09,2,2,0,0,1,1.23.37,1.42,1.42,0,0,1,.5,1.23,3.2,3.2,0,0,1-.88,2.15A6.52,6.52,0,0,1,725.6,489a9.52,9.52,0,0,1-2.84.8,3,3,0,0,0,0,.55,2.52,2.52,0,0,0,.34,1.24,1.57,1.57,0,0,0,1.49.62,4.79,4.79,0,0,0,3-1.18,9.07,9.07,0,0,0,2.44-2.94l.48.38a8.43,8.43,0,0,1-2.73,3.45,6.11,6.11,0,0,1-3.67,1.31,3.19,3.19,0,0,1-2.33-.81m3.24-4.19a6.31,6.31,0,0,0,1.8-1.46,2.68,2.68,0,0,0,.74-1.7.48.48,0,0,0-.1-.36.43.43,0,0,0-.31-.09,2.48,2.48,0,0,0-1.51.65,8.49,8.49,0,0,0-2.53,3.65,5,5,0,0,0,1.91-.69" fill="#666"/><path d="M736,492.64a2.59,2.59,0,0,1-.62-1.87,10.18,10.18,0,0,1,.36-2.37,29.17,29.17,0,0,1,1-3.06,4.94,4.94,0,0,1-.83-.21v-.74q.57.08,1.14.12a27.6,27.6,0,0,1,2.3-4.62c.81-1.28,1.48-1.92,2-1.92a.67.67,0,0,1,.67.69,2.45,2.45,0,0,1-.33,1c-.23.43-.59,1.08-1.1,1.95-.7,1.18-1.24,2.16-1.64,2.95,1.82,0,3.28-.05,4.35-.16v.78c-1.87.19-3.46.29-4.78.29a13.08,13.08,0,0,0-1.24,4.78,2.38,2.38,0,0,0,.31,1.38,1.17,1.17,0,0,0,1,.4A3.79,3.79,0,0,0,741,491a9.39,9.39,0,0,0,2.18-2.94l.33.24a10.42,10.42,0,0,1-2.52,3.61,4.83,4.83,0,0,1-3.22,1.39,2.28,2.28,0,0,1-1.71-.63" fill="#666"/><path d="M742.57,492.29a2.71,2.71,0,0,1-.44-1.59,5.82,5.82,0,0,1,.41-2.07,5.46,5.46,0,0,1,1.09-1.79,1.89,1.89,0,0,1,1.35-.71,2,2,0,0,1,.74.19,3.28,3.28,0,0,1,.77-1.81,2.26,2.26,0,0,1,1.78-.71,1.75,1.75,0,0,1,1.4.53,2.1,2.1,0,0,1,.45,1.4,5,5,0,0,1-.44,1.9,13,13,0,0,1-1.13,2.14,1.41,1.41,0,0,0,.67.14,3,3,0,0,0,2.59-1.78l.43.31a4.07,4.07,0,0,1-1.34,1.74,3.07,3.07,0,0,1-1.75.59,3.78,3.78,0,0,1-1.19-.21,8.82,8.82,0,0,1-1.93,1.71,3.86,3.86,0,0,1-2,.67,1.58,1.58,0,0,1-1.41-.65m3.32-1a8.29,8.29,0,0,0,1.23-1.22,4.59,4.59,0,0,1-1.42-3.5,2.25,2.25,0,0,0-.69.88,9.19,9.19,0,0,0-.69,1.65,5.32,5.32,0,0,0-.29,1.57c0,.73.27,1.09.81,1.09a1.94,1.94,0,0,0,1-.47m2.84-3.81a4.62,4.62,0,0,0,.39-1.71q0-1.05-.66-1.05a1,1,0,0,0-.65.31,2.25,2.25,0,0,0-.54.82,2.78,2.78,0,0,0-.22,1.13,5.21,5.21,0,0,0,.19,1.25,3,3,0,0,0,.5,1.08,10.18,10.18,0,0,0,1-1.83" fill="#666"/><path d="M757.61,492.29a2.71,2.71,0,0,1-.44-1.59,6.08,6.08,0,0,1,1.49-3.86,1.92,1.92,0,0,1,1.36-.71,2,2,0,0,1,.74.19,3.28,3.28,0,0,1,.77-1.81,2.25,2.25,0,0,1,1.77-.71,1.76,1.76,0,0,1,1.41.53,2.1,2.1,0,0,1,.45,1.4,5.15,5.15,0,0,1-.44,1.9,13,13,0,0,1-1.13,2.14,1.41,1.41,0,0,0,.67.14,2.78,2.78,0,0,0,1.42-.44,2.81,2.81,0,0,0,1.17-1.34l.43.31a4,4,0,0,1-1.35,1.74,3,3,0,0,1-1.74.59,3.78,3.78,0,0,1-1.19-.21,8.82,8.82,0,0,1-1.93,1.71,3.86,3.86,0,0,1-2.05.67,1.58,1.58,0,0,1-1.41-.65m3.32-1a8.29,8.29,0,0,0,1.23-1.22,4.63,4.63,0,0,1-1.43-3.5,2.25,2.25,0,0,0-.69.88,9.19,9.19,0,0,0-.69,1.65,5.27,5.27,0,0,0-.28,1.57c0,.73.27,1.09.81,1.09a1.94,1.94,0,0,0,1-.47m2.84-3.81a4.62,4.62,0,0,0,.39-1.71q0-1.05-.66-1.05a1,1,0,0,0-.65.31,2.25,2.25,0,0,0-.54.82,2.78,2.78,0,0,0-.22,1.13,4.75,4.75,0,0,0,.19,1.25,2.86,2.86,0,0,0,.5,1.08,10.18,10.18,0,0,0,1-1.83" fill="#666"/><path d="M764.36,498.62c-.21-.14-.33-.27-.34-.38q1.05-3,1.53-4.77a31.79,31.79,0,0,0,.81-3.66c.22-1.3.5-3.28.85-6a1,1,0,0,1,.13-.45c0-.07.2-.1.44-.1a1.39,1.39,0,0,1,1.05.37,1.25,1.25,0,0,1,.35.89,14.42,14.42,0,0,1-.33,2.24,7.83,7.83,0,0,1,1.75-1.94,3.38,3.38,0,0,1,2.13-.78,2.58,2.58,0,0,1,1.93.8,2.89,2.89,0,0,1,.76,2.06,5.77,5.77,0,0,1-.75,2.68,6.75,6.75,0,0,1-2.09,2.36,4.91,4.91,0,0,1-3,1,3.13,3.13,0,0,1-1.2-.2c-.31-.12-.46-.26-.46-.42s.19-.24.57-.24a4.85,4.85,0,0,0,2.57-.77,5.47,5.47,0,0,0,1.78-1.87,4.45,4.45,0,0,0,.65-2.22,2.2,2.2,0,0,0-.34-1.26,1.12,1.12,0,0,0-1-.5,2.54,2.54,0,0,0-1.52.61,7,7,0,0,0-1.4,1.46,8.78,8.78,0,0,0-.95,1.6c-.27.93-.62,2.28-1.05,4a42.91,42.91,0,0,1-1.18,4.3c-.32.91-.7,1.37-1.13,1.37a1.09,1.09,0,0,1-.61-.22" fill="#666"/><path d="M776.56,492.41a2.74,2.74,0,0,1-.83-2.07,6.09,6.09,0,0,1,.92-3,8.81,8.81,0,0,1,2.38-2.69,4.75,4.75,0,0,1,2.86-1.09,2.09,2.09,0,0,1,1.24.37,1.45,1.45,0,0,1,.5,1.23,3.25,3.25,0,0,1-.88,2.15,6.66,6.66,0,0,1-2.28,1.66,9.36,9.36,0,0,1-2.84.8,3,3,0,0,0,0,.55,2.54,2.54,0,0,0,.35,1.24,1.55,1.55,0,0,0,1.48.62,4.84,4.84,0,0,0,3-1.18,9.19,9.19,0,0,0,2.44-2.94l.47.38a8.41,8.41,0,0,1-2.72,3.45,6.14,6.14,0,0,1-3.68,1.31,3.19,3.19,0,0,1-2.33-.81m3.25-4.19a6.4,6.4,0,0,0,1.79-1.46,2.63,2.63,0,0,0,.74-1.7.54.54,0,0,0-.09-.36.46.46,0,0,0-.31-.09,2.46,2.46,0,0,0-1.51.65,7.65,7.65,0,0,0-1.52,1.66,7.83,7.83,0,0,0-1,2,5.1,5.1,0,0,0,1.92-.69" fill="#666"/><path d="M790.86,492.2a1.54,1.54,0,0,1-.5-1.19,2.94,2.94,0,0,1,.11-.72c.07-.27.14-.54.22-.81a5.89,5.89,0,0,0,.34-1.61,1,1,0,0,0-.24-.71.84.84,0,0,0-.6-.22,3.47,3.47,0,0,0-2.54,1.58,35.93,35.93,0,0,0-2.76,4,1.83,1.83,0,0,1-1.55-.69l.21-.59A15,15,0,0,0,785,486.2a1.9,1.9,0,0,1,.55-.39,1.48,1.48,0,0,1,.69-.18.86.86,0,0,1,.61.19.65.65,0,0,1,.22.52,9.3,9.3,0,0,1-.41,2.12,12.49,12.49,0,0,1,2.23-2.33,3.72,3.72,0,0,1,2.27-.9,1.77,1.77,0,0,1,1.48.65,2.43,2.43,0,0,1,.52,1.56,3.66,3.66,0,0,1-.13,1,9,9,0,0,1-.39,1.07,4.46,4.46,0,0,0-.41,1.5.71.71,0,0,0,.17.52.54.54,0,0,0,.4.17,2.44,2.44,0,0,0,1.7-1.08,12.69,12.69,0,0,0,1.66-2.56l.4.33a11.28,11.28,0,0,1-1.89,3.12,3.13,3.13,0,0,1-2.37,1.14,2,2,0,0,1-1.4-.45" fill="#666"/><path d="M795.77,492.21a.72.72,0,0,1-.27-.61,1,1,0,0,1,.49-.77,1.8,1.8,0,0,1,1.06-.35c.54,0,.81.25.81.74a1.08,1.08,0,0,1-.44.81,1.44,1.44,0,0,1-1,.38,1.16,1.16,0,0,1-.68-.2M797,489.6a6.42,6.42,0,0,1,.36-1.88q.36-1.11.93-2.61c1.23-3.19,2.28-5.67,3.13-7.43S803,475,803.61,475a.62.62,0,0,1,.47.22.7.7,0,0,1,.2.49,13.51,13.51,0,0,1-1.36,3.49q-1.35,2.86-3.08,6.05t-2.6,4.41Z" fill="#666"/></g><rect id="paper-morph-to" x="290" y="161.22" width="860" height="645" fill="#f49494"/><rect id="dummy" width="1440" height="967.43" fill="none"/><g id="envelope-half"><path id="_7" data-name="7" d="M1406.94,845.29c0,27.57-306.21,49.92-683.93,49.92S39.08,872.86,39.08,845.29,345.29,795.37,723,795.37,1406.94,817.72,1406.94,845.29Z" opacity="0.43" fill="url(#radial-gradient)" style="mix-blend-mode:multiply"/><rect id="_6" data-name="6" x="396.33" y="364.85" width="646.74" height="474.31" fill="url(#linear-gradient-5)"/><g id="_5" data-name="5"><polygon id="accent-left-2" data-name="accent-left" points="658.53 615.19 663.26 618.43 396.21 797.1 396.21 792.16 658.53 615.19" fill="#f2f2f2"/><polygon id="accent-right-2" data-name="accent-right" points="783.05 613.6 778.85 616.47 1042.91 802.04 1042.91 795.93 783.05 613.6" fill="#f2f2f2"/></g><polygon id="_4" data-name="4" points="718.77 82.16 418.81 288.02 396.33 357.36 396.33 364.86 1043.08 364.86 1043.08 357.36 1020.54 288.02 720.64 82.16 719.68 81.53 718.77 82.16" fill="url(#linear-gradient-6)"/><g id="_3" data-name="3" opacity="0.6"><polygon points="1010.46 441.42 1010.46 364.87 429.68 364.87 429.77 442.09 719.63 641.97 1010.46 441.42" fill="url(#Unnamed_Pattern_2)"/><polygon points="1010.46 441.42 1010.46 364.87 429.68 364.87 429.77 442.09 719.63 641.97 1010.46 441.42" opacity="0.2" fill="url(#linear-gradient-7)"/></g><g id="_2" data-name="2"><polygon points="396.33 381.54 418.81 450.94 719.63 657.06 719.63 657.05 719.63 641.97 425.72 439.24 396.33 366.55 396.33 381.54" fill="url(#linear-gradient-8)"/><polygon points="1042.92 381.54 1020.44 450.94 719.63 657.06 719.63 657.05 719.63 641.97 1013.53 439.24 1042.92 366.55 1042.92 381.54" fill="url(#linear-gradient-9)"/></g><polygon id="_1" data-name="1" points="1010.49 358.07 990.51 295.43 721.03 108.34 720.17 107.76 720.07 107.83 719.97 107.76 719.11 108.34 449.63 295.43 429.64 358.07 429.68 364.83 720.07 364.83 1010.46 364.83 1010.49 358.07" fill="url(#Unnamed_Pattern_2)"/></g></g></g></g></svg>