<svg xmlns="http://www.w3.org/2000/svg" xmlns:xlink="http://www.w3.org/1999/xlink" viewBox="0 0 1440 724"><defs><clipPath id="clip-path"><rect width="109.13" height="103.21" fill="none"/></clipPath><radialGradient id="radial-gradient" cx="130.02" cy="4047.41" r="71.08" gradientTransform="translate(-419.72 -1601.95) scale(7.61 0.56)" gradientUnits="userSpaceOnUse"><stop offset="0" stop-color="#131517"/><stop offset="0.07" stop-color="#2e3031"/><stop offset="0.21" stop-color="#737374"/><stop offset="0.23" stop-color="#7d7d7d"/><stop offset="0.26" stop-color="#8a8a8a" stop-opacity="0.9"/><stop offset="0.35" stop-color="#aeaeae" stop-opacity="0.62"/><stop offset="0.45" stop-color="#ccc" stop-opacity="0.4"/><stop offset="0.56" stop-color="#e2e2e2" stop-opacity="0.22"/><stop offset="0.68" stop-color="#f3f3f3" stop-opacity="0.1"/><stop offset="0.81" stop-color="#fcfcfc" stop-opacity="0.02"/><stop offset="1" stop-color="#fff" stop-opacity="0"/></radialGradient><linearGradient id="linear-gradient" x1="-0.24" y1="723.96" x2="0.68" y2="723.96" gradientTransform="translate(443.36 -402521.2) scale(556.63)" gradientUnits="userSpaceOnUse"><stop offset="0" stop-color="#fafafa"/><stop offset="0.23" stop-color="#f6f6f6"/><stop offset="0.46" stop-color="#eaeaea"/><stop offset="0.5" stop-color="#e7e7e7"/><stop offset="0.55" stop-color="#ebebeb"/><stop offset="0.75" stop-color="#f5f5f5"/><stop offset="1" stop-color="#f8f8f8"/></linearGradient><linearGradient id="linear-gradient-2" x1="311.42" y1="154.29" x2="822.98" y2="154.29" gradientUnits="userSpaceOnUse"><stop offset="0" stop-color="#fbfbfb"/><stop offset="1" stop-color="#e9e9e9"/></linearGradient><pattern id="Unnamed_Pattern_2" data-name="Unnamed Pattern 2" width="109.12" height="103.21" patternTransform="matrix(1.23, 0, 0, -1.23, 2412.7, 21097.93)" patternUnits="userSpaceOnUse" viewBox="0 0 109.13 103.22"><rect width="109.13" height="103.21" fill="none"/><g clip-path="url(#clip-path)"><path d="M218.25,6.71a46.64,46.64,0,0,0-13.64,2.13A46.7,46.7,0,0,1,191,11a46.7,46.7,0,0,1-13.64-2.13,44.74,44.74,0,0,0-27.28,0A46.7,46.7,0,0,1,136.41,11a46.64,46.64,0,0,1-13.64-2.13,46.77,46.77,0,0,0-13.64-2.13" fill="none" stroke="#ccc" stroke-linecap="square" stroke-width="4"/><path d="M218.25-1.89A46.64,46.64,0,0,0,204.61.24,46.7,46.7,0,0,1,191,2.37,46.7,46.7,0,0,1,177.33.24a44.74,44.74,0,0,0-27.28,0,46.7,46.7,0,0,1-13.64,2.13A46.64,46.64,0,0,1,122.77.24a46.77,46.77,0,0,0-13.64-2.13" fill="none" stroke="#ccc" stroke-linecap="square" stroke-width="4"/><rect y="-12.9" width="109.13" height="25.8" fill="#e6e6e6"/><path d="M109.13,6.71A46.79,46.79,0,0,0,95.48,8.84,46.64,46.64,0,0,1,81.84,11,46.7,46.7,0,0,1,68.2,8.84,46.64,46.64,0,0,0,54.56,6.71,46.7,46.7,0,0,0,40.92,8.84,46.7,46.7,0,0,1,27.28,11,46.7,46.7,0,0,1,13.64,8.84,46.7,46.7,0,0,0,0,6.71" fill="none" stroke="#ccc" stroke-linecap="square" stroke-width="4"/><path d="M109.13-1.89A46.79,46.79,0,0,0,95.48.24,46.64,46.64,0,0,1,81.84,2.37,46.7,46.7,0,0,1,68.2.24,46.64,46.64,0,0,0,54.56-1.89,46.7,46.7,0,0,0,40.92.24,46.7,46.7,0,0,1,27.28,2.37,46.7,46.7,0,0,1,13.64.24,46.7,46.7,0,0,0,0-1.89" fill="none" stroke="#ccc" stroke-linecap="square" stroke-width="4"/><path d="M0,6.71A46.64,46.64,0,0,0-13.64,8.84,46.7,46.7,0,0,1-27.28,11,46.7,46.7,0,0,1-40.92,8.84,46.7,46.7,0,0,0-54.56,6.71,46.64,46.64,0,0,0-68.2,8.84,46.7,46.7,0,0,1-81.84,11,46.64,46.64,0,0,1-95.48,8.84a46.77,46.77,0,0,0-13.64-2.13" fill="none" stroke="#ccc" stroke-linecap="square" stroke-width="4"/><path d="M0-1.89A46.64,46.64,0,0,0-13.64.24,46.7,46.7,0,0,1-27.28,2.37,46.7,46.7,0,0,1-40.92.24,46.7,46.7,0,0,0-54.56-1.89,46.64,46.64,0,0,0-68.2.24,46.7,46.7,0,0,1-81.84,2.37,46.64,46.64,0,0,1-95.48.24a46.77,46.77,0,0,0-13.64-2.13" fill="none" stroke="#ccc" stroke-linecap="square" stroke-width="4"/><path d="M218.25,15.31a46.64,46.64,0,0,0-13.64,2.13A46.7,46.7,0,0,1,191,19.57a46.7,46.7,0,0,1-13.64-2.13,44.74,44.74,0,0,0-27.28,0,46.7,46.7,0,0,1-13.64,2.13,46.64,46.64,0,0,1-13.64-2.13,46.77,46.77,0,0,0-13.64-2.13" fill="none" stroke="#ccc" stroke-linecap="square" stroke-width="4"/><path d="M218.25,32.52a46.71,46.71,0,0,0-13.64,2.12A46.36,46.36,0,0,1,191,36.77a46.36,46.36,0,0,1-13.64-2.13,44.94,44.94,0,0,0-27.28,0,46.36,46.36,0,0,1-13.64,2.13,46.3,46.3,0,0,1-13.64-2.13,46.83,46.83,0,0,0-13.64-2.12" fill="none" stroke="#ccc" stroke-linecap="square" stroke-width="4"/><path d="M218.25,23.91A46.64,46.64,0,0,0,204.61,26,46.7,46.7,0,0,1,191,28.17,46.7,46.7,0,0,1,177.33,26a44.74,44.74,0,0,0-27.28,0,46.7,46.7,0,0,1-13.64,2.13A46.64,46.64,0,0,1,122.77,26a46.77,46.77,0,0,0-13.64-2.13" fill="none" stroke="#ccc" stroke-linecap="square" stroke-width="4"/><rect y="12.9" width="109.13" height="25.8" fill="#e6e6e6"/><path d="M109.13,15.31a46.79,46.79,0,0,0-13.65,2.13,46.64,46.64,0,0,1-13.64,2.13A46.7,46.7,0,0,1,68.2,17.44a46.64,46.64,0,0,0-13.64-2.13,46.7,46.7,0,0,0-13.64,2.13,46.7,46.7,0,0,1-13.64,2.13,46.7,46.7,0,0,1-13.64-2.13A46.7,46.7,0,0,0,0,15.31" fill="none" stroke="#ccc" stroke-linecap="square" stroke-width="4"/><path d="M109.13,32.52a46.85,46.85,0,0,0-13.65,2.12,46.3,46.3,0,0,1-13.64,2.13A46.36,46.36,0,0,1,68.2,34.64a46.71,46.71,0,0,0-13.64-2.12,46.77,46.77,0,0,0-13.64,2.12,46.36,46.36,0,0,1-13.64,2.13,46.36,46.36,0,0,1-13.64-2.13A46.77,46.77,0,0,0,0,32.52" fill="none" stroke="#ccc" stroke-linecap="square" stroke-width="4"/><path d="M109.13,23.91A46.79,46.79,0,0,0,95.48,26a46.64,46.64,0,0,1-13.64,2.13A46.7,46.7,0,0,1,68.2,26a46.64,46.64,0,0,0-13.64-2.13A46.7,46.7,0,0,0,40.92,26a46.7,46.7,0,0,1-13.64,2.13A46.7,46.7,0,0,1,13.64,26,46.7,46.7,0,0,0,0,23.91" fill="none" stroke="#ccc" stroke-linecap="square" stroke-width="4"/><path d="M0,15.31a46.64,46.64,0,0,0-13.64,2.13,46.7,46.7,0,0,1-13.64,2.13,46.7,46.7,0,0,1-13.64-2.13,46.7,46.7,0,0,0-13.64-2.13A46.64,46.64,0,0,0-68.2,17.44a46.7,46.7,0,0,1-13.64,2.13,46.64,46.64,0,0,1-13.64-2.13,46.77,46.77,0,0,0-13.64-2.13" fill="none" stroke="#ccc" stroke-linecap="square" stroke-width="4"/><path d="M0,32.52a46.71,46.71,0,0,0-13.64,2.12,46.36,46.36,0,0,1-13.64,2.13,46.36,46.36,0,0,1-13.64-2.13,46.77,46.77,0,0,0-13.64-2.12A46.71,46.71,0,0,0-68.2,34.64a46.36,46.36,0,0,1-13.64,2.13,46.3,46.3,0,0,1-13.64-2.13,46.83,46.83,0,0,0-13.64-2.12" fill="none" stroke="#ccc" stroke-linecap="square" stroke-width="4"/><path d="M0,23.91A46.64,46.64,0,0,0-13.64,26a46.7,46.7,0,0,1-13.64,2.13A46.7,46.7,0,0,1-40.92,26a46.7,46.7,0,0,0-13.64-2.13A46.64,46.64,0,0,0-68.2,26a46.7,46.7,0,0,1-13.64,2.13A46.64,46.64,0,0,1-95.48,26a46.77,46.77,0,0,0-13.64-2.13" fill="none" stroke="#ccc" stroke-linecap="square" stroke-width="4"/><path d="M218.25,41.12a46.71,46.71,0,0,0-13.64,2.12A46.36,46.36,0,0,1,191,45.37a46.36,46.36,0,0,1-13.64-2.13,44.94,44.94,0,0,0-27.28,0,46.36,46.36,0,0,1-13.64,2.13,46.3,46.3,0,0,1-13.64-2.13,46.83,46.83,0,0,0-13.64-2.12" fill="none" stroke="#ccc" stroke-linecap="square" stroke-width="4"/><path d="M218.25,58.32a46.3,46.3,0,0,0-13.64,2.13,44.74,44.74,0,0,1-27.28,0,44.74,44.74,0,0,0-27.28,0,44.74,44.74,0,0,1-27.28,0,46.43,46.43,0,0,0-13.64-2.13" fill="none" stroke="#ccc" stroke-linecap="square" stroke-width="4"/><path d="M218.25,49.72a46.3,46.3,0,0,0-13.64,2.13,44.94,44.94,0,0,1-27.28,0,44.74,44.74,0,0,0-27.28,0,44.94,44.94,0,0,1-27.28,0,46.43,46.43,0,0,0-13.64-2.13" fill="none" stroke="#ccc" stroke-linecap="square" stroke-width="4"/><rect y="38.71" width="109.13" height="25.8" fill="#e6e6e6"/><path d="M109.13,41.12a46.85,46.85,0,0,0-13.65,2.12,46.3,46.3,0,0,1-13.64,2.13A46.36,46.36,0,0,1,68.2,43.24a46.71,46.71,0,0,0-13.64-2.12,46.77,46.77,0,0,0-13.64,2.12,46.36,46.36,0,0,1-13.64,2.13,46.36,46.36,0,0,1-13.64-2.13A46.77,46.77,0,0,0,0,41.12" fill="none" stroke="#ccc" stroke-linecap="square" stroke-width="4"/><path d="M109.13,58.32a46.44,46.44,0,0,0-13.65,2.13,44.74,44.74,0,0,1-27.28,0,44.74,44.74,0,0,0-27.28,0,46.7,46.7,0,0,1-13.64,2.13,46.7,46.7,0,0,1-13.64-2.13A46.36,46.36,0,0,0,0,58.32" fill="none" stroke="#ccc" stroke-linecap="square" stroke-width="4"/><path d="M109.13,49.72a46.44,46.44,0,0,0-13.65,2.13,44.94,44.94,0,0,1-27.28,0,44.74,44.74,0,0,0-27.28,0A46.77,46.77,0,0,1,27.28,54a46.77,46.77,0,0,1-13.64-2.12A46.36,46.36,0,0,0,0,49.72" fill="none" stroke="#ccc" stroke-linecap="square" stroke-width="4"/><path d="M0,41.12a46.71,46.71,0,0,0-13.64,2.12,46.36,46.36,0,0,1-13.64,2.13,46.36,46.36,0,0,1-13.64-2.13,46.77,46.77,0,0,0-13.64-2.12A46.71,46.71,0,0,0-68.2,43.24a46.36,46.36,0,0,1-13.64,2.13,46.3,46.3,0,0,1-13.64-2.13,46.83,46.83,0,0,0-13.64-2.12" fill="none" stroke="#ccc" stroke-linecap="square" stroke-width="4"/><path d="M0,58.32a46.3,46.3,0,0,0-13.64,2.13,46.7,46.7,0,0,1-13.64,2.13,46.7,46.7,0,0,1-13.64-2.13,46.36,46.36,0,0,0-13.64-2.13A46.3,46.3,0,0,0-68.2,60.45a46.7,46.7,0,0,1-13.64,2.13,46.64,46.64,0,0,1-13.64-2.13,46.43,46.43,0,0,0-13.64-2.13" fill="none" stroke="#ccc" stroke-linecap="square" stroke-width="4"/><path d="M0,49.72a46.3,46.3,0,0,0-13.64,2.13A46.77,46.77,0,0,1-27.28,54a46.77,46.77,0,0,1-13.64-2.12,46.36,46.36,0,0,0-13.64-2.13A46.3,46.3,0,0,0-68.2,51.85,46.77,46.77,0,0,1-81.84,54a46.71,46.71,0,0,1-13.64-2.12,46.43,46.43,0,0,0-13.64-2.13" fill="none" stroke="#ccc" stroke-linecap="square" stroke-width="4"/><path d="M218.25,66.92a46.64,46.64,0,0,0-13.64,2.13,44.74,44.74,0,0,1-27.28,0,44.74,44.74,0,0,0-27.28,0,44.74,44.74,0,0,1-27.28,0,46.77,46.77,0,0,0-13.64-2.13" fill="none" stroke="#ccc" stroke-linecap="square" stroke-width="4"/><path d="M218.25,84.12a46.64,46.64,0,0,0-13.64,2.13,44.74,44.74,0,0,1-27.28,0,44.74,44.74,0,0,0-27.28,0,44.74,44.74,0,0,1-27.28,0,46.77,46.77,0,0,0-13.64-2.13" fill="none" stroke="#ccc" stroke-linecap="square" stroke-width="4"/><path d="M218.25,75.52a46.64,46.64,0,0,0-13.64,2.13,44.74,44.74,0,0,1-27.28,0,44.74,44.74,0,0,0-27.28,0,44.74,44.74,0,0,1-27.28,0,46.77,46.77,0,0,0-13.64-2.13" fill="none" stroke="#ccc" stroke-linecap="square" stroke-width="4"/><rect y="64.51" width="109.13" height="25.8" fill="#e6e6e6"/><path d="M109.13,66.92a46.79,46.79,0,0,0-13.65,2.13,44.74,44.74,0,0,1-27.28,0,46.64,46.64,0,0,0-13.64-2.13,46.7,46.7,0,0,0-13.64,2.13,46.7,46.7,0,0,1-13.64,2.13,46.7,46.7,0,0,1-13.64-2.13A46.7,46.7,0,0,0,0,66.92" fill="none" stroke="#ccc" stroke-linecap="square" stroke-width="4"/><path d="M109.13,84.12a46.79,46.79,0,0,0-13.65,2.13,44.74,44.74,0,0,1-27.28,0,46.64,46.64,0,0,0-13.64-2.13,46.7,46.7,0,0,0-13.64,2.13,46.7,46.7,0,0,1-13.64,2.13,46.7,46.7,0,0,1-13.64-2.13A46.7,46.7,0,0,0,0,84.12" fill="none" stroke="#ccc" stroke-linecap="square" stroke-width="4"/><path d="M109.13,75.52a46.79,46.79,0,0,0-13.65,2.13,44.74,44.74,0,0,1-27.28,0,46.64,46.64,0,0,0-13.64-2.13,46.7,46.7,0,0,0-13.64,2.13,46.7,46.7,0,0,1-13.64,2.13,46.7,46.7,0,0,1-13.64-2.13A46.7,46.7,0,0,0,0,75.52" fill="none" stroke="#ccc" stroke-linecap="square" stroke-width="4"/><path d="M0,66.92a46.64,46.64,0,0,0-13.64,2.13,46.7,46.7,0,0,1-13.64,2.13,46.7,46.7,0,0,1-13.64-2.13,46.7,46.7,0,0,0-13.64-2.13A46.64,46.64,0,0,0-68.2,69.05a46.7,46.7,0,0,1-13.64,2.13,46.64,46.64,0,0,1-13.64-2.13,46.77,46.77,0,0,0-13.64-2.13" fill="none" stroke="#ccc" stroke-linecap="square" stroke-width="4"/><path d="M0,84.12a46.64,46.64,0,0,0-13.64,2.13,46.7,46.7,0,0,1-13.64,2.13,46.7,46.7,0,0,1-13.64-2.13,46.7,46.7,0,0,0-13.64-2.13A46.64,46.64,0,0,0-68.2,86.25a46.7,46.7,0,0,1-13.64,2.13,46.64,46.64,0,0,1-13.64-2.13,46.77,46.77,0,0,0-13.64-2.13" fill="none" stroke="#ccc" stroke-linecap="square" stroke-width="4"/><path d="M0,75.52a46.64,46.64,0,0,0-13.64,2.13,46.7,46.7,0,0,1-13.64,2.13,46.7,46.7,0,0,1-13.64-2.13,46.7,46.7,0,0,0-13.64-2.13A46.64,46.64,0,0,0-68.2,77.65a46.7,46.7,0,0,1-13.64,2.13,46.64,46.64,0,0,1-13.64-2.13,46.77,46.77,0,0,0-13.64-2.13" fill="none" stroke="#ccc" stroke-linecap="square" stroke-width="4"/><path d="M218.25,92.72a46.64,46.64,0,0,0-13.64,2.13,44.74,44.74,0,0,1-27.28,0,44.74,44.74,0,0,0-27.28,0,44.74,44.74,0,0,1-27.28,0,46.77,46.77,0,0,0-13.64-2.13" fill="none" stroke="#ccc" stroke-linecap="square" stroke-width="4"/><path d="M218.25,101.33a46.71,46.71,0,0,0-13.64,2.12,44.74,44.74,0,0,1-27.28,0,44.94,44.94,0,0,0-27.28,0,44.74,44.74,0,0,1-27.28,0,46.83,46.83,0,0,0-13.64-2.12" fill="none" stroke="#ccc" stroke-linecap="square" stroke-width="4"/><rect y="90.31" width="109.13" height="25.8" fill="#e6e6e6"/><path d="M109.13,92.72a46.79,46.79,0,0,0-13.65,2.13,44.74,44.74,0,0,1-27.28,0,46.64,46.64,0,0,0-13.64-2.13,46.7,46.7,0,0,0-13.64,2.13A46.7,46.7,0,0,1,27.28,97a46.7,46.7,0,0,1-13.64-2.13A46.7,46.7,0,0,0,0,92.72" fill="none" stroke="#ccc" stroke-linecap="square" stroke-width="4"/><path d="M109.13,101.33a46.85,46.85,0,0,0-13.65,2.12,44.74,44.74,0,0,1-27.28,0,46.71,46.71,0,0,0-13.64-2.12,46.77,46.77,0,0,0-13.64,2.12,46.36,46.36,0,0,1-13.64,2.13,46.36,46.36,0,0,1-13.64-2.13A46.77,46.77,0,0,0,0,101.33" fill="none" stroke="#ccc" stroke-linecap="square" stroke-width="4"/><path d="M0,92.72a46.64,46.64,0,0,0-13.64,2.13A46.7,46.7,0,0,1-27.28,97a46.7,46.7,0,0,1-13.64-2.13,46.7,46.7,0,0,0-13.64-2.13A46.64,46.64,0,0,0-68.2,94.85,46.7,46.7,0,0,1-81.84,97a46.64,46.64,0,0,1-13.64-2.13,46.77,46.77,0,0,0-13.64-2.13" fill="none" stroke="#ccc" stroke-linecap="square" stroke-width="4"/><path d="M0,101.33a46.71,46.71,0,0,0-13.64,2.12,46.36,46.36,0,0,1-13.64,2.13,46.36,46.36,0,0,1-13.64-2.13,46.77,46.77,0,0,0-13.64-2.12,46.71,46.71,0,0,0-13.64,2.12,46.36,46.36,0,0,1-13.64,2.13,46.3,46.3,0,0,1-13.64-2.13,46.83,46.83,0,0,0-13.64-2.12" fill="none" stroke="#ccc" stroke-linecap="square" stroke-width="4"/></g></pattern><linearGradient id="linear-gradient-3" x1="568.45" y1="176.89" x2="564.33" y2="690.67" gradientUnits="userSpaceOnUse"><stop offset="0"/><stop offset="0.1" stop-color="#111"/><stop offset="0.29" stop-color="#3e3e3e"/><stop offset="0.56" stop-color="#878787"/><stop offset="0.89" stop-color="#e9e9e9"/></linearGradient><linearGradient id="linear-gradient-4" x1="391.15" y1="446.21" x2="431.68" y2="392.64" gradientUnits="userSpaceOnUse"><stop offset="0" stop-color="#666665"/><stop offset="0.02" stop-color="#6a6a69"/><stop offset="0.49" stop-color="#aeaeae"/><stop offset="0.83" stop-color="#d9d9d9"/><stop offset="1" stop-color="#e9e9e9"/></linearGradient><linearGradient id="linear-gradient-5" x1="463.34" y1="446.21" x2="503.86" y2="392.64" gradientTransform="matrix(-1, 0, 0, 1, 1206.47, 0)" xlink:href="#linear-gradient-4"/><radialGradient id="radial-gradient-2" cx="150.54" cy="3958.67" r="58.67" xlink:href="#radial-gradient"/><linearGradient id="linear-gradient-6" x1="0.12" y1="723.93" x2="0.88" y2="723.93" xlink:href="#linear-gradient"/><linearGradient id="linear-gradient-7" x1="512.75" y1="190.91" x2="934.98" y2="190.91" xlink:href="#linear-gradient-2"/><linearGradient id="linear-gradient-8" x1="724.89" y1="209.57" x2="721.49" y2="633.63" xlink:href="#linear-gradient-3"/><linearGradient id="linear-gradient-9" x1="578.55" y1="431.86" x2="612" y2="387.64" xlink:href="#linear-gradient-4"/><linearGradient id="linear-gradient-10" x1="337.4" y1="431.86" x2="370.85" y2="387.64" gradientTransform="matrix(-1, 0, 0, 1, 1206.47, 0)" xlink:href="#linear-gradient-4"/><linearGradient id="linear-gradient-11" x1="723.43" y1="218.82" x2="723.43" y2="192.71" gradientUnits="userSpaceOnUse"><stop offset="0" stop-color="#3c3c3b"/><stop offset="0.32" stop-color="#585858" stop-opacity="0.84"/><stop offset="0.77" stop-color="#a8a8a7" stop-opacity="0.39"/><stop offset="1" stop-color="#dcdcdc" stop-opacity="0.1"/></linearGradient><mask id="mask" x="516.34" y="28.7" width="414.99" height="524.4" maskUnits="userSpaceOnUse"><polygon id="paper-mask" points="723.68 467.26 915.43 332.2 931.33 28.7 516.34 28.7 531.91 331.93 723.68 467.26" fill="#fff"/></mask><pattern id="Unnamed_Pattern_2-9" data-name="Unnamed Pattern 2" width="109.12" height="103.21" patternTransform="matrix(1, 0, 0, -1, 3300.37, 17215.36)" patternUnits="userSpaceOnUse" viewBox="0 0 109.13 103.22"><rect width="109.13" height="103.21" fill="none"/><g clip-path="url(#clip-path)"><path d="M218.25,6.71a46.64,46.64,0,0,0-13.64,2.13A46.7,46.7,0,0,1,191,11a46.7,46.7,0,0,1-13.64-2.13,44.74,44.74,0,0,0-27.28,0A46.7,46.7,0,0,1,136.41,11a46.64,46.64,0,0,1-13.64-2.13,46.77,46.77,0,0,0-13.64-2.13" fill="none" stroke="#ccc" stroke-linecap="square" stroke-width="4"/><path d="M218.25-1.89A46.64,46.64,0,0,0,204.61.24,46.7,46.7,0,0,1,191,2.37,46.7,46.7,0,0,1,177.33.24a44.74,44.74,0,0,0-27.28,0,46.7,46.7,0,0,1-13.64,2.13A46.64,46.64,0,0,1,122.77.24a46.77,46.77,0,0,0-13.64-2.13" fill="none" stroke="#ccc" stroke-linecap="square" stroke-width="4"/><rect y="-12.9" width="109.13" height="25.8" fill="#e6e6e6"/><path d="M109.13,6.71A46.79,46.79,0,0,0,95.48,8.84,46.64,46.64,0,0,1,81.84,11,46.7,46.7,0,0,1,68.2,8.84,46.64,46.64,0,0,0,54.56,6.71,46.7,46.7,0,0,0,40.92,8.84,46.7,46.7,0,0,1,27.28,11,46.7,46.7,0,0,1,13.64,8.84,46.7,46.7,0,0,0,0,6.71" fill="none" stroke="#ccc" stroke-linecap="square" stroke-width="4"/><path d="M109.13-1.89A46.79,46.79,0,0,0,95.48.24,46.64,46.64,0,0,1,81.84,2.37,46.7,46.7,0,0,1,68.2.24,46.64,46.64,0,0,0,54.56-1.89,46.7,46.7,0,0,0,40.92.24,46.7,46.7,0,0,1,27.28,2.37,46.7,46.7,0,0,1,13.64.24,46.7,46.7,0,0,0,0-1.89" fill="none" stroke="#ccc" stroke-linecap="square" stroke-width="4"/><path d="M0,6.71A46.64,46.64,0,0,0-13.64,8.84,46.7,46.7,0,0,1-27.28,11,46.7,46.7,0,0,1-40.92,8.84,46.7,46.7,0,0,0-54.56,6.71,46.64,46.64,0,0,0-68.2,8.84,46.7,46.7,0,0,1-81.84,11,46.64,46.64,0,0,1-95.48,8.84a46.77,46.77,0,0,0-13.64-2.13" fill="none" stroke="#ccc" stroke-linecap="square" stroke-width="4"/><path d="M0-1.89A46.64,46.64,0,0,0-13.64.24,46.7,46.7,0,0,1-27.28,2.37,46.7,46.7,0,0,1-40.92.24,46.7,46.7,0,0,0-54.56-1.89,46.64,46.64,0,0,0-68.2.24,46.7,46.7,0,0,1-81.84,2.37,46.64,46.64,0,0,1-95.48.24a46.77,46.77,0,0,0-13.64-2.13" fill="none" stroke="#ccc" stroke-linecap="square" stroke-width="4"/><path d="M218.25,15.31a46.64,46.64,0,0,0-13.64,2.13A46.7,46.7,0,0,1,191,19.57a46.7,46.7,0,0,1-13.64-2.13,44.74,44.74,0,0,0-27.28,0,46.7,46.7,0,0,1-13.64,2.13,46.64,46.64,0,0,1-13.64-2.13,46.77,46.77,0,0,0-13.64-2.13" fill="none" stroke="#ccc" stroke-linecap="square" stroke-width="4"/><path d="M218.25,32.52a46.71,46.71,0,0,0-13.64,2.12A46.36,46.36,0,0,1,191,36.77a46.36,46.36,0,0,1-13.64-2.13,44.94,44.94,0,0,0-27.28,0,46.36,46.36,0,0,1-13.64,2.13,46.3,46.3,0,0,1-13.64-2.13,46.83,46.83,0,0,0-13.64-2.12" fill="none" stroke="#ccc" stroke-linecap="square" stroke-width="4"/><path d="M218.25,23.91A46.64,46.64,0,0,0,204.61,26,46.7,46.7,0,0,1,191,28.17,46.7,46.7,0,0,1,177.33,26a44.74,44.74,0,0,0-27.28,0,46.7,46.7,0,0,1-13.64,2.13A46.64,46.64,0,0,1,122.77,26a46.77,46.77,0,0,0-13.64-2.13" fill="none" stroke="#ccc" stroke-linecap="square" stroke-width="4"/><rect y="12.9" width="109.13" height="25.8" fill="#e6e6e6"/><path d="M109.13,15.31a46.79,46.79,0,0,0-13.65,2.13,46.64,46.64,0,0,1-13.64,2.13A46.7,46.7,0,0,1,68.2,17.44a46.64,46.64,0,0,0-13.64-2.13,46.7,46.7,0,0,0-13.64,2.13,46.7,46.7,0,0,1-13.64,2.13,46.7,46.7,0,0,1-13.64-2.13A46.7,46.7,0,0,0,0,15.31" fill="none" stroke="#ccc" stroke-linecap="square" stroke-width="4"/><path d="M109.13,32.52a46.85,46.85,0,0,0-13.65,2.12,46.3,46.3,0,0,1-13.64,2.13A46.36,46.36,0,0,1,68.2,34.64a46.71,46.71,0,0,0-13.64-2.12,46.77,46.77,0,0,0-13.64,2.12,46.36,46.36,0,0,1-13.64,2.13,46.36,46.36,0,0,1-13.64-2.13A46.77,46.77,0,0,0,0,32.52" fill="none" stroke="#ccc" stroke-linecap="square" stroke-width="4"/><path d="M109.13,23.91A46.79,46.79,0,0,0,95.48,26a46.64,46.64,0,0,1-13.64,2.13A46.7,46.7,0,0,1,68.2,26a46.64,46.64,0,0,0-13.64-2.13A46.7,46.7,0,0,0,40.92,26a46.7,46.7,0,0,1-13.64,2.13A46.7,46.7,0,0,1,13.64,26,46.7,46.7,0,0,0,0,23.91" fill="none" stroke="#ccc" stroke-linecap="square" stroke-width="4"/><path d="M0,15.31a46.64,46.64,0,0,0-13.64,2.13,46.7,46.7,0,0,1-13.64,2.13,46.7,46.7,0,0,1-13.64-2.13,46.7,46.7,0,0,0-13.64-2.13A46.64,46.64,0,0,0-68.2,17.44a46.7,46.7,0,0,1-13.64,2.13,46.64,46.64,0,0,1-13.64-2.13,46.77,46.77,0,0,0-13.64-2.13" fill="none" stroke="#ccc" stroke-linecap="square" stroke-width="4"/><path d="M0,32.52a46.71,46.71,0,0,0-13.64,2.12,46.36,46.36,0,0,1-13.64,2.13,46.36,46.36,0,0,1-13.64-2.13,46.77,46.77,0,0,0-13.64-2.12A46.71,46.71,0,0,0-68.2,34.64a46.36,46.36,0,0,1-13.64,2.13,46.3,46.3,0,0,1-13.64-2.13,46.83,46.83,0,0,0-13.64-2.12" fill="none" stroke="#ccc" stroke-linecap="square" stroke-width="4"/><path d="M0,23.91A46.64,46.64,0,0,0-13.64,26a46.7,46.7,0,0,1-13.64,2.13A46.7,46.7,0,0,1-40.92,26a46.7,46.7,0,0,0-13.64-2.13A46.64,46.64,0,0,0-68.2,26a46.7,46.7,0,0,1-13.64,2.13A46.64,46.64,0,0,1-95.48,26a46.77,46.77,0,0,0-13.64-2.13" fill="none" stroke="#ccc" stroke-linecap="square" stroke-width="4"/><path d="M218.25,41.12a46.71,46.71,0,0,0-13.64,2.12A46.36,46.36,0,0,1,191,45.37a46.36,46.36,0,0,1-13.64-2.13,44.94,44.94,0,0,0-27.28,0,46.36,46.36,0,0,1-13.64,2.13,46.3,46.3,0,0,1-13.64-2.13,46.83,46.83,0,0,0-13.64-2.12" fill="none" stroke="#ccc" stroke-linecap="square" stroke-width="4"/><path d="M218.25,58.32a46.3,46.3,0,0,0-13.64,2.13,44.74,44.74,0,0,1-27.28,0,44.74,44.74,0,0,0-27.28,0,44.74,44.74,0,0,1-27.28,0,46.43,46.43,0,0,0-13.64-2.13" fill="none" stroke="#ccc" stroke-linecap="square" stroke-width="4"/><path d="M218.25,49.72a46.3,46.3,0,0,0-13.64,2.13,44.94,44.94,0,0,1-27.28,0,44.74,44.74,0,0,0-27.28,0,44.94,44.94,0,0,1-27.28,0,46.43,46.43,0,0,0-13.64-2.13" fill="none" stroke="#ccc" stroke-linecap="square" stroke-width="4"/><rect y="38.71" width="109.13" height="25.8" fill="#e6e6e6"/><path d="M109.13,41.12a46.85,46.85,0,0,0-13.65,2.12,46.3,46.3,0,0,1-13.64,2.13A46.36,46.36,0,0,1,68.2,43.24a46.71,46.71,0,0,0-13.64-2.12,46.77,46.77,0,0,0-13.64,2.12,46.36,46.36,0,0,1-13.64,2.13,46.36,46.36,0,0,1-13.64-2.13A46.77,46.77,0,0,0,0,41.12" fill="none" stroke="#ccc" stroke-linecap="square" stroke-width="4"/><path d="M109.13,58.32a46.44,46.44,0,0,0-13.65,2.13,44.74,44.74,0,0,1-27.28,0,44.74,44.74,0,0,0-27.28,0,46.7,46.7,0,0,1-13.64,2.13,46.7,46.7,0,0,1-13.64-2.13A46.36,46.36,0,0,0,0,58.32" fill="none" stroke="#ccc" stroke-linecap="square" stroke-width="4"/><path d="M109.13,49.72a46.44,46.44,0,0,0-13.65,2.13,44.94,44.94,0,0,1-27.28,0,44.74,44.74,0,0,0-27.28,0A46.77,46.77,0,0,1,27.28,54a46.77,46.77,0,0,1-13.64-2.12A46.36,46.36,0,0,0,0,49.72" fill="none" stroke="#ccc" stroke-linecap="square" stroke-width="4"/><path d="M0,41.12a46.71,46.71,0,0,0-13.64,2.12,46.36,46.36,0,0,1-13.64,2.13,46.36,46.36,0,0,1-13.64-2.13,46.77,46.77,0,0,0-13.64-2.12A46.71,46.71,0,0,0-68.2,43.24a46.36,46.36,0,0,1-13.64,2.13,46.3,46.3,0,0,1-13.64-2.13,46.83,46.83,0,0,0-13.64-2.12" fill="none" stroke="#ccc" stroke-linecap="square" stroke-width="4"/><path d="M0,58.32a46.3,46.3,0,0,0-13.64,2.13,46.7,46.7,0,0,1-13.64,2.13,46.7,46.7,0,0,1-13.64-2.13,46.36,46.36,0,0,0-13.64-2.13A46.3,46.3,0,0,0-68.2,60.45a46.7,46.7,0,0,1-13.64,2.13,46.64,46.64,0,0,1-13.64-2.13,46.43,46.43,0,0,0-13.64-2.13" fill="none" stroke="#ccc" stroke-linecap="square" stroke-width="4"/><path d="M0,49.72a46.3,46.3,0,0,0-13.64,2.13A46.77,46.77,0,0,1-27.28,54a46.77,46.77,0,0,1-13.64-2.12,46.36,46.36,0,0,0-13.64-2.13A46.3,46.3,0,0,0-68.2,51.85,46.77,46.77,0,0,1-81.84,54a46.71,46.71,0,0,1-13.64-2.12,46.43,46.43,0,0,0-13.64-2.13" fill="none" stroke="#ccc" stroke-linecap="square" stroke-width="4"/><path d="M218.25,66.92a46.64,46.64,0,0,0-13.64,2.13,44.74,44.74,0,0,1-27.28,0,44.74,44.74,0,0,0-27.28,0,44.74,44.74,0,0,1-27.28,0,46.77,46.77,0,0,0-13.64-2.13" fill="none" stroke="#ccc" stroke-linecap="square" stroke-width="4"/><path d="M218.25,84.12a46.64,46.64,0,0,0-13.64,2.13,44.74,44.74,0,0,1-27.28,0,44.74,44.74,0,0,0-27.28,0,44.74,44.74,0,0,1-27.28,0,46.77,46.77,0,0,0-13.64-2.13" fill="none" stroke="#ccc" stroke-linecap="square" stroke-width="4"/><path d="M218.25,75.52a46.64,46.64,0,0,0-13.64,2.13,44.74,44.74,0,0,1-27.28,0,44.74,44.74,0,0,0-27.28,0,44.74,44.74,0,0,1-27.28,0,46.77,46.77,0,0,0-13.64-2.13" fill="none" stroke="#ccc" stroke-linecap="square" stroke-width="4"/><rect y="64.51" width="109.13" height="25.8" fill="#e6e6e6"/><path d="M109.13,66.92a46.79,46.79,0,0,0-13.65,2.13,44.74,44.74,0,0,1-27.28,0,46.64,46.64,0,0,0-13.64-2.13,46.7,46.7,0,0,0-13.64,2.13,46.7,46.7,0,0,1-13.64,2.13,46.7,46.7,0,0,1-13.64-2.13A46.7,46.7,0,0,0,0,66.92" fill="none" stroke="#ccc" stroke-linecap="square" stroke-width="4"/><path d="M109.13,84.12a46.79,46.79,0,0,0-13.65,2.13,44.74,44.74,0,0,1-27.28,0,46.64,46.64,0,0,0-13.64-2.13,46.7,46.7,0,0,0-13.64,2.13,46.7,46.7,0,0,1-13.64,2.13,46.7,46.7,0,0,1-13.64-2.13A46.7,46.7,0,0,0,0,84.12" fill="none" stroke="#ccc" stroke-linecap="square" stroke-width="4"/><path d="M109.13,75.52a46.79,46.79,0,0,0-13.65,2.13,44.74,44.74,0,0,1-27.28,0,46.64,46.64,0,0,0-13.64-2.13,46.7,46.7,0,0,0-13.64,2.13,46.7,46.7,0,0,1-13.64,2.13,46.7,46.7,0,0,1-13.64-2.13A46.7,46.7,0,0,0,0,75.52" fill="none" stroke="#ccc" stroke-linecap="square" stroke-width="4"/><path d="M0,66.92a46.64,46.64,0,0,0-13.64,2.13,46.7,46.7,0,0,1-13.64,2.13,46.7,46.7,0,0,1-13.64-2.13,46.7,46.7,0,0,0-13.64-2.13A46.64,46.64,0,0,0-68.2,69.05a46.7,46.7,0,0,1-13.64,2.13,46.64,46.64,0,0,1-13.64-2.13,46.77,46.77,0,0,0-13.64-2.13" fill="none" stroke="#ccc" stroke-linecap="square" stroke-width="4"/><path d="M0,84.12a46.64,46.64,0,0,0-13.64,2.13,46.7,46.7,0,0,1-13.64,2.13,46.7,46.7,0,0,1-13.64-2.13,46.7,46.7,0,0,0-13.64-2.13A46.64,46.64,0,0,0-68.2,86.25a46.7,46.7,0,0,1-13.64,2.13,46.64,46.64,0,0,1-13.64-2.13,46.77,46.77,0,0,0-13.64-2.13" fill="none" stroke="#ccc" stroke-linecap="square" stroke-width="4"/><path d="M0,75.52a46.64,46.64,0,0,0-13.64,2.13,46.7,46.7,0,0,1-13.64,2.13,46.7,46.7,0,0,1-13.64-2.13,46.7,46.7,0,0,0-13.64-2.13A46.64,46.64,0,0,0-68.2,77.65a46.7,46.7,0,0,1-13.64,2.13,46.64,46.64,0,0,1-13.64-2.13,46.77,46.77,0,0,0-13.64-2.13" fill="none" stroke="#ccc" stroke-linecap="square" stroke-width="4"/><path d="M218.25,92.72a46.64,46.64,0,0,0-13.64,2.13,44.74,44.74,0,0,1-27.28,0,44.74,44.74,0,0,0-27.28,0,44.74,44.74,0,0,1-27.28,0,46.77,46.77,0,0,0-13.64-2.13" fill="none" stroke="#ccc" stroke-linecap="square" stroke-width="4"/><path d="M218.25,101.33a46.71,46.71,0,0,0-13.64,2.12,44.74,44.74,0,0,1-27.28,0,44.94,44.94,0,0,0-27.28,0,44.74,44.74,0,0,1-27.28,0,46.83,46.83,0,0,0-13.64-2.12" fill="none" stroke="#ccc" stroke-linecap="square" stroke-width="4"/><rect y="90.31" width="109.13" height="25.8" fill="#e6e6e6"/><path d="M109.13,92.72a46.79,46.79,0,0,0-13.65,2.13,44.74,44.74,0,0,1-27.28,0,46.64,46.64,0,0,0-13.64-2.13,46.7,46.7,0,0,0-13.64,2.13A46.7,46.7,0,0,1,27.28,97a46.7,46.7,0,0,1-13.64-2.13A46.7,46.7,0,0,0,0,92.72" fill="none" stroke="#ccc" stroke-linecap="square" stroke-width="4"/><path d="M109.13,101.33a46.85,46.85,0,0,0-13.65,2.12,44.74,44.74,0,0,1-27.28,0,46.71,46.71,0,0,0-13.64-2.12,46.77,46.77,0,0,0-13.64,2.12,46.36,46.36,0,0,1-13.64,2.13,46.36,46.36,0,0,1-13.64-2.13A46.77,46.77,0,0,0,0,101.33" fill="none" stroke="#ccc" stroke-linecap="square" stroke-width="4"/><path d="M0,92.72a46.64,46.64,0,0,0-13.64,2.13A46.7,46.7,0,0,1-27.28,97a46.7,46.7,0,0,1-13.64-2.13,46.7,46.7,0,0,0-13.64-2.13A46.64,46.64,0,0,0-68.2,94.85,46.7,46.7,0,0,1-81.84,97a46.64,46.64,0,0,1-13.64-2.13,46.77,46.77,0,0,0-13.64-2.13" fill="none" stroke="#ccc" stroke-linecap="square" stroke-width="4"/><path d="M0,101.33a46.71,46.71,0,0,0-13.64,2.12,46.36,46.36,0,0,1-13.64,2.13,46.36,46.36,0,0,1-13.64-2.13,46.77,46.77,0,0,0-13.64-2.12,46.71,46.71,0,0,0-13.64,2.12,46.36,46.36,0,0,1-13.64,2.13,46.3,46.3,0,0,1-13.64-2.13,46.83,46.83,0,0,0-13.64-2.12" fill="none" stroke="#ccc" stroke-linecap="square" stroke-width="4"/></g></pattern></defs><title>envelope</title><g style="isolation:isolate"><g id="Layer_2" data-name="Layer 2"><g id="animation"><g id="envelope-half"><path id="_7" data-name="7" d="M1110.79,646.36c0,21.81-242.2,39.48-541,39.48s-541-17.67-541-39.48,242.2-39.49,541-39.49S1110.79,624.55,1110.79,646.36Z" opacity="0.43" fill="url(#radial-gradient)" style="mix-blend-mode:multiply"/><rect id="_6" data-name="6" x="311.42" y="266.35" width="511.56" height="375.17" fill="url(#linear-gradient)"/><g id="_5" data-name="5"><polygon id="accent-left" points="518.82 464.35 522.56 466.92 311.33 608.24 311.33 604.33 518.82 464.35" fill="#f2f2f2"/><polygon id="accent-right" points="617.3 463.1 613.99 465.37 822.85 612.15 822.85 607.32 617.3 463.1" fill="#f2f2f2"/></g><polygon id="_4" data-name="4" points="566.47 42.74 329.2 205.57 311.42 260.42 311.42 266.35 822.98 266.35 822.98 260.42 805.16 205.57 567.94 42.74 567.18 42.24 566.47 42.74" fill="url(#linear-gradient-2)"/><g id="_3" data-name="3" opacity="0.6"><polygon points="797.18 326.9 797.18 266.36 337.8 266.36 337.87 327.44 567.14 485.53 797.18 326.9" fill="url(#Unnamed_Pattern_2)"/><polygon points="797.18 326.9 797.18 266.36 337.8 266.36 337.87 327.44 567.14 485.53 797.18 326.9" opacity="0.2" fill="url(#linear-gradient-3)"/></g><g id="_2" data-name="2"><polygon points="311.42 279.54 329.2 334.43 567.14 497.47 567.14 497.47 567.14 485.53 334.67 325.19 311.42 267.69 311.42 279.54" fill="url(#linear-gradient-4)"/><polygon points="822.86 279.54 805.08 334.43 567.14 497.47 567.14 497.47 567.14 485.53 799.61 325.19 822.86 267.69 822.86 279.54" fill="url(#linear-gradient-5)"/></g><polygon id="_1" data-name="1" points="797.21 260.98 781.4 211.43 568.25 63.45 567.57 62.99 567.49 63.05 567.41 62.99 566.73 63.45 353.58 211.43 337.77 260.98 337.8 266.33 567.49 266.33 797.18 266.33 797.21 260.98" fill="url(#Unnamed_Pattern_2)"/></g><path id="bottom-shadow" d="M1172.54,597.06c0,18-199.92,32.59-446.52,32.59s-446.51-14.59-446.51-32.59S479.42,564.47,726,564.47,1172.54,579.06,1172.54,597.06Z" opacity="0.43" fill="url(#radial-gradient-2)" style="mix-blend-mode:multiply"/><rect id="body" x="512.75" y="283.4" width="422.24" height="309.66" fill="url(#linear-gradient-6)"/><g id="accents"><polygon id="accent-left-2" data-name="accent-left" points="683.93 446.84 687.02 448.95 512.66 565.6 512.66 562.38 683.93 446.84" fill="#f2f2f2"/><polygon id="accent-right-2" data-name="accent-right" points="765.22 445.8 762.48 447.67 934.88 568.83 934.88 564.84 765.22 445.8" fill="#f2f2f2"/></g><polygon id="opened-top" points="723.26 98.84 527.42 233.24 512.75 278.51 512.75 283.4 934.98 283.4 934.98 278.51 920.27 233.24 724.47 98.84 723.85 98.43 723.26 98.84" fill="url(#linear-gradient-7)"/><g id="pattern-bottom" opacity="0.6"><polygon points="913.69 333.39 913.69 283.41 534.51 283.41 534.58 333.83 723.81 464.32 913.69 333.39" fill="url(#Unnamed_Pattern_2)"/><polygon points="913.69 333.39 913.69 283.41 534.51 283.41 534.58 333.83 723.81 464.32 913.69 333.39" opacity="0.2" fill="url(#linear-gradient-8)"/></g><g id="shadows-inner"><polygon points="512.75 294.29 527.42 339.6 723.81 474.17 723.81 474.17 723.81 464.32 531.93 331.97 512.75 284.51 512.75 294.29" fill="url(#linear-gradient-9)"/><polygon points="934.88 294.29 920.2 339.6 723.81 474.17 723.81 474.17 723.81 464.32 915.69 331.97 934.88 284.51 934.88 294.29" fill="url(#linear-gradient-10)"/></g><polygon id="closed" points="723.26 467.94 527.42 333.54 512.75 288.27 512.75 283.38 934.98 283.38 934.98 288.27 920.27 333.54 724.47 467.94 723.85 468.35 723.26 467.94" fill="#fff"/><polygon id="pattern-top" points="913.71 278.98 900.66 238.08 724.73 115.93 724.17 115.56 724.1 115.6 724.03 115.56 723.47 115.93 547.54 238.08 534.49 278.98 534.51 283.39 724.1 283.39 913.69 283.39 913.71 278.98" fill="url(#Unnamed_Pattern_2)"/><polygon id="shadow-paper" points="603.88 180.82 569.92 204.12 876.93 204.12 842.97 180.82 603.88 180.82" fill="url(#linear-gradient-11)"/><g mask="url(#mask)"><polygon id="paper" points="532.07 549.48 532.07 290.13 915.29 290.13 915.29 550.32 532.07 549.48" fill="#f2f2f2" stroke="#fff" stroke-miterlimit="10" stroke-width="5.54"/></g><g id="button"><path d="M754.55,456.74a29,29,0,1,1-29-29,29,29,0,0,1,29,29" fill="url(#Unnamed_Pattern_2-9)"/><circle cx="725.54" cy="456.74" r="29.01" fill="none" stroke="#fff" stroke-miterlimit="10" stroke-width="0.3"/><path d="M721.74,444.6a8.33,8.33,0,0,1,8.46.76,5.18,5.18,0,0,1,.85,7.59c-.53.65-.7.69-1.45.26-.51-.3-1-.65-1.47-1-.32-.23-.33-.49-.15-.84a5.28,5.28,0,0,0,.52-1.82c0-1.68-1.48-2.79-3.38-2.65a3.06,3.06,0,0,0-2.9,2,2.8,2.8,0,0,0,.94,3.38,24.73,24.73,0,0,0,2.86,1.88c1.67,1,3.42,1.9,5.05,3a6.29,6.29,0,0,1,2.87,4,6.72,6.72,0,0,1-3.38,7.17,11,11,0,0,1-5.76,1.39,10.55,10.55,0,0,1-5.67-1.58,6.59,6.59,0,0,1-1.85-1.87,5,5,0,0,0,.63-.38,5.36,5.36,0,0,0,1-.8,6,6,0,0,1-1.11.26,5.44,5.44,0,0,1-1,.09,6.83,6.83,0,0,1-2.61-.48.7.7,0,0,1-.39-1c.31-.6.61-1.21.92-1.82.21-.43.53-.48,1-.3a3,3,0,0,0,3.52-1c.3-.42.58-.52,1-.28l1.81,1a.72.72,0,0,1,.42.48.71.71,0,0,1-.14.61,6.9,6.9,0,0,1-1.83,1.74,4.09,4.09,0,0,0,2.05,1.75,6.41,6.41,0,0,0,4.68.15,3.78,3.78,0,0,0,1.31-6.59,27.66,27.66,0,0,0-3.27-2.06c-1.43-.84-2.94-1.55-4.33-2.46a5.79,5.79,0,0,1-2.84-4.34,5.73,5.73,0,0,1,3.59-6.16" fill="#4d4d4d"/></g><path id="arrow" d="M720.92,406.87l2.42,3.72L725.7,407c.71-1.1,1.78-2.92,2.37-4.06l.91-1.76-.32-.11-1.35,1.7c-.83,1.06-2.1,2.81-2.81,3.91l-.94,1.44.18-2.27c.14-1.74.25-4.57.25-6.31v-8.7c0-1.74-.11-4.57-.25-6.31l-.22-2.78h-.37l-.22,2.78c-.13,1.74-.24,4.57-.24,6.31v8.7c0,1.74.11,4.57.24,6.31l.18,2.27-1-1.53c-.72-1.1-2-2.85-2.82-3.91L718,401l-.33.11.86,1.67c.59,1.14,1.65,3,2.37,4.06" fill="#4d4d4d"/><g id="text"><path d="M677.18,364.8a3,3,0,0,1-1-1.31,4.5,4.5,0,0,1-.34-1.74,8.44,8.44,0,0,1,.92-3.72,9.27,9.27,0,0,1,2.33-3.09,4.41,4.41,0,0,1,2.86-1.21,1.65,1.65,0,0,1,1.08.32,1.18,1.18,0,0,1,.41,1,4,4,0,0,1-.27,1.32,4.49,4.49,0,0,1-.67,1.27,1.1,1.1,0,0,1-.83.52.69.69,0,0,1-.59-.44,9.43,9.43,0,0,0,1.06-1.44,2.78,2.78,0,0,0,.51-1.35c0-.37-.22-.56-.65-.56a3.1,3.1,0,0,0-2.13,1.22,10.16,10.16,0,0,0-1.88,3,8.58,8.58,0,0,0-.75,3.3,3.48,3.48,0,0,0,.51,1.94,1.75,1.75,0,0,0,1.57.79,3.18,3.18,0,0,0,1.52-.42,5.4,5.4,0,0,0,1.42-1.13,6.32,6.32,0,0,0,1-1.52l.37.24a8.08,8.08,0,0,1-2,2.54,4.18,4.18,0,0,1-2.67,1,3,3,0,0,1-1.75-.5" fill="#666"/><path d="M683.23,364.07a1.94,1.94,0,0,1-.29-1.11,10,10,0,0,1,.9-3.53,24.39,24.39,0,0,1,2-4c.75-1.17,1.3-1.76,1.66-1.76.16,0,.3.13.41.39a1.94,1.94,0,0,1,.19.76,5.63,5.63,0,0,1-.53,1.93,14.51,14.51,0,0,1-1.43,2.58,9.45,9.45,0,0,1-1.92,2.11,9.21,9.21,0,0,0-.16,1.35,1.34,1.34,0,0,0,.17.75.52.52,0,0,0,.45.24,1.51,1.51,0,0,0,1.07-.67,6.81,6.81,0,0,0,1-1.61l.35.19a7,7,0,0,1-1.4,2,2.27,2.27,0,0,1-1.57.72,1,1,0,0,1-.92-.41m2.72-5.43a15.4,15.4,0,0,0,1.09-2.13,4.54,4.54,0,0,0,.41-1.49c-.13,0-.38.29-.76.88a22.35,22.35,0,0,0-1.19,2.17,21,21,0,0,0-1,2.52,11.8,11.8,0,0,0,1.46-1.95" fill="#666"/><path d="M686.64,364.12a1.3,1.3,0,0,1-.33-.92,5.18,5.18,0,0,1,.33-1.55,6.75,6.75,0,0,1,.81-1.73c.33-.5.67-.75,1-.75a.45.45,0,0,1,.31.11.39.39,0,0,1,.12.31,1,1,0,0,1-.11.35c-.08.15-.2.36-.38.64a14.31,14.31,0,0,0-.72,1.34,2.61,2.61,0,0,0-.27,1.1.88.88,0,0,0,.16.6.66.66,0,0,0,.49.16c.76,0,1.51-.73,2.25-2.2l.22.23a5.26,5.26,0,0,1-1.28,2,2.41,2.41,0,0,1-1.66.7,1.21,1.21,0,0,1-.94-.36m2.12-6.26a.46.46,0,0,1-.21-.41.69.69,0,0,1,.37-.58,1.33,1.33,0,0,1,.78-.26c.41,0,.62.18.62.54a.78.78,0,0,1-.33.58,1.12,1.12,0,0,1-.72.28.85.85,0,0,1-.51-.15" fill="#666"/><path d="M690.31,364.37a2,2,0,0,1-.47-1.41,3.77,3.77,0,0,1,.47-1.79,4.24,4.24,0,0,1,1.21-1.43,2.56,2.56,0,0,1,1.51-.54,1.13,1.13,0,0,1,.86.29,1,1,0,0,1,.28.71,1.57,1.57,0,0,1-.21.8.61.61,0,0,1-.51.37.52.52,0,0,1-.45-.28,1,1,0,0,0,.32-.4,1.54,1.54,0,0,0,.14-.67c0-.17-.09-.25-.27-.25a1.48,1.48,0,0,0-1,.55,4.71,4.71,0,0,0-.89,1.32,3.41,3.41,0,0,0-.36,1.41,1.25,1.25,0,0,0,.23.76.91.91,0,0,0,.79.31,2.45,2.45,0,0,0,1.14-.31,3.86,3.86,0,0,0,1.11-.9,4.35,4.35,0,0,0,.82-1.34l.29.26a5.29,5.29,0,0,1-1,1.55,4.6,4.6,0,0,1-1.35,1.08,3.19,3.19,0,0,1-1.47.4,1.63,1.63,0,0,1-1.24-.49" fill="#666"/><path d="M698.31,364.14a3.09,3.09,0,0,1-.57-1.08,4.23,4.23,0,0,1-.19-1.13c1.24-.28,1.86-.71,1.86-1.28a.57.57,0,0,0-.17-.42.67.67,0,0,0-.47-.16,1.89,1.89,0,0,0-1.54,1.12,15.79,15.79,0,0,0-1.21,2.57,2.06,2.06,0,0,1-.3.59.57.57,0,0,1-.42.15.5.5,0,0,1-.39-.2,1.55,1.55,0,0,1-.17-.88,11.48,11.48,0,0,1,.85-3.93,20.77,20.77,0,0,1,1.94-4c.72-1.14,1.28-1.71,1.66-1.71a.48.48,0,0,1,.41.3,1.54,1.54,0,0,1,.16.75,3.56,3.56,0,0,1-.38,1.48,6.35,6.35,0,0,1-1.06,1.62,6.21,6.21,0,0,1-1.53,1.28,11.88,11.88,0,0,0-.6,1.8,10.57,10.57,0,0,0-.29,1.66c1-2.38,2.1-3.56,3.19-3.56a1.41,1.41,0,0,1,1,.41,1.33,1.33,0,0,1,.43,1,1.3,1.3,0,0,1-.36.92,2.36,2.36,0,0,1-.85.57,2.67,2.67,0,0,1-.86.21,5.18,5.18,0,0,0,.39,1.17.8.8,0,0,0,.74.51,1.54,1.54,0,0,0,1.09-.68,7.28,7.28,0,0,0,1.05-1.73l.2.24a5.84,5.84,0,0,1-1.15,2,2.08,2.08,0,0,1-1.52.85,1.2,1.2,0,0,1-1-.46m.18-7.37a3.07,3.07,0,0,0,.6-1.62,3.11,3.11,0,0,0-.79,1,17.51,17.51,0,0,0-1.09,2.09,7.42,7.42,0,0,0,1.28-1.48" fill="#666"/><path d="M705.29,364.14a4.25,4.25,0,0,1-.14-1.17,11,11,0,0,1,.81-3.51,22.52,22.52,0,0,1,1.86-3.94c.7-1.14,1.27-1.72,1.71-1.72a.51.51,0,0,1,.45.32,1.47,1.47,0,0,1,.16.7,4.8,4.8,0,0,1-.48,1.77,10.64,10.64,0,0,1-1.26,2.13,5.76,5.76,0,0,1-1.61,1.51,6.84,6.84,0,0,0-.49,2.44v.3a2.06,2.06,0,0,0,.13-.31,12.34,12.34,0,0,1,.6-1.35,4.34,4.34,0,0,1,.87-1.13,1.81,1.81,0,0,1,1.29-.52,1.1,1.1,0,0,1,1,.42,1.69,1.69,0,0,1,.3,1,2.06,2.06,0,0,1-.09.62c0,.19-.14.43-.25.73,0,0-.06.13-.11.26s-.09.27-.12.38a1.68,1.68,0,0,0,0,.29c0,.31.13.46.38.46a1.32,1.32,0,0,0,.75-.31,4.55,4.55,0,0,0,.85-.85,6.52,6.52,0,0,0,.72-1.15l.23.24a6.15,6.15,0,0,1-1.29,1.91,2.29,2.29,0,0,1-1.61.74,1.19,1.19,0,0,1-.83-.28,1,1,0,0,1-.29-.73,4.35,4.35,0,0,1,.2-1,4.11,4.11,0,0,0,.21-1.05q0-.6-.51-.6a1,1,0,0,0-.87.53,10.46,10.46,0,0,0-.8,1.59,9.52,9.52,0,0,1-.63,1.33.77.77,0,0,1-.63.44c-.2,0-.35-.16-.45-.46m2.93-6.2a12.28,12.28,0,0,0,.89-1.65,3.44,3.44,0,0,0,.35-1.14,2.25,2.25,0,0,0-.62.7,12.51,12.51,0,0,0-.94,1.56,14.84,14.84,0,0,0-.81,1.9,6.71,6.71,0,0,0,1.13-1.37" fill="#666"/><path d="M712.43,364.2a1.67,1.67,0,0,1-.51-1.25,3.7,3.7,0,0,1,.56-1.81,5.6,5.6,0,0,1,1.44-1.62,2.91,2.91,0,0,1,1.72-.65,1.21,1.21,0,0,1,.75.22.87.87,0,0,1,.3.74,2,2,0,0,1-.53,1.3,4,4,0,0,1-1.37,1,5.62,5.62,0,0,1-1.72.49,1.55,1.55,0,0,0,0,.33,1.52,1.52,0,0,0,.21.74,1,1,0,0,0,.9.38,3,3,0,0,0,1.79-.71,5.55,5.55,0,0,0,1.47-1.78l.29.23a5.17,5.17,0,0,1-1.65,2.08,3.66,3.66,0,0,1-2.22.79,1.93,1.93,0,0,1-1.4-.48m2-2.53a4.25,4.25,0,0,0,1.08-.88,1.62,1.62,0,0,0,.45-1,.3.3,0,0,0-.06-.22.31.31,0,0,0-.19-.05,1.51,1.51,0,0,0-.91.39,4.66,4.66,0,0,0-.91,1,4.58,4.58,0,0,0-.62,1.2,3,3,0,0,0,1.16-.41" fill="#666"/><path d="M718.86,364.14a.92.92,0,0,1-.33-.75,1.65,1.65,0,0,1,.11-.59A7.72,7.72,0,0,1,719,362c.12-.27.22-.49.29-.68a1.7,1.7,0,0,0,.1-.49c0-.37-.24-.67-.72-.92-.19.48-.42,1-.67,1.45s-.48.9-.68,1.23l-.22-.42a17.16,17.16,0,0,0,1.17-2.59.53.53,0,0,1-.15-.39,1.22,1.22,0,0,1,.23-.7c.16-.22.3-.33.45-.33a.28.28,0,0,1,.24.17.64.64,0,0,1,.09.28.9.9,0,0,1-.07.26l-.09.28a.34.34,0,0,0,.12.19,3,3,0,0,0,.37.27,4.6,4.6,0,0,1,.78.63,1.18,1.18,0,0,1,.28.83,1.74,1.74,0,0,1-.11.63,6.72,6.72,0,0,1-.32.76,2.5,2.5,0,0,0-.32.91q0,.33.36.33a1.72,1.72,0,0,0,.94-.35,4.93,4.93,0,0,0,.94-.84,4.24,4.24,0,0,0,.62-.92l.35.25a4.81,4.81,0,0,1-.81,1.24,4.74,4.74,0,0,1-1.15,1,2.49,2.49,0,0,1-1.26.37,1.27,1.27,0,0,1-.86-.28" fill="#666"/><path d="M722.53,364.2A1.7,1.7,0,0,1,722,363a3.7,3.7,0,0,1,.56-1.81,5.32,5.32,0,0,1,1.44-1.62,2.89,2.89,0,0,1,1.72-.65,1.23,1.23,0,0,1,.75.22.87.87,0,0,1,.3.74,2,2,0,0,1-.53,1.3,4.05,4.05,0,0,1-1.37,1,5.7,5.7,0,0,1-1.72.49,1.55,1.55,0,0,0,0,.33,1.52,1.52,0,0,0,.21.74,1,1,0,0,0,.9.38,2.92,2.92,0,0,0,1.78-.71,5.58,5.58,0,0,0,1.48-1.78l.28.23a5.07,5.07,0,0,1-1.64,2.08,3.66,3.66,0,0,1-2.22.79,2,2,0,0,1-1.41-.48m2-2.53a4.13,4.13,0,0,0,1.09-.88,1.65,1.65,0,0,0,.44-1,.3.3,0,0,0-.06-.22.28.28,0,0,0-.18-.05,1.51,1.51,0,0,0-.91.39,4.7,4.7,0,0,0-.92,1,4.86,4.86,0,0,0-.61,1.2,2.92,2.92,0,0,0,1.15-.41" fill="#666"/><path d="M731.18,364.33a1.54,1.54,0,0,1-.38-1.13,5.8,5.8,0,0,1,.22-1.42,16.66,16.66,0,0,1,.57-1.85,2.76,2.76,0,0,1-.5-.13v-.44l.69.07a17.27,17.27,0,0,1,1.38-2.79c.5-.77.9-1.16,1.2-1.16a.38.38,0,0,1,.28.12.38.38,0,0,1,.13.3,1.37,1.37,0,0,1-.21.61c-.13.26-.35.66-.66,1.18-.42.71-.75,1.3-1,1.78a26.11,26.11,0,0,0,2.63-.1v.47a28,28,0,0,1-2.89.18,7.94,7.94,0,0,0-.74,2.88,1.47,1.47,0,0,0,.18.84.72.72,0,0,0,.59.24,2.29,2.29,0,0,0,1.47-.65,5.55,5.55,0,0,0,1.32-1.78l.2.15a6.26,6.26,0,0,1-1.52,2.17,2.88,2.88,0,0,1-1.94.84,1.37,1.37,0,0,1-1-.38" fill="#666"/><path d="M735.13,364.12a1.64,1.64,0,0,1-.26-1,3.39,3.39,0,0,1,.25-1.25,3.07,3.07,0,0,1,.65-1.07,1.15,1.15,0,0,1,.82-.44,1.17,1.17,0,0,1,.44.12,2,2,0,0,1,.47-1.09,1.34,1.34,0,0,1,1.07-.43,1.09,1.09,0,0,1,.85.32,1.28,1.28,0,0,1,.27.84,3,3,0,0,1-.27,1.15,7.3,7.3,0,0,1-.68,1.29.87.87,0,0,0,.4.09,1.69,1.69,0,0,0,.86-.27,1.71,1.71,0,0,0,.71-.81l.26.19a2.43,2.43,0,0,1-.81,1.05,1.89,1.89,0,0,1-1.06.35,2.46,2.46,0,0,1-.72-.12,5.08,5.08,0,0,1-1.16,1,2.26,2.26,0,0,1-1.23.4,1,1,0,0,1-.86-.39m2-.63a4.63,4.63,0,0,0,.75-.73,2.77,2.77,0,0,1-.86-2.11,1.33,1.33,0,0,0-.42.53,5.54,5.54,0,0,0-.41,1,3.08,3.08,0,0,0-.18.95c0,.44.17.66.49.66a1.15,1.15,0,0,0,.63-.29m1.72-2.3a2.68,2.68,0,0,0,.24-1c0-.42-.14-.63-.41-.63a.55.55,0,0,0-.38.19,1.25,1.25,0,0,0-.33.49,1.68,1.68,0,0,0-.13.68,3.31,3.31,0,0,0,.11.76,1.88,1.88,0,0,0,.3.65,6,6,0,0,0,.6-1.11" fill="#666"/><path d="M744.2,364.12a1.72,1.72,0,0,1-.26-1,3.64,3.64,0,0,1,.9-2.32,1.15,1.15,0,0,1,.82-.44,1.21,1.21,0,0,1,.45.12,2,2,0,0,1,.46-1.09,1.35,1.35,0,0,1,1.07-.43,1.07,1.07,0,0,1,.85.32,1.28,1.28,0,0,1,.27.84,3.18,3.18,0,0,1-.26,1.15,8.1,8.1,0,0,1-.69,1.29.88.88,0,0,0,.41.09,1.8,1.8,0,0,0,1.56-1.08l.26.19a2.43,2.43,0,0,1-.81,1.05,1.86,1.86,0,0,1-1.06.35,2.35,2.35,0,0,1-.71-.12,5.35,5.35,0,0,1-1.17,1,2.26,2.26,0,0,1-1.23.4,1,1,0,0,1-.86-.39m2-.63a4.6,4.6,0,0,0,.74-.73,2.8,2.8,0,0,1-.86-2.11,1.33,1.33,0,0,0-.41.53,4.91,4.91,0,0,0-.42,1,3,3,0,0,0-.17.95c0,.44.16.66.49.66a1.15,1.15,0,0,0,.63-.29m1.71-2.3a2.68,2.68,0,0,0,.24-1c0-.42-.14-.63-.4-.63a.55.55,0,0,0-.39.19,1.5,1.5,0,0,0-.33.49,1.68,1.68,0,0,0-.13.68,2.89,2.89,0,0,0,.12.76,1.57,1.57,0,0,0,.3.65,5.91,5.91,0,0,0,.59-1.11" fill="#666"/><path d="M748.28,367.94c-.13-.08-.2-.16-.21-.23q.63-1.83.93-2.88a19.45,19.45,0,0,0,.49-2.21c.13-.78.3-2,.51-3.59a.53.53,0,0,1,.08-.27s.12-.06.26-.06a.82.82,0,0,1,.63.22.73.73,0,0,1,.22.54,9.09,9.09,0,0,1-.2,1.35,4.77,4.77,0,0,1,1-1.17,2.07,2.07,0,0,1,1.29-.47,1.54,1.54,0,0,1,1.16.48,1.71,1.71,0,0,1,.46,1.24,3.49,3.49,0,0,1-.45,1.62,4.1,4.1,0,0,1-1.26,1.43,3,3,0,0,1-1.78.57,2,2,0,0,1-.72-.11c-.19-.08-.28-.17-.28-.26s.11-.15.34-.15a2.85,2.85,0,0,0,1.55-.46,3.33,3.33,0,0,0,1.08-1.13,2.64,2.64,0,0,0,.39-1.33,1.34,1.34,0,0,0-.21-.77.67.67,0,0,0-.6-.3,1.49,1.49,0,0,0-.92.37,4.14,4.14,0,0,0-.84.88,6.62,6.62,0,0,0-.58,1c-.16.57-.37,1.38-.63,2.44a26.45,26.45,0,0,1-.71,2.6c-.2.55-.42.82-.68.82a.64.64,0,0,1-.37-.13" fill="#666"/><path d="M755.64,364.2a1.67,1.67,0,0,1-.5-1.25,3.6,3.6,0,0,1,.56-1.81,5.43,5.43,0,0,1,1.43-1.62,2.94,2.94,0,0,1,1.72-.65,1.21,1.21,0,0,1,.75.22.87.87,0,0,1,.3.74,1.93,1.93,0,0,1-.53,1.3,4,4,0,0,1-1.37,1,5.62,5.62,0,0,1-1.72.49,2.92,2.92,0,0,0,0,.33,1.61,1.61,0,0,0,.2.74,1,1,0,0,0,.9.38,2.94,2.94,0,0,0,1.79-.71,5.42,5.42,0,0,0,1.47-1.78l.29.23a5.09,5.09,0,0,1-1.65,2.08,3.65,3.65,0,0,1-2.21.79,1.94,1.94,0,0,1-1.41-.48m2-2.53a4.08,4.08,0,0,0,1.08-.88,1.62,1.62,0,0,0,.45-1,.3.3,0,0,0-.06-.22.31.31,0,0,0-.19-.05,1.54,1.54,0,0,0-.91.39,4.66,4.66,0,0,0-.91,1,4.91,4.91,0,0,0-.62,1.2,3,3,0,0,0,1.16-.41" fill="#666"/><path d="M764.27,364.07a1,1,0,0,1-.3-.72,1.77,1.77,0,0,1,.06-.43c0-.17.09-.33.14-.49a4,4,0,0,0,.2-1,.54.54,0,0,0-.15-.42.49.49,0,0,0-.36-.14,2.11,2.11,0,0,0-1.53,1,21.54,21.54,0,0,0-1.67,2.42,1.09,1.09,0,0,1-.93-.42l.13-.36a9.24,9.24,0,0,0,.85-3,.88.88,0,0,1,.33-.24.93.93,0,0,1,.41-.11.54.54,0,0,1,.38.12.41.41,0,0,1,.13.31,5.81,5.81,0,0,1-.25,1.28,7.92,7.92,0,0,1,1.34-1.41,2.26,2.26,0,0,1,1.37-.54,1.07,1.07,0,0,1,.89.39,1.43,1.43,0,0,1,.32.94,2.43,2.43,0,0,1-.08.61,4,4,0,0,1-.24.64,2.83,2.83,0,0,0-.24.91.4.4,0,0,0,.1.31.33.33,0,0,0,.25.1,1.46,1.46,0,0,0,1-.65,7.72,7.72,0,0,0,1-1.54l.24.2a6.73,6.73,0,0,1-1.14,1.88,1.87,1.87,0,0,1-1.43.69,1.21,1.21,0,0,1-.84-.27" fill="#666"/><path d="M767.23,364.07a.41.41,0,0,1-.16-.36.56.56,0,0,1,.29-.47A1.09,1.09,0,0,1,768,363c.32,0,.49.15.49.45a.67.67,0,0,1-.27.49.89.89,0,0,1-.58.23.69.69,0,0,1-.41-.13m.71-1.57a3.65,3.65,0,0,1,.22-1.13c.14-.45.33-1,.56-1.58q1.11-2.9,1.89-4.48c.51-1.06,1-1.6,1.35-1.6a.39.39,0,0,1,.28.13.45.45,0,0,1,.12.31,8.46,8.46,0,0,1-.81,2.1c-.55,1.15-1.17,2.37-1.86,3.65a30.34,30.34,0,0,1-1.58,2.66Z" fill="#666"/></g><rect width="1440" height="724" fill="none"/></g></g></g></svg>