<svg xmlns="http://www.w3.org/2000/svg" xmlns:xlink="http://www.w3.org/1999/xlink" viewBox="0 0 700 849.86"><defs><clipPath id="clip-path"><rect width="109.13" height="103.21" fill="none"/></clipPath><radialGradient id="radial-gradient" cx="-223.28" cy="4384.18" r="43.55" gradientTransform="translate(2051.61 -1609.7) scale(7.61 0.56)" gradientUnits="userSpaceOnUse"><stop offset="0" stop-color="#131517"/><stop offset="0.07" stop-color="#2e3031"/><stop offset="0.21" stop-color="#737374"/><stop offset="0.23" stop-color="#7d7d7d"/><stop offset="0.26" stop-color="#8a8a8a" stop-opacity="0.9"/><stop offset="0.35" stop-color="#aeaeae" stop-opacity="0.62"/><stop offset="0.45" stop-color="#ccc" stop-opacity="0.4"/><stop offset="0.56" stop-color="#e2e2e2" stop-opacity="0.22"/><stop offset="0.68" stop-color="#f3f3f3" stop-opacity="0.1"/><stop offset="0.81" stop-color="#fcfcfc" stop-opacity="0.02"/><stop offset="1" stop-color="#fff" stop-opacity="0"/></radialGradient><linearGradient id="linear-gradient" x1="-373.95" y1="706.74" x2="-372.69" y2="706.74" gradientTransform="translate(208148.89 -392826.91) scale(556.63)" gradientUnits="userSpaceOnUse"><stop offset="0" stop-color="#fafafa"/><stop offset="0.23" stop-color="#f6f6f6"/><stop offset="0.46" stop-color="#eaeaea"/><stop offset="0.5" stop-color="#e7e7e7"/><stop offset="0.55" stop-color="#ebebeb"/><stop offset="0.75" stop-color="#f5f5f5"/><stop offset="1" stop-color="#f8f8f8"/></linearGradient><linearGradient id="linear-gradient-2" x1="0.13" y1="153.3" x2="700" y2="153.3" gradientUnits="userSpaceOnUse"><stop offset="0" stop-color="#fbfbfb"/><stop offset="1" stop-color="#e9e9e9"/></linearGradient><pattern id="Unnamed_Pattern_2" data-name="Unnamed Pattern 2" width="109.12" height="103.21" patternTransform="matrix(1.23, 0, 0, -1.23, 2412.7, 21097.93)" patternUnits="userSpaceOnUse" viewBox="0 0 109.13 103.22"><rect width="109.13" height="103.21" fill="none"/><g clip-path="url(#clip-path)"><path d="M218.25,6.71a46.64,46.64,0,0,0-13.64,2.13A46.7,46.7,0,0,1,191,11a46.7,46.7,0,0,1-13.64-2.13,44.74,44.74,0,0,0-27.28,0A46.7,46.7,0,0,1,136.41,11a46.64,46.64,0,0,1-13.64-2.13,46.77,46.77,0,0,0-13.64-2.13" fill="none" stroke="#ccc" stroke-linecap="square" stroke-width="4"/><path d="M218.25-1.89A46.64,46.64,0,0,0,204.61.24,46.7,46.7,0,0,1,191,2.37,46.7,46.7,0,0,1,177.33.24a44.74,44.74,0,0,0-27.28,0,46.7,46.7,0,0,1-13.64,2.13A46.64,46.64,0,0,1,122.77.24a46.77,46.77,0,0,0-13.64-2.13" fill="none" stroke="#ccc" stroke-linecap="square" stroke-width="4"/><rect y="-12.9" width="109.13" height="25.8" fill="#e6e6e6"/><path d="M109.13,6.71A46.79,46.79,0,0,0,95.48,8.84,46.64,46.64,0,0,1,81.84,11,46.7,46.7,0,0,1,68.2,8.84,46.64,46.64,0,0,0,54.56,6.71,46.7,46.7,0,0,0,40.92,8.84,46.7,46.7,0,0,1,27.28,11,46.7,46.7,0,0,1,13.64,8.84,46.7,46.7,0,0,0,0,6.71" fill="none" stroke="#ccc" stroke-linecap="square" stroke-width="4"/><path d="M109.13-1.89A46.79,46.79,0,0,0,95.48.24,46.64,46.64,0,0,1,81.84,2.37,46.7,46.7,0,0,1,68.2.24,46.64,46.64,0,0,0,54.56-1.89,46.7,46.7,0,0,0,40.92.24,46.7,46.7,0,0,1,27.28,2.37,46.7,46.7,0,0,1,13.64.24,46.7,46.7,0,0,0,0-1.89" fill="none" stroke="#ccc" stroke-linecap="square" stroke-width="4"/><path d="M0,6.71A46.64,46.64,0,0,0-13.64,8.84,46.7,46.7,0,0,1-27.28,11,46.7,46.7,0,0,1-40.92,8.84,46.7,46.7,0,0,0-54.56,6.71,46.64,46.64,0,0,0-68.2,8.84,46.7,46.7,0,0,1-81.84,11,46.64,46.64,0,0,1-95.48,8.84a46.77,46.77,0,0,0-13.64-2.13" fill="none" stroke="#ccc" stroke-linecap="square" stroke-width="4"/><path d="M0-1.89A46.64,46.64,0,0,0-13.64.24,46.7,46.7,0,0,1-27.28,2.37,46.7,46.7,0,0,1-40.92.24,46.7,46.7,0,0,0-54.56-1.89,46.64,46.64,0,0,0-68.2.24,46.7,46.7,0,0,1-81.84,2.37,46.64,46.64,0,0,1-95.48.24a46.77,46.77,0,0,0-13.64-2.13" fill="none" stroke="#ccc" stroke-linecap="square" stroke-width="4"/><path d="M218.25,15.31a46.64,46.64,0,0,0-13.64,2.13A46.7,46.7,0,0,1,191,19.57a46.7,46.7,0,0,1-13.64-2.13,44.74,44.74,0,0,0-27.28,0,46.7,46.7,0,0,1-13.64,2.13,46.64,46.64,0,0,1-13.64-2.13,46.77,46.77,0,0,0-13.64-2.13" fill="none" stroke="#ccc" stroke-linecap="square" stroke-width="4"/><path d="M218.25,32.52a46.71,46.71,0,0,0-13.64,2.12A46.36,46.36,0,0,1,191,36.77a46.36,46.36,0,0,1-13.64-2.13,44.94,44.94,0,0,0-27.28,0,46.36,46.36,0,0,1-13.64,2.13,46.3,46.3,0,0,1-13.64-2.13,46.83,46.83,0,0,0-13.64-2.12" fill="none" stroke="#ccc" stroke-linecap="square" stroke-width="4"/><path d="M218.25,23.91A46.64,46.64,0,0,0,204.61,26,46.7,46.7,0,0,1,191,28.17,46.7,46.7,0,0,1,177.33,26a44.74,44.74,0,0,0-27.28,0,46.7,46.7,0,0,1-13.64,2.13A46.64,46.64,0,0,1,122.77,26a46.77,46.77,0,0,0-13.64-2.13" fill="none" stroke="#ccc" stroke-linecap="square" stroke-width="4"/><rect y="12.9" width="109.13" height="25.8" fill="#e6e6e6"/><path d="M109.13,15.31a46.79,46.79,0,0,0-13.65,2.13,46.64,46.64,0,0,1-13.64,2.13A46.7,46.7,0,0,1,68.2,17.44a46.64,46.64,0,0,0-13.64-2.13,46.7,46.7,0,0,0-13.64,2.13,46.7,46.7,0,0,1-13.64,2.13,46.7,46.7,0,0,1-13.64-2.13A46.7,46.7,0,0,0,0,15.31" fill="none" stroke="#ccc" stroke-linecap="square" stroke-width="4"/><path d="M109.13,32.52a46.85,46.85,0,0,0-13.65,2.12,46.3,46.3,0,0,1-13.64,2.13A46.36,46.36,0,0,1,68.2,34.64a46.71,46.71,0,0,0-13.64-2.12,46.77,46.77,0,0,0-13.64,2.12,46.36,46.36,0,0,1-13.64,2.13,46.36,46.36,0,0,1-13.64-2.13A46.77,46.77,0,0,0,0,32.52" fill="none" stroke="#ccc" stroke-linecap="square" stroke-width="4"/><path d="M109.13,23.91A46.79,46.79,0,0,0,95.48,26a46.64,46.64,0,0,1-13.64,2.13A46.7,46.7,0,0,1,68.2,26a46.64,46.64,0,0,0-13.64-2.13A46.7,46.7,0,0,0,40.92,26a46.7,46.7,0,0,1-13.64,2.13A46.7,46.7,0,0,1,13.64,26,46.7,46.7,0,0,0,0,23.91" fill="none" stroke="#ccc" stroke-linecap="square" stroke-width="4"/><path d="M0,15.31a46.64,46.64,0,0,0-13.64,2.13,46.7,46.7,0,0,1-13.64,2.13,46.7,46.7,0,0,1-13.64-2.13,46.7,46.7,0,0,0-13.64-2.13A46.64,46.64,0,0,0-68.2,17.44a46.7,46.7,0,0,1-13.64,2.13,46.64,46.64,0,0,1-13.64-2.13,46.77,46.77,0,0,0-13.64-2.13" fill="none" stroke="#ccc" stroke-linecap="square" stroke-width="4"/><path d="M0,32.52a46.71,46.71,0,0,0-13.64,2.12,46.36,46.36,0,0,1-13.64,2.13,46.36,46.36,0,0,1-13.64-2.13,46.77,46.77,0,0,0-13.64-2.12A46.71,46.71,0,0,0-68.2,34.64a46.36,46.36,0,0,1-13.64,2.13,46.3,46.3,0,0,1-13.64-2.13,46.83,46.83,0,0,0-13.64-2.12" fill="none" stroke="#ccc" stroke-linecap="square" stroke-width="4"/><path d="M0,23.91A46.64,46.64,0,0,0-13.64,26a46.7,46.7,0,0,1-13.64,2.13A46.7,46.7,0,0,1-40.92,26a46.7,46.7,0,0,0-13.64-2.13A46.64,46.64,0,0,0-68.2,26a46.7,46.7,0,0,1-13.64,2.13A46.64,46.64,0,0,1-95.48,26a46.77,46.77,0,0,0-13.64-2.13" fill="none" stroke="#ccc" stroke-linecap="square" stroke-width="4"/><path d="M218.25,41.12a46.71,46.71,0,0,0-13.64,2.12A46.36,46.36,0,0,1,191,45.37a46.36,46.36,0,0,1-13.64-2.13,44.94,44.94,0,0,0-27.28,0,46.36,46.36,0,0,1-13.64,2.13,46.3,46.3,0,0,1-13.64-2.13,46.83,46.83,0,0,0-13.64-2.12" fill="none" stroke="#ccc" stroke-linecap="square" stroke-width="4"/><path d="M218.25,58.32a46.3,46.3,0,0,0-13.64,2.13,44.74,44.74,0,0,1-27.28,0,44.74,44.74,0,0,0-27.28,0,44.74,44.74,0,0,1-27.28,0,46.43,46.43,0,0,0-13.64-2.13" fill="none" stroke="#ccc" stroke-linecap="square" stroke-width="4"/><path d="M218.25,49.72a46.3,46.3,0,0,0-13.64,2.13,44.94,44.94,0,0,1-27.28,0,44.74,44.74,0,0,0-27.28,0,44.94,44.94,0,0,1-27.28,0,46.43,46.43,0,0,0-13.64-2.13" fill="none" stroke="#ccc" stroke-linecap="square" stroke-width="4"/><rect y="38.71" width="109.13" height="25.8" fill="#e6e6e6"/><path d="M109.13,41.12a46.85,46.85,0,0,0-13.65,2.12,46.3,46.3,0,0,1-13.64,2.13A46.36,46.36,0,0,1,68.2,43.24a46.71,46.71,0,0,0-13.64-2.12,46.77,46.77,0,0,0-13.64,2.12,46.36,46.36,0,0,1-13.64,2.13,46.36,46.36,0,0,1-13.64-2.13A46.77,46.77,0,0,0,0,41.12" fill="none" stroke="#ccc" stroke-linecap="square" stroke-width="4"/><path d="M109.13,58.32a46.44,46.44,0,0,0-13.65,2.13,44.74,44.74,0,0,1-27.28,0,44.74,44.74,0,0,0-27.28,0,46.7,46.7,0,0,1-13.64,2.13,46.7,46.7,0,0,1-13.64-2.13A46.36,46.36,0,0,0,0,58.32" fill="none" stroke="#ccc" stroke-linecap="square" stroke-width="4"/><path d="M109.13,49.72a46.44,46.44,0,0,0-13.65,2.13,44.94,44.94,0,0,1-27.28,0,44.74,44.74,0,0,0-27.28,0A46.77,46.77,0,0,1,27.28,54a46.77,46.77,0,0,1-13.64-2.12A46.36,46.36,0,0,0,0,49.72" fill="none" stroke="#ccc" stroke-linecap="square" stroke-width="4"/><path d="M0,41.12a46.71,46.71,0,0,0-13.64,2.12,46.36,46.36,0,0,1-13.64,2.13,46.36,46.36,0,0,1-13.64-2.13,46.77,46.77,0,0,0-13.64-2.12A46.71,46.71,0,0,0-68.2,43.24a46.36,46.36,0,0,1-13.64,2.13,46.3,46.3,0,0,1-13.64-2.13,46.83,46.83,0,0,0-13.64-2.12" fill="none" stroke="#ccc" stroke-linecap="square" stroke-width="4"/><path d="M0,58.32a46.3,46.3,0,0,0-13.64,2.13,46.7,46.7,0,0,1-13.64,2.13,46.7,46.7,0,0,1-13.64-2.13,46.36,46.36,0,0,0-13.64-2.13A46.3,46.3,0,0,0-68.2,60.45a46.7,46.7,0,0,1-13.64,2.13,46.64,46.64,0,0,1-13.64-2.13,46.43,46.43,0,0,0-13.64-2.13" fill="none" stroke="#ccc" stroke-linecap="square" stroke-width="4"/><path d="M0,49.72a46.3,46.3,0,0,0-13.64,2.13A46.77,46.77,0,0,1-27.28,54a46.77,46.77,0,0,1-13.64-2.12,46.36,46.36,0,0,0-13.64-2.13A46.3,46.3,0,0,0-68.2,51.85,46.77,46.77,0,0,1-81.84,54a46.71,46.71,0,0,1-13.64-2.12,46.43,46.43,0,0,0-13.64-2.13" fill="none" stroke="#ccc" stroke-linecap="square" stroke-width="4"/><path d="M218.25,66.92a46.64,46.64,0,0,0-13.64,2.13,44.74,44.74,0,0,1-27.28,0,44.74,44.74,0,0,0-27.28,0,44.74,44.74,0,0,1-27.28,0,46.77,46.77,0,0,0-13.64-2.13" fill="none" stroke="#ccc" stroke-linecap="square" stroke-width="4"/><path d="M218.25,84.12a46.64,46.64,0,0,0-13.64,2.13,44.74,44.74,0,0,1-27.28,0,44.74,44.74,0,0,0-27.28,0,44.74,44.74,0,0,1-27.28,0,46.77,46.77,0,0,0-13.64-2.13" fill="none" stroke="#ccc" stroke-linecap="square" stroke-width="4"/><path d="M218.25,75.52a46.64,46.64,0,0,0-13.64,2.13,44.74,44.74,0,0,1-27.28,0,44.74,44.74,0,0,0-27.28,0,44.74,44.74,0,0,1-27.28,0,46.77,46.77,0,0,0-13.64-2.13" fill="none" stroke="#ccc" stroke-linecap="square" stroke-width="4"/><rect y="64.51" width="109.13" height="25.8" fill="#e6e6e6"/><path d="M109.13,66.92a46.79,46.79,0,0,0-13.65,2.13,44.74,44.74,0,0,1-27.28,0,46.64,46.64,0,0,0-13.64-2.13,46.7,46.7,0,0,0-13.64,2.13,46.7,46.7,0,0,1-13.64,2.13,46.7,46.7,0,0,1-13.64-2.13A46.7,46.7,0,0,0,0,66.92" fill="none" stroke="#ccc" stroke-linecap="square" stroke-width="4"/><path d="M109.13,84.12a46.79,46.79,0,0,0-13.65,2.13,44.74,44.74,0,0,1-27.28,0,46.64,46.64,0,0,0-13.64-2.13,46.7,46.7,0,0,0-13.64,2.13,46.7,46.7,0,0,1-13.64,2.13,46.7,46.7,0,0,1-13.64-2.13A46.7,46.7,0,0,0,0,84.12" fill="none" stroke="#ccc" stroke-linecap="square" stroke-width="4"/><path d="M109.13,75.52a46.79,46.79,0,0,0-13.65,2.13,44.74,44.74,0,0,1-27.28,0,46.64,46.64,0,0,0-13.64-2.13,46.7,46.7,0,0,0-13.64,2.13,46.7,46.7,0,0,1-13.64,2.13,46.7,46.7,0,0,1-13.64-2.13A46.7,46.7,0,0,0,0,75.52" fill="none" stroke="#ccc" stroke-linecap="square" stroke-width="4"/><path d="M0,66.92a46.64,46.64,0,0,0-13.64,2.13,46.7,46.7,0,0,1-13.64,2.13,46.7,46.7,0,0,1-13.64-2.13,46.7,46.7,0,0,0-13.64-2.13A46.64,46.64,0,0,0-68.2,69.05a46.7,46.7,0,0,1-13.64,2.13,46.64,46.64,0,0,1-13.64-2.13,46.77,46.77,0,0,0-13.64-2.13" fill="none" stroke="#ccc" stroke-linecap="square" stroke-width="4"/><path d="M0,84.12a46.64,46.64,0,0,0-13.64,2.13,46.7,46.7,0,0,1-13.64,2.13,46.7,46.7,0,0,1-13.64-2.13,46.7,46.7,0,0,0-13.64-2.13A46.64,46.64,0,0,0-68.2,86.25a46.7,46.7,0,0,1-13.64,2.13,46.64,46.64,0,0,1-13.64-2.13,46.77,46.77,0,0,0-13.64-2.13" fill="none" stroke="#ccc" stroke-linecap="square" stroke-width="4"/><path d="M0,75.52a46.64,46.64,0,0,0-13.64,2.13,46.7,46.7,0,0,1-13.64,2.13,46.7,46.7,0,0,1-13.64-2.13,46.7,46.7,0,0,0-13.64-2.13A46.64,46.64,0,0,0-68.2,77.65a46.7,46.7,0,0,1-13.64,2.13,46.64,46.64,0,0,1-13.64-2.13,46.77,46.77,0,0,0-13.64-2.13" fill="none" stroke="#ccc" stroke-linecap="square" stroke-width="4"/><path d="M218.25,92.72a46.64,46.64,0,0,0-13.64,2.13,44.74,44.74,0,0,1-27.28,0,44.74,44.74,0,0,0-27.28,0,44.74,44.74,0,0,1-27.28,0,46.77,46.77,0,0,0-13.64-2.13" fill="none" stroke="#ccc" stroke-linecap="square" stroke-width="4"/><path d="M218.25,101.33a46.71,46.71,0,0,0-13.64,2.12,44.74,44.74,0,0,1-27.28,0,44.94,44.94,0,0,0-27.28,0,44.74,44.74,0,0,1-27.28,0,46.83,46.83,0,0,0-13.64-2.12" fill="none" stroke="#ccc" stroke-linecap="square" stroke-width="4"/><rect y="90.31" width="109.13" height="25.8" fill="#e6e6e6"/><path d="M109.13,92.72a46.79,46.79,0,0,0-13.65,2.13,44.74,44.74,0,0,1-27.28,0,46.64,46.64,0,0,0-13.64-2.13,46.7,46.7,0,0,0-13.64,2.13A46.7,46.7,0,0,1,27.28,97a46.7,46.7,0,0,1-13.64-2.13A46.7,46.7,0,0,0,0,92.72" fill="none" stroke="#ccc" stroke-linecap="square" stroke-width="4"/><path d="M109.13,101.33a46.85,46.85,0,0,0-13.65,2.12,44.74,44.74,0,0,1-27.28,0,46.71,46.71,0,0,0-13.64-2.12,46.77,46.77,0,0,0-13.64,2.12,46.36,46.36,0,0,1-13.64,2.13,46.36,46.36,0,0,1-13.64-2.13A46.77,46.77,0,0,0,0,101.33" fill="none" stroke="#ccc" stroke-linecap="square" stroke-width="4"/><path d="M0,92.72a46.64,46.64,0,0,0-13.64,2.13A46.7,46.7,0,0,1-27.28,97a46.7,46.7,0,0,1-13.64-2.13,46.7,46.7,0,0,0-13.64-2.13A46.64,46.64,0,0,0-68.2,94.85,46.7,46.7,0,0,1-81.84,97a46.64,46.64,0,0,1-13.64-2.13,46.77,46.77,0,0,0-13.64-2.13" fill="none" stroke="#ccc" stroke-linecap="square" stroke-width="4"/><path d="M0,101.33a46.71,46.71,0,0,0-13.64,2.12,46.36,46.36,0,0,1-13.64,2.13,46.36,46.36,0,0,1-13.64-2.13,46.77,46.77,0,0,0-13.64-2.12,46.71,46.71,0,0,0-13.64,2.12,46.36,46.36,0,0,1-13.64,2.13,46.3,46.3,0,0,1-13.64-2.13,46.83,46.83,0,0,0-13.64-2.12" fill="none" stroke="#ccc" stroke-linecap="square" stroke-width="4"/></g></pattern><linearGradient id="linear-gradient-3" x1="351.78" y1="184.22" x2="346.14" y2="887.12" gradientUnits="userSpaceOnUse"><stop offset="0"/><stop offset="0.1" stop-color="#111"/><stop offset="0.29" stop-color="#3e3e3e"/><stop offset="0.56" stop-color="#878787"/><stop offset="0.89" stop-color="#e9e9e9"/></linearGradient><linearGradient id="linear-gradient-4" x1="109.21" y1="552.68" x2="164.65" y2="479.38" gradientUnits="userSpaceOnUse"><stop offset="0" stop-color="#666665"/><stop offset="0.02" stop-color="#6a6a69"/><stop offset="0.49" stop-color="#aeaeae"/><stop offset="0.83" stop-color="#d9d9d9"/><stop offset="1" stop-color="#e9e9e9"/></linearGradient><linearGradient id="linear-gradient-5" x1="-131.93" y1="552.68" x2="-76.49" y2="479.38" gradientTransform="matrix(-1, 0, 0, 1, 458.82, 0)" xlink:href="#linear-gradient-4"/><pattern id="Unnamed_Pattern_2-5" data-name="Unnamed Pattern 2" width="109.12" height="103.21" patternTransform="matrix(1, 0, 0, -1, 3300.37, 17215.36)" patternUnits="userSpaceOnUse" viewBox="0 0 109.13 103.22"><rect width="109.13" height="103.21" fill="none"/><g clip-path="url(#clip-path)"><path d="M218.25,6.71a46.64,46.64,0,0,0-13.64,2.13A46.7,46.7,0,0,1,191,11a46.7,46.7,0,0,1-13.64-2.13,44.74,44.74,0,0,0-27.28,0A46.7,46.7,0,0,1,136.41,11a46.64,46.64,0,0,1-13.64-2.13,46.77,46.77,0,0,0-13.64-2.13" fill="none" stroke="#ccc" stroke-linecap="square" stroke-width="4"/><path d="M218.25-1.89A46.64,46.64,0,0,0,204.61.24,46.7,46.7,0,0,1,191,2.37,46.7,46.7,0,0,1,177.33.24a44.74,44.74,0,0,0-27.28,0,46.7,46.7,0,0,1-13.64,2.13A46.64,46.64,0,0,1,122.77.24a46.77,46.77,0,0,0-13.64-2.13" fill="none" stroke="#ccc" stroke-linecap="square" stroke-width="4"/><rect y="-12.9" width="109.13" height="25.8" fill="#e6e6e6"/><path d="M109.13,6.71A46.79,46.79,0,0,0,95.48,8.84,46.64,46.64,0,0,1,81.84,11,46.7,46.7,0,0,1,68.2,8.84,46.64,46.64,0,0,0,54.56,6.71,46.7,46.7,0,0,0,40.92,8.84,46.7,46.7,0,0,1,27.28,11,46.7,46.7,0,0,1,13.64,8.84,46.7,46.7,0,0,0,0,6.71" fill="none" stroke="#ccc" stroke-linecap="square" stroke-width="4"/><path d="M109.13-1.89A46.79,46.79,0,0,0,95.48.24,46.64,46.64,0,0,1,81.84,2.37,46.7,46.7,0,0,1,68.2.24,46.64,46.64,0,0,0,54.56-1.89,46.7,46.7,0,0,0,40.92.24,46.7,46.7,0,0,1,27.28,2.37,46.7,46.7,0,0,1,13.64.24,46.7,46.7,0,0,0,0-1.89" fill="none" stroke="#ccc" stroke-linecap="square" stroke-width="4"/><path d="M0,6.71A46.64,46.64,0,0,0-13.64,8.84,46.7,46.7,0,0,1-27.28,11,46.7,46.7,0,0,1-40.92,8.84,46.7,46.7,0,0,0-54.56,6.71,46.64,46.64,0,0,0-68.2,8.84,46.7,46.7,0,0,1-81.84,11,46.64,46.64,0,0,1-95.48,8.84a46.77,46.77,0,0,0-13.64-2.13" fill="none" stroke="#ccc" stroke-linecap="square" stroke-width="4"/><path d="M0-1.89A46.64,46.64,0,0,0-13.64.24,46.7,46.7,0,0,1-27.28,2.37,46.7,46.7,0,0,1-40.92.24,46.7,46.7,0,0,0-54.56-1.89,46.64,46.64,0,0,0-68.2.24,46.7,46.7,0,0,1-81.84,2.37,46.64,46.64,0,0,1-95.48.24a46.77,46.77,0,0,0-13.64-2.13" fill="none" stroke="#ccc" stroke-linecap="square" stroke-width="4"/><path d="M218.25,15.31a46.64,46.64,0,0,0-13.64,2.13A46.7,46.7,0,0,1,191,19.57a46.7,46.7,0,0,1-13.64-2.13,44.74,44.74,0,0,0-27.28,0,46.7,46.7,0,0,1-13.64,2.13,46.64,46.64,0,0,1-13.64-2.13,46.77,46.77,0,0,0-13.64-2.13" fill="none" stroke="#ccc" stroke-linecap="square" stroke-width="4"/><path d="M218.25,32.52a46.71,46.71,0,0,0-13.64,2.12A46.36,46.36,0,0,1,191,36.77a46.36,46.36,0,0,1-13.64-2.13,44.94,44.94,0,0,0-27.28,0,46.36,46.36,0,0,1-13.64,2.13,46.3,46.3,0,0,1-13.64-2.13,46.83,46.83,0,0,0-13.64-2.12" fill="none" stroke="#ccc" stroke-linecap="square" stroke-width="4"/><path d="M218.25,23.91A46.64,46.64,0,0,0,204.61,26,46.7,46.7,0,0,1,191,28.17,46.7,46.7,0,0,1,177.33,26a44.74,44.74,0,0,0-27.28,0,46.7,46.7,0,0,1-13.64,2.13A46.64,46.64,0,0,1,122.77,26a46.77,46.77,0,0,0-13.64-2.13" fill="none" stroke="#ccc" stroke-linecap="square" stroke-width="4"/><rect y="12.9" width="109.13" height="25.8" fill="#e6e6e6"/><path d="M109.13,15.31a46.79,46.79,0,0,0-13.65,2.13,46.64,46.64,0,0,1-13.64,2.13A46.7,46.7,0,0,1,68.2,17.44a46.64,46.64,0,0,0-13.64-2.13,46.7,46.7,0,0,0-13.64,2.13,46.7,46.7,0,0,1-13.64,2.13,46.7,46.7,0,0,1-13.64-2.13A46.7,46.7,0,0,0,0,15.31" fill="none" stroke="#ccc" stroke-linecap="square" stroke-width="4"/><path d="M109.13,32.52a46.85,46.85,0,0,0-13.65,2.12,46.3,46.3,0,0,1-13.64,2.13A46.36,46.36,0,0,1,68.2,34.64a46.71,46.71,0,0,0-13.64-2.12,46.77,46.77,0,0,0-13.64,2.12,46.36,46.36,0,0,1-13.64,2.13,46.36,46.36,0,0,1-13.64-2.13A46.77,46.77,0,0,0,0,32.52" fill="none" stroke="#ccc" stroke-linecap="square" stroke-width="4"/><path d="M109.13,23.91A46.79,46.79,0,0,0,95.48,26a46.64,46.64,0,0,1-13.64,2.13A46.7,46.7,0,0,1,68.2,26a46.64,46.64,0,0,0-13.64-2.13A46.7,46.7,0,0,0,40.92,26a46.7,46.7,0,0,1-13.64,2.13A46.7,46.7,0,0,1,13.64,26,46.7,46.7,0,0,0,0,23.91" fill="none" stroke="#ccc" stroke-linecap="square" stroke-width="4"/><path d="M0,15.31a46.64,46.64,0,0,0-13.64,2.13,46.7,46.7,0,0,1-13.64,2.13,46.7,46.7,0,0,1-13.64-2.13,46.7,46.7,0,0,0-13.64-2.13A46.64,46.64,0,0,0-68.2,17.44a46.7,46.7,0,0,1-13.64,2.13,46.64,46.64,0,0,1-13.64-2.13,46.77,46.77,0,0,0-13.64-2.13" fill="none" stroke="#ccc" stroke-linecap="square" stroke-width="4"/><path d="M0,32.52a46.71,46.71,0,0,0-13.64,2.12,46.36,46.36,0,0,1-13.64,2.13,46.36,46.36,0,0,1-13.64-2.13,46.77,46.77,0,0,0-13.64-2.12A46.71,46.71,0,0,0-68.2,34.64a46.36,46.36,0,0,1-13.64,2.13,46.3,46.3,0,0,1-13.64-2.13,46.83,46.83,0,0,0-13.64-2.12" fill="none" stroke="#ccc" stroke-linecap="square" stroke-width="4"/><path d="M0,23.91A46.64,46.64,0,0,0-13.64,26a46.7,46.7,0,0,1-13.64,2.13A46.7,46.7,0,0,1-40.92,26a46.7,46.7,0,0,0-13.64-2.13A46.64,46.64,0,0,0-68.2,26a46.7,46.7,0,0,1-13.64,2.13A46.64,46.64,0,0,1-95.48,26a46.77,46.77,0,0,0-13.64-2.13" fill="none" stroke="#ccc" stroke-linecap="square" stroke-width="4"/><path d="M218.25,41.12a46.71,46.71,0,0,0-13.64,2.12A46.36,46.36,0,0,1,191,45.37a46.36,46.36,0,0,1-13.64-2.13,44.94,44.94,0,0,0-27.28,0,46.36,46.36,0,0,1-13.64,2.13,46.3,46.3,0,0,1-13.64-2.13,46.83,46.83,0,0,0-13.64-2.12" fill="none" stroke="#ccc" stroke-linecap="square" stroke-width="4"/><path d="M218.25,58.32a46.3,46.3,0,0,0-13.64,2.13,44.74,44.74,0,0,1-27.28,0,44.74,44.74,0,0,0-27.28,0,44.74,44.74,0,0,1-27.28,0,46.43,46.43,0,0,0-13.64-2.13" fill="none" stroke="#ccc" stroke-linecap="square" stroke-width="4"/><path d="M218.25,49.72a46.3,46.3,0,0,0-13.64,2.13,44.94,44.94,0,0,1-27.28,0,44.74,44.74,0,0,0-27.28,0,44.94,44.94,0,0,1-27.28,0,46.43,46.43,0,0,0-13.64-2.13" fill="none" stroke="#ccc" stroke-linecap="square" stroke-width="4"/><rect y="38.71" width="109.13" height="25.8" fill="#e6e6e6"/><path d="M109.13,41.12a46.85,46.85,0,0,0-13.65,2.12,46.3,46.3,0,0,1-13.64,2.13A46.36,46.36,0,0,1,68.2,43.24a46.71,46.71,0,0,0-13.64-2.12,46.77,46.77,0,0,0-13.64,2.12,46.36,46.36,0,0,1-13.64,2.13,46.36,46.36,0,0,1-13.64-2.13A46.77,46.77,0,0,0,0,41.12" fill="none" stroke="#ccc" stroke-linecap="square" stroke-width="4"/><path d="M109.13,58.32a46.44,46.44,0,0,0-13.65,2.13,44.74,44.74,0,0,1-27.28,0,44.74,44.74,0,0,0-27.28,0,46.7,46.7,0,0,1-13.64,2.13,46.7,46.7,0,0,1-13.64-2.13A46.36,46.36,0,0,0,0,58.32" fill="none" stroke="#ccc" stroke-linecap="square" stroke-width="4"/><path d="M109.13,49.72a46.44,46.44,0,0,0-13.65,2.13,44.94,44.94,0,0,1-27.28,0,44.74,44.74,0,0,0-27.28,0A46.77,46.77,0,0,1,27.28,54a46.77,46.77,0,0,1-13.64-2.12A46.36,46.36,0,0,0,0,49.72" fill="none" stroke="#ccc" stroke-linecap="square" stroke-width="4"/><path d="M0,41.12a46.71,46.71,0,0,0-13.64,2.12,46.36,46.36,0,0,1-13.64,2.13,46.36,46.36,0,0,1-13.64-2.13,46.77,46.77,0,0,0-13.64-2.12A46.71,46.71,0,0,0-68.2,43.24a46.36,46.36,0,0,1-13.64,2.13,46.3,46.3,0,0,1-13.64-2.13,46.83,46.83,0,0,0-13.64-2.12" fill="none" stroke="#ccc" stroke-linecap="square" stroke-width="4"/><path d="M0,58.32a46.3,46.3,0,0,0-13.64,2.13,46.7,46.7,0,0,1-13.64,2.13,46.7,46.7,0,0,1-13.64-2.13,46.36,46.36,0,0,0-13.64-2.13A46.3,46.3,0,0,0-68.2,60.45a46.7,46.7,0,0,1-13.64,2.13,46.64,46.64,0,0,1-13.64-2.13,46.43,46.43,0,0,0-13.64-2.13" fill="none" stroke="#ccc" stroke-linecap="square" stroke-width="4"/><path d="M0,49.72a46.3,46.3,0,0,0-13.64,2.13A46.77,46.77,0,0,1-27.28,54a46.77,46.77,0,0,1-13.64-2.12,46.36,46.36,0,0,0-13.64-2.13A46.3,46.3,0,0,0-68.2,51.85,46.77,46.77,0,0,1-81.84,54a46.71,46.71,0,0,1-13.64-2.12,46.43,46.43,0,0,0-13.64-2.13" fill="none" stroke="#ccc" stroke-linecap="square" stroke-width="4"/><path d="M218.25,66.92a46.64,46.64,0,0,0-13.64,2.13,44.74,44.74,0,0,1-27.28,0,44.74,44.74,0,0,0-27.28,0,44.74,44.74,0,0,1-27.28,0,46.77,46.77,0,0,0-13.64-2.13" fill="none" stroke="#ccc" stroke-linecap="square" stroke-width="4"/><path d="M218.25,84.12a46.64,46.64,0,0,0-13.64,2.13,44.74,44.74,0,0,1-27.28,0,44.74,44.74,0,0,0-27.28,0,44.74,44.74,0,0,1-27.28,0,46.77,46.77,0,0,0-13.64-2.13" fill="none" stroke="#ccc" stroke-linecap="square" stroke-width="4"/><path d="M218.25,75.52a46.64,46.64,0,0,0-13.64,2.13,44.74,44.74,0,0,1-27.28,0,44.74,44.74,0,0,0-27.28,0,44.74,44.74,0,0,1-27.28,0,46.77,46.77,0,0,0-13.64-2.13" fill="none" stroke="#ccc" stroke-linecap="square" stroke-width="4"/><rect y="64.51" width="109.13" height="25.8" fill="#e6e6e6"/><path d="M109.13,66.92a46.79,46.79,0,0,0-13.65,2.13,44.74,44.74,0,0,1-27.28,0,46.64,46.64,0,0,0-13.64-2.13,46.7,46.7,0,0,0-13.64,2.13,46.7,46.7,0,0,1-13.64,2.13,46.7,46.7,0,0,1-13.64-2.13A46.7,46.7,0,0,0,0,66.92" fill="none" stroke="#ccc" stroke-linecap="square" stroke-width="4"/><path d="M109.13,84.12a46.79,46.79,0,0,0-13.65,2.13,44.74,44.74,0,0,1-27.28,0,46.64,46.64,0,0,0-13.64-2.13,46.7,46.7,0,0,0-13.64,2.13,46.7,46.7,0,0,1-13.64,2.13,46.7,46.7,0,0,1-13.64-2.13A46.7,46.7,0,0,0,0,84.12" fill="none" stroke="#ccc" stroke-linecap="square" stroke-width="4"/><path d="M109.13,75.52a46.79,46.79,0,0,0-13.65,2.13,44.74,44.74,0,0,1-27.28,0,46.64,46.64,0,0,0-13.64-2.13,46.7,46.7,0,0,0-13.64,2.13,46.7,46.7,0,0,1-13.64,2.13,46.7,46.7,0,0,1-13.64-2.13A46.7,46.7,0,0,0,0,75.52" fill="none" stroke="#ccc" stroke-linecap="square" stroke-width="4"/><path d="M0,66.92a46.64,46.64,0,0,0-13.64,2.13,46.7,46.7,0,0,1-13.64,2.13,46.7,46.7,0,0,1-13.64-2.13,46.7,46.7,0,0,0-13.64-2.13A46.64,46.64,0,0,0-68.2,69.05a46.7,46.7,0,0,1-13.64,2.13,46.64,46.64,0,0,1-13.64-2.13,46.77,46.77,0,0,0-13.64-2.13" fill="none" stroke="#ccc" stroke-linecap="square" stroke-width="4"/><path d="M0,84.12a46.64,46.64,0,0,0-13.64,2.13,46.7,46.7,0,0,1-13.64,2.13,46.7,46.7,0,0,1-13.64-2.13,46.7,46.7,0,0,0-13.64-2.13A46.64,46.64,0,0,0-68.2,86.25a46.7,46.7,0,0,1-13.64,2.13,46.64,46.64,0,0,1-13.64-2.13,46.77,46.77,0,0,0-13.64-2.13" fill="none" stroke="#ccc" stroke-linecap="square" stroke-width="4"/><path d="M0,75.52a46.64,46.64,0,0,0-13.64,2.13,46.7,46.7,0,0,1-13.64,2.13,46.7,46.7,0,0,1-13.64-2.13,46.7,46.7,0,0,0-13.64-2.13A46.64,46.64,0,0,0-68.2,77.65a46.7,46.7,0,0,1-13.64,2.13,46.64,46.64,0,0,1-13.64-2.13,46.77,46.77,0,0,0-13.64-2.13" fill="none" stroke="#ccc" stroke-linecap="square" stroke-width="4"/><path d="M218.25,92.72a46.64,46.64,0,0,0-13.64,2.13,44.74,44.74,0,0,1-27.28,0,44.74,44.74,0,0,0-27.28,0,44.74,44.74,0,0,1-27.28,0,46.77,46.77,0,0,0-13.64-2.13" fill="none" stroke="#ccc" stroke-linecap="square" stroke-width="4"/><path d="M218.25,101.33a46.71,46.71,0,0,0-13.64,2.12,44.74,44.74,0,0,1-27.28,0,44.94,44.94,0,0,0-27.28,0,44.74,44.74,0,0,1-27.28,0,46.83,46.83,0,0,0-13.64-2.12" fill="none" stroke="#ccc" stroke-linecap="square" stroke-width="4"/><rect y="90.31" width="109.13" height="25.8" fill="#e6e6e6"/><path d="M109.13,92.72a46.79,46.79,0,0,0-13.65,2.13,44.74,44.74,0,0,1-27.28,0,46.64,46.64,0,0,0-13.64-2.13,46.7,46.7,0,0,0-13.64,2.13A46.7,46.7,0,0,1,27.28,97a46.7,46.7,0,0,1-13.64-2.13A46.7,46.7,0,0,0,0,92.72" fill="none" stroke="#ccc" stroke-linecap="square" stroke-width="4"/><path d="M109.13,101.33a46.85,46.85,0,0,0-13.65,2.12,44.74,44.74,0,0,1-27.28,0,46.71,46.71,0,0,0-13.64-2.12,46.77,46.77,0,0,0-13.64,2.12,46.36,46.36,0,0,1-13.64,2.13,46.36,46.36,0,0,1-13.64-2.13A46.77,46.77,0,0,0,0,101.33" fill="none" stroke="#ccc" stroke-linecap="square" stroke-width="4"/><path d="M0,92.72a46.64,46.64,0,0,0-13.64,2.13A46.7,46.7,0,0,1-27.28,97a46.7,46.7,0,0,1-13.64-2.13,46.7,46.7,0,0,0-13.64-2.13A46.64,46.64,0,0,0-68.2,94.85,46.7,46.7,0,0,1-81.84,97a46.64,46.64,0,0,1-13.64-2.13,46.77,46.77,0,0,0-13.64-2.13" fill="none" stroke="#ccc" stroke-linecap="square" stroke-width="4"/><path d="M0,101.33a46.71,46.71,0,0,0-13.64,2.12,46.36,46.36,0,0,1-13.64,2.13,46.36,46.36,0,0,1-13.64-2.13,46.77,46.77,0,0,0-13.64-2.12,46.71,46.71,0,0,0-13.64,2.12,46.36,46.36,0,0,1-13.64,2.13,46.3,46.3,0,0,1-13.64-2.13,46.83,46.83,0,0,0-13.64-2.12" fill="none" stroke="#ccc" stroke-linecap="square" stroke-width="4"/></g></pattern></defs><title>envelope</title><g style="isolation:isolate"><g id="Layer_2" data-name="Layer 2"><g id="animation"><g id="envelope"><path id="bottom-shadow" d="M683.63,825.67c0,13.37-148.39,24.19-331.43,24.19S20.77,839,20.77,825.67s148.39-24.19,331.43-24.19S683.63,812.31,683.63,825.67Z" opacity="0.43" fill="url(#radial-gradient)" style="mix-blend-mode:multiply"/><rect id="body" x="0.13" y="306.6" width="699.86" height="513.27" fill="url(#linear-gradient)"/><g id="accents"><polygon id="accent-left" points="283.87 577.5 288.99 581 0 774.35 0 769 283.87 577.5" fill="#f2f2f2"/><polygon id="accent-right" points="418.61 575.78 414.07 578.88 699.82 779.7 699.82 773.09 418.61 575.78" fill="#f2f2f2"/></g><polygon id="opened-top" points="349.06 0.69 24.46 223.46 0.13 298.5 0.13 306.6 700 306.6 700 298.5 675.62 223.46 351.08 0.69 350.04 0 349.06 0.69" fill="url(#linear-gradient-2)"/><g id="pattern-bottom" opacity="0.6"><polygon points="664.71 389.45 664.71 306.62 36.22 306.62 36.32 390.18 349.98 606.48 664.71 389.45" fill="url(#Unnamed_Pattern_2)"/><polygon points="664.71 389.45 664.71 306.62 36.22 306.62 36.32 390.18 349.98 606.48 664.71 389.45" opacity="0.2" fill="url(#linear-gradient-3)"/></g><g id="shadows-inner"><polygon points="0.13 324.65 24.46 399.75 349.98 622.81 349.98 622.8 349.98 606.48 31.94 387.1 0.13 308.44 0.13 324.65" fill="url(#linear-gradient-4)"/><polygon points="699.83 324.65 675.5 399.75 349.98 622.81 349.98 622.8 349.98 606.48 668.03 387.1 699.83 308.44 699.83 324.65" fill="url(#linear-gradient-5)"/></g><polygon id="closed" points="349.06 612.48 24.46 389.71 0.13 314.67 0.13 306.56 700 306.56 700 314.67 675.62 389.71 351.08 612.48 350.04 613.16 349.06 612.48" fill="#fff"/><polygon id="pattern-top" points="664.74 299.26 643.12 231.47 351.5 29.02 350.57 28.39 350.46 28.47 350.35 28.39 349.42 29.02 57.81 231.47 36.18 299.26 36.22 306.58 350.46 306.58 664.71 306.58 664.74 299.26" fill="url(#Unnamed_Pattern_2)"/><g id="button"><path d="M400.94,593.91a48.09,48.09,0,1,1-48.09-48.08,48.09,48.09,0,0,1,48.09,48.08" fill="url(#Unnamed_Pattern_2-5)"/><circle cx="352.85" cy="593.91" r="48.09" fill="none" stroke="#fff" stroke-miterlimit="10" stroke-width="0.5"/><path d="M346.54,573.78c4.87-2,9.68-1.8,14,1.28,4.72,3.35,4.13,9.25,1.4,12.57-.89,1.08-1.16,1.14-2.41.43-.84-.49-1.62-1.08-2.43-1.63-.54-.38-.55-.81-.26-1.39a8.36,8.36,0,0,0,.88-3c0-2.78-2.46-4.63-5.61-4.39-2.27.18-4,1.14-4.81,3.3a4.67,4.67,0,0,0,1.56,5.6,42.5,42.5,0,0,0,4.74,3.11c2.78,1.67,5.67,3.15,8.37,4.93a10.44,10.44,0,0,1,4.77,6.66,11.17,11.17,0,0,1-5.61,11.88,18.36,18.36,0,0,1-9.55,2.31,17.38,17.38,0,0,1-9.4-2.62,11.05,11.05,0,0,1-3.06-3.11,8,8,0,0,0,1-.62,9.5,9.5,0,0,0,1.7-1.33,9.49,9.49,0,0,1-1.84.44,9,9,0,0,1-1.64.15,11.68,11.68,0,0,1-4.34-.8,1.18,1.18,0,0,1-.76-.72,1.15,1.15,0,0,1,.13-1c.5-1,1-2,1.51-3,.36-.72.89-.81,1.67-.51a5,5,0,0,0,5.83-1.71c.49-.69,1-.85,1.68-.46l3,1.66a1.18,1.18,0,0,1,.69.79,1.15,1.15,0,0,1-.23,1,11.42,11.42,0,0,1-3,2.89,6.77,6.77,0,0,0,3.39,2.89,10.59,10.59,0,0,0,7.75.25c4.7-1.58,6.38-7.64,2.18-10.92a47.41,47.41,0,0,0-5.41-3.42c-2.37-1.39-4.88-2.56-7.18-4.06a9.61,9.61,0,0,1-4.71-7.2,9.5,9.5,0,0,1,5.94-10.22" fill="#4d4d4d"/></g><path id="arrow" d="M345.18,511.25l4,6.17,3.91-6c1.18-1.83,2.94-4.85,3.92-6.74l1.52-2.92-.53-.18-2.23,2.82c-1.39,1.75-3.49,4.66-4.67,6.49l-1.55,2.38.29-3.77c.23-2.88.42-7.57.42-10.46V484.62c0-2.89-.19-7.58-.42-10.46l-.36-4.62h-.61l-.36,4.62c-.23,2.88-.41,7.58-.41,10.46V499c0,2.89.18,7.58.41,10.46l.3,3.77-1.65-2.53c-1.19-1.83-3.28-4.74-4.68-6.49l-2.11-2.67-.56.18,1.43,2.77c1,1.89,2.74,4.91,3.92,6.73" fill="#4d4d4d"/><g id="text"><path d="M272.69,441.52a5,5,0,0,1-1.72-2.17,7.43,7.43,0,0,1-.56-2.88,14,14,0,0,1,1.51-6.17,15.63,15.63,0,0,1,3.87-5.12,7.31,7.31,0,0,1,4.73-2,2.85,2.85,0,0,1,1.8.52,2,2,0,0,1,.68,1.64,6.69,6.69,0,0,1-.44,2.19,7.65,7.65,0,0,1-1.12,2.11,1.84,1.84,0,0,1-1.37.87,1.11,1.11,0,0,1-1-.74,16.11,16.11,0,0,0,1.74-2.38,4.6,4.6,0,0,0,.85-2.24c0-.61-.36-.92-1.07-.92-1.11,0-2.29.67-3.54,2a17.17,17.17,0,0,0-3.11,5,14,14,0,0,0-1.25,5.48,5.75,5.75,0,0,0,.85,3.21,2.91,2.91,0,0,0,2.6,1.31,5.25,5.25,0,0,0,2.52-.71,9.17,9.17,0,0,0,2.36-1.86,10.25,10.25,0,0,0,1.71-2.53l.62.41a13.49,13.49,0,0,1-3.37,4.2,6.83,6.83,0,0,1-4.41,1.63,4.93,4.93,0,0,1-2.91-.83" fill="#666"/><path d="M282.71,440.3a3.15,3.15,0,0,1-.47-1.83,16.64,16.64,0,0,1,1.48-5.85,39.54,39.54,0,0,1,3.35-6.57c1.23-1.94,2.15-2.9,2.73-2.9q.4,0,.69.63a3.25,3.25,0,0,1,.31,1.27,9.15,9.15,0,0,1-.88,3.2,23.48,23.48,0,0,1-2.37,4.27,16,16,0,0,1-3.17,3.5,13.27,13.27,0,0,0-.26,2.24,2.24,2.24,0,0,0,.27,1.23.86.86,0,0,0,.75.41,2.52,2.52,0,0,0,1.77-1.11,11.8,11.8,0,0,0,1.68-2.68l.57.31a11.53,11.53,0,0,1-2.31,3.37,3.78,3.78,0,0,1-2.62,1.2,1.73,1.73,0,0,1-1.52-.69m4.51-9a25.17,25.17,0,0,0,1.81-3.52,7.54,7.54,0,0,0,.68-2.48c-.21,0-.62.48-1.25,1.45a32.41,32.41,0,0,0-2,3.61,31,31,0,0,0-1.67,4.17,20,20,0,0,0,2.41-3.23" fill="#666"/><path d="M288.37,440.4a2.2,2.2,0,0,1-.54-1.53,9.09,9.09,0,0,1,.53-2.58,11.84,11.84,0,0,1,1.36-2.86c.55-.83,1.1-1.24,1.65-1.24a.72.72,0,0,1,.51.18.64.64,0,0,1,.21.51,1.52,1.52,0,0,1-.19.58c-.13.25-.34.6-.62,1.06a21.43,21.43,0,0,0-1.2,2.22,4.33,4.33,0,0,0-.44,1.83,1.37,1.37,0,0,0,.26,1,1.07,1.07,0,0,0,.81.27c1.25,0,2.5-1.22,3.73-3.64l.36.38a8.7,8.7,0,0,1-2.12,3.26,4,4,0,0,1-2.76,1.16,2,2,0,0,1-1.55-.59M291.88,430a.79.79,0,0,1-.34-.69,1.17,1.17,0,0,1,.61-1,2.21,2.21,0,0,1,1.29-.42c.69,0,1,.3,1,.88a1.31,1.31,0,0,1-.55,1,1.8,1.8,0,0,1-1.19.46,1.47,1.47,0,0,1-.85-.24" fill="#666"/><path d="M294.45,440.81a3.25,3.25,0,0,1-.77-2.34,6.26,6.26,0,0,1,.77-3,6.84,6.84,0,0,1,2-2.36,4.19,4.19,0,0,1,2.49-.9,1.89,1.89,0,0,1,1.42.47,1.64,1.64,0,0,1,.46,1.19,2.6,2.6,0,0,1-.34,1.32,1,1,0,0,1-.85.61.84.84,0,0,1-.73-.45,1.71,1.71,0,0,0,.52-.67,2.46,2.46,0,0,0,.24-1.12c0-.27-.15-.4-.45-.4a2.46,2.46,0,0,0-1.65.9,7.92,7.92,0,0,0-1.47,2.19,5.58,5.58,0,0,0-.6,2.33,2.11,2.11,0,0,0,.38,1.28,1.54,1.54,0,0,0,1.31.51,4,4,0,0,0,1.89-.53,6.49,6.49,0,0,0,1.85-1.48,7.76,7.76,0,0,0,1.36-2.23l.47.43a8.82,8.82,0,0,1-1.58,2.57,8.12,8.12,0,0,1-2.25,1.8,5.21,5.21,0,0,1-2.43.65,2.73,2.73,0,0,1-2.06-.8" fill="#666"/><path d="M307.72,440.43a4.66,4.66,0,0,1-1-1.79,6.62,6.62,0,0,1-.31-1.88c2.05-.46,3.07-1.17,3.07-2.12a.9.9,0,0,0-.27-.69,1.07,1.07,0,0,0-.78-.26,3.1,3.1,0,0,0-2.56,1.84,27,27,0,0,0-2,4.27,2.9,2.9,0,0,1-.5,1,.94.94,0,0,1-.69.25.8.8,0,0,1-.65-.34,2.54,2.54,0,0,1-.27-1.45,19.11,19.11,0,0,1,1.4-6.51,35.58,35.58,0,0,1,3.21-6.6c1.21-1.89,2.13-2.83,2.76-2.83a.78.78,0,0,1,.68.5,2.56,2.56,0,0,1,.27,1.24,6.12,6.12,0,0,1-.63,2.46,10.67,10.67,0,0,1-1.76,2.68,10.53,10.53,0,0,1-2.53,2.11,21,21,0,0,0-1,3,16.6,16.6,0,0,0-.48,2.75c1.72-3.94,3.48-5.9,5.29-5.9a2.33,2.33,0,0,1,1.66.67,2.21,2.21,0,0,1,.72,1.66,2.11,2.11,0,0,1-.6,1.51,3.83,3.83,0,0,1-1.4,1,4.42,4.42,0,0,1-1.43.35,9,9,0,0,0,.65,1.94,1.33,1.33,0,0,0,1.23.84,2.59,2.59,0,0,0,1.81-1.13,12.24,12.24,0,0,0,1.73-2.87l.34.41a9.94,9.94,0,0,1-1.91,3.33,3.45,3.45,0,0,1-2.52,1.4,2,2,0,0,1-1.57-.75m.3-12.23a5.13,5.13,0,0,0,1-2.68,5.23,5.23,0,0,0-1.31,1.67,30,30,0,0,0-1.81,3.47A12.25,12.25,0,0,0,308,428.2" fill="#666"/><path d="M319.29,440.42a6.54,6.54,0,0,1-.24-1.93,18.34,18.34,0,0,1,1.34-5.81,37.85,37.85,0,0,1,3.08-6.54c1.16-1.9,2.11-2.85,2.83-2.85a.82.82,0,0,1,.75.52,2.41,2.41,0,0,1,.28,1.17,7.9,7.9,0,0,1-.8,2.92,16.87,16.87,0,0,1-2.09,3.54,9.7,9.7,0,0,1-2.68,2.51,11.43,11.43,0,0,0-.81,4l0,.5a2.53,2.53,0,0,0,.22-.52,22.64,22.64,0,0,1,1-2.24,7.12,7.12,0,0,1,1.44-1.86,3,3,0,0,1,2.13-.87,1.8,1.8,0,0,1,1.59.7,2.73,2.73,0,0,1,.5,1.65,3.77,3.77,0,0,1-.14,1c-.1.31-.24.72-.43,1.21,0,.06-.09.21-.18.44a4.21,4.21,0,0,0-.19.62,2.25,2.25,0,0,0-.06.49c0,.5.22.76.64.76a2.22,2.22,0,0,0,1.24-.53,6.88,6.88,0,0,0,1.41-1.4,11.24,11.24,0,0,0,1.19-1.9l.38.4a10.35,10.35,0,0,1-2.13,3.17,3.81,3.81,0,0,1-2.68,1.21,2,2,0,0,1-1.37-.46,1.61,1.61,0,0,1-.49-1.21,7.72,7.72,0,0,1,.34-1.71,7,7,0,0,0,.35-1.74c0-.66-.28-1-.85-1a1.7,1.7,0,0,0-1.44.9,17,17,0,0,0-1.32,2.63,16.05,16.05,0,0,1-1.05,2.2,1.27,1.27,0,0,1-1.05.72c-.33,0-.58-.25-.73-.76m4.85-10.28a18.78,18.78,0,0,0,1.47-2.72,5.52,5.52,0,0,0,.58-1.89,3.79,3.79,0,0,0-1,1.15,24.84,24.84,0,0,0-2.9,5.75,11.23,11.23,0,0,0,1.88-2.29" fill="#666"/><path d="M331.11,440.52a2.78,2.78,0,0,1-.83-2.07,6,6,0,0,1,.93-3,8.8,8.8,0,0,1,2.38-2.69,4.78,4.78,0,0,1,2.85-1.08,2,2,0,0,1,1.24.37,1.41,1.41,0,0,1,.5,1.22,3.25,3.25,0,0,1-.88,2.16,6.83,6.83,0,0,1-2.27,1.65,9.24,9.24,0,0,1-2.85.81,3,3,0,0,0-.05.55,2.5,2.5,0,0,0,.35,1.23c.23.42.73.62,1.49.62a4.84,4.84,0,0,0,3-1.18,8.93,8.93,0,0,0,2.44-2.93l.47.38a8.54,8.54,0,0,1-2.72,3.45,6.14,6.14,0,0,1-3.68,1.31,3.21,3.21,0,0,1-2.33-.81m3.25-4.19a6.82,6.82,0,0,0,1.8-1.46,2.67,2.67,0,0,0,.73-1.71.51.51,0,0,0-.09-.35.4.4,0,0,0-.31-.1,2.5,2.5,0,0,0-1.51.66,7.33,7.33,0,0,0-1.51,1.65,8.28,8.28,0,0,0-1,2,5,5,0,0,0,1.92-.69" fill="#666"/><path d="M341.77,440.43a1.56,1.56,0,0,1-.55-1.25,3,3,0,0,1,.18-1,12.29,12.29,0,0,1,.54-1.3c.2-.44.36-.82.47-1.13a2.27,2.27,0,0,0,.17-.82c0-.6-.4-1.11-1.19-1.52q-.48,1.19-1.11,2.4c-.42.81-.79,1.49-1.13,2.05l-.35-.7a27.48,27.48,0,0,0,1.93-4.3.86.86,0,0,1-.24-.64,2,2,0,0,1,.38-1.17c.25-.37.5-.55.74-.55a.46.46,0,0,1,.39.29,1.09,1.09,0,0,1,.15.47,1.63,1.63,0,0,1-.1.42l-.16.46a.6.6,0,0,0,.19.33,5.06,5.06,0,0,0,.62.44A6.55,6.55,0,0,1,344,434a2,2,0,0,1,.46,1.37,3.22,3.22,0,0,1-.18,1,11,11,0,0,1-.53,1.26,4.1,4.1,0,0,0-.53,1.5c0,.36.2.55.6.55a2.88,2.88,0,0,0,1.56-.57,7.51,7.51,0,0,0,1.54-1.4,6.59,6.59,0,0,0,1-1.53l.57.43a8.2,8.2,0,0,1-1.33,2,7.44,7.44,0,0,1-1.92,1.6,4.12,4.12,0,0,1-2.08.62,2.14,2.14,0,0,1-1.43-.47" fill="#666"/><path d="M347.86,440.52a2.78,2.78,0,0,1-.83-2.07,6,6,0,0,1,.93-3,8.8,8.8,0,0,1,2.38-2.69,4.8,4.8,0,0,1,2.85-1.08,2,2,0,0,1,1.24.37,1.41,1.41,0,0,1,.5,1.22,3.25,3.25,0,0,1-.88,2.16,6.73,6.73,0,0,1-2.27,1.65,9.24,9.24,0,0,1-2.85.81,3,3,0,0,0,0,.55,2.49,2.49,0,0,0,.34,1.23c.23.42.73.62,1.49.62a4.82,4.82,0,0,0,3-1.18,8.93,8.93,0,0,0,2.44-2.93l.48.38a8.65,8.65,0,0,1-2.73,3.45,6.13,6.13,0,0,1-3.67,1.31,3.23,3.23,0,0,1-2.34-.81m3.25-4.19a6.66,6.66,0,0,0,1.8-1.46,2.68,2.68,0,0,0,.74-1.71.5.5,0,0,0-.1-.35.4.4,0,0,0-.31-.1,2.5,2.5,0,0,0-1.51.66,7.33,7.33,0,0,0-1.51,1.65,7.89,7.89,0,0,0-1,2,5,5,0,0,0,1.91-.69" fill="#666"/><path d="M362.19,440.74a2.57,2.57,0,0,1-.62-1.87,10.19,10.19,0,0,1,.36-2.36,27,27,0,0,1,.95-3.06,3.92,3.92,0,0,1-.83-.22v-.73l1.14.12a27.61,27.61,0,0,1,2.29-4.62c.82-1.29,1.48-1.93,2-1.93a.7.7,0,0,1,.47.19.69.69,0,0,1,.2.5,2.35,2.35,0,0,1-.34,1c-.22.42-.58,1.08-1.09,1.95-.7,1.17-1.25,2.15-1.64,2.95,1.82,0,3.27-.06,4.35-.17v.79c-1.87.19-3.46.28-4.78.28a12.93,12.93,0,0,0-1.24,4.78,2.33,2.33,0,0,0,.31,1.38,1.16,1.16,0,0,0,1,.41,3.81,3.81,0,0,0,2.44-1.08,9.49,9.49,0,0,0,2.17-2.94l.34.24a10.36,10.36,0,0,1-2.53,3.6,4.76,4.76,0,0,1-3.21,1.39,2.28,2.28,0,0,1-1.71-.63" fill="#666"/><path d="M368.74,440.4a2.79,2.79,0,0,1-.44-1.6,5.71,5.71,0,0,1,.42-2.07A5.57,5.57,0,0,1,369.8,435a1.9,1.9,0,0,1,1.36-.72,2.17,2.17,0,0,1,.74.19,3.25,3.25,0,0,1,.77-1.8,2.23,2.23,0,0,1,1.77-.72,1.73,1.73,0,0,1,1.41.54,2.07,2.07,0,0,1,.45,1.39,5.11,5.11,0,0,1-.44,1.9,13.09,13.09,0,0,1-1.13,2.15,1.53,1.53,0,0,0,.66.14,2.88,2.88,0,0,0,1.43-.44,2.84,2.84,0,0,0,1.17-1.35l.43.31a4.08,4.08,0,0,1-1.35,1.74,3,3,0,0,1-1.75.59,3.88,3.88,0,0,1-1.19-.21,8.29,8.29,0,0,1-1.92,1.71,3.77,3.77,0,0,1-2,.67,1.6,1.6,0,0,1-1.42-.64m3.32-1a7.78,7.78,0,0,0,1.24-1.21,4.65,4.65,0,0,1-1.43-3.5,2.17,2.17,0,0,0-.69.88,9.08,9.08,0,0,0-.69,1.64,5.32,5.32,0,0,0-.28,1.57c0,.73.27,1.1.81,1.1a1.85,1.85,0,0,0,1-.48m2.85-3.81a4.54,4.54,0,0,0,.39-1.71c0-.7-.22-1.05-.67-1.05a1,1,0,0,0-.64.31,2.51,2.51,0,0,0-.55.82,3,3,0,0,0-.21,1.13,4.69,4.69,0,0,0,.19,1.25,3,3,0,0,0,.5,1.09,9.93,9.93,0,0,0,1-1.84" fill="#666"/><path d="M383.78,440.4a2.79,2.79,0,0,1-.44-1.6,5.71,5.71,0,0,1,.42-2.07,5.57,5.57,0,0,1,1.08-1.78,1.9,1.9,0,0,1,1.36-.72,2.22,2.22,0,0,1,.74.19,3.25,3.25,0,0,1,.77-1.8,2.23,2.23,0,0,1,1.77-.72,1.75,1.75,0,0,1,1.41.54,2.07,2.07,0,0,1,.45,1.39,5.11,5.11,0,0,1-.44,1.9,13.9,13.9,0,0,1-1.13,2.15,1.53,1.53,0,0,0,.66.14,2.91,2.91,0,0,0,1.43-.44,2.84,2.84,0,0,0,1.17-1.35l.43.31a4.16,4.16,0,0,1-1.35,1.74,3,3,0,0,1-1.75.59,3.88,3.88,0,0,1-1.19-.21,8.29,8.29,0,0,1-1.92,1.71,3.77,3.77,0,0,1-2.05.67,1.6,1.6,0,0,1-1.42-.64m3.32-1a8.22,8.22,0,0,0,1.24-1.21,4.65,4.65,0,0,1-1.43-3.5,2.17,2.17,0,0,0-.69.88,9.08,9.08,0,0,0-.69,1.64,5.32,5.32,0,0,0-.28,1.57c0,.73.27,1.1.81,1.1a1.85,1.85,0,0,0,1-.48m2.85-3.81a4.54,4.54,0,0,0,.39-1.71c0-.7-.22-1.05-.67-1.05a1,1,0,0,0-.64.31,2.51,2.51,0,0,0-.55.82,3,3,0,0,0-.21,1.13,4.69,4.69,0,0,0,.19,1.25,3,3,0,0,0,.5,1.09,10.56,10.56,0,0,0,1-1.84" fill="#666"/><path d="M390.54,446.73c-.21-.15-.33-.27-.34-.38.69-2,1.21-3.62,1.53-4.77a32,32,0,0,0,.81-3.67c.21-1.29.5-3.28.84-6a1.06,1.06,0,0,1,.14-.44c.05-.07.2-.11.44-.11a1.4,1.4,0,0,1,1,.37,1.23,1.23,0,0,1,.36.89,14.42,14.42,0,0,1-.33,2.24,7.82,7.82,0,0,1,1.75-1.94,3.38,3.38,0,0,1,2.13-.77,2.52,2.52,0,0,1,1.92.8,2.83,2.83,0,0,1,.76,2.05,5.74,5.74,0,0,1-.75,2.68,6.84,6.84,0,0,1-2.08,2.37,5,5,0,0,1-2.95,1,3.14,3.14,0,0,1-1.2-.19c-.31-.13-.46-.27-.46-.43s.19-.24.57-.24a4.68,4.68,0,0,0,2.57-.77,5.48,5.48,0,0,0,1.78-1.87,4.37,4.37,0,0,0,.64-2.21,2.23,2.23,0,0,0-.33-1.26,1.1,1.1,0,0,0-1-.5,2.52,2.52,0,0,0-1.52.6,7.59,7.59,0,0,0-1.41,1.47,9.35,9.35,0,0,0-.95,1.59c-.27.94-.62,2.29-1,4-.46,2-.86,3.38-1.18,4.29s-.7,1.37-1.13,1.37a1.12,1.12,0,0,1-.61-.21" fill="#666"/><path d="M402.74,440.52a2.75,2.75,0,0,1-.84-2.07,6,6,0,0,1,.93-3,8.8,8.8,0,0,1,2.38-2.69,4.8,4.8,0,0,1,2.86-1.08,2,2,0,0,1,1.23.37,1.39,1.39,0,0,1,.5,1.22,3.25,3.25,0,0,1-.88,2.16,6.63,6.63,0,0,1-2.27,1.65,9.26,9.26,0,0,1-2.84.81,2.29,2.29,0,0,0-.05.55,2.49,2.49,0,0,0,.34,1.23c.23.42.73.62,1.49.62a4.79,4.79,0,0,0,3-1.18,8.93,8.93,0,0,0,2.44-2.93l.48.38a8.56,8.56,0,0,1-2.73,3.45,6.11,6.11,0,0,1-3.67,1.31,3.19,3.19,0,0,1-2.33-.81m3.24-4.19a6.66,6.66,0,0,0,1.8-1.46,2.68,2.68,0,0,0,.74-1.71.46.46,0,0,0-.1-.35.39.39,0,0,0-.31-.1,2.5,2.5,0,0,0-1.51.66,7.57,7.57,0,0,0-1.51,1.65,7.89,7.89,0,0,0-1,2,5,5,0,0,0,1.91-.69" fill="#666"/><path d="M417,440.3a1.51,1.51,0,0,1-.5-1.19,2.87,2.87,0,0,1,.1-.71c.08-.27.15-.54.23-.81a6.32,6.32,0,0,0,.33-1.62,1,1,0,0,0-.23-.7.85.85,0,0,0-.6-.23,3.49,3.49,0,0,0-2.55,1.59,37.77,37.77,0,0,0-2.76,4,1.81,1.81,0,0,1-1.54-.69l.21-.6a15,15,0,0,0,1.41-5,1.69,1.69,0,0,1,.54-.4,1.54,1.54,0,0,1,.69-.18.89.89,0,0,1,.62.2.66.66,0,0,1,.22.52,9.4,9.4,0,0,1-.41,2.12,12.56,12.56,0,0,1,2.23-2.34,3.7,3.7,0,0,1,2.27-.9,1.78,1.78,0,0,1,1.47.65,2.43,2.43,0,0,1,.53,1.56,4,4,0,0,1-.13,1,7.26,7.26,0,0,1-.4,1.07,4.5,4.5,0,0,0-.4,1.5.73.73,0,0,0,.17.53.54.54,0,0,0,.4.16,2.46,2.46,0,0,0,1.7-1.08,13,13,0,0,0,1.66-2.56l.4.33a11.28,11.28,0,0,1-1.89,3.12,3.13,3.13,0,0,1-2.37,1.14,2,2,0,0,1-1.4-.45" fill="#666"/><path d="M422,440.31a.69.69,0,0,1-.27-.6,1,1,0,0,1,.49-.78,1.76,1.76,0,0,1,1.05-.34c.54,0,.81.25.81.74a1.08,1.08,0,0,1-.44.81,1.44,1.44,0,0,1-1,.38,1.08,1.08,0,0,1-.68-.21m1.18-2.6a6.31,6.31,0,0,1,.36-1.88c.23-.75.54-1.62.92-2.62q1.86-4.79,3.13-7.42t2.25-2.64a.64.64,0,0,1,.47.21.72.72,0,0,1,.2.5,13.79,13.79,0,0,1-1.36,3.49q-1.35,2.86-3.08,6a46.56,46.56,0,0,1-2.61,4.41Z" fill="#666"/></g></g><line id="card-position" x1="60.69" y1="234.94" x2="638.84" y2="234.94" fill="#fff" stroke="#000" stroke-miterlimit="10"/><line id="card-position-portrait" x1="194.24" y1="234.94" x2="505.29" y2="234.94" fill="#fff" stroke="#000" stroke-miterlimit="10" stroke-width="0.97"/></g></g></g></svg>