<svg xmlns="http://www.w3.org/2000/svg" viewBox="0 0 591.6 429.08"><title>logo</title><g id="Layer_2" data-name="Layer 2"><g id="Layer_1-2" data-name="Layer 1"><g id="right-bird"><path id="right_8" data-name="right 8" d="M351.6,339.1l-3.3-21.9L323.4,314Z"/><path id="right_7" data-name="right 7" d="M321.3,310l51.3-31.5,6.2,38.8Z"/><path id="right_6" data-name="right 6" d="M382.8,316.3,427,217.7l-62.7-17.4Z"/><path id="right_5" data-name="right 5" d="M591.6,258.3l-24.7-37.6L367.3,196.3Z"/><path id="right_3" data-name="right 3" d="M372.3,97.2l139.6,19.1-147.6,75-14.2-53.2Z"/><path id="right_2" data-name="right 2" d="M410.2,13.2l28.7,89.1-66.6-9.1Z"/><path id="right_1" data-name="right 1" d="M350.1,0l56.1,9.2L388.7,46Z"/></g><g id="left-bird"><path id="left_1" data-name="left 1" d="M243.7,0,187.5,9.2,205,46Z"/><path id="left_2" data-name="left 2" d="M183.4,12.2l-28.6,89.1,66.6-9.1Z"/><path id="left_3" data-name="left 3" d="M220.4,97.2,80.7,116.3l147.7,75,14.2-53.2Z"/><path id="left_5" data-name="left 5" d="M0,258.3l24.8-37.6,199.7-24.4Z"/><path id="left_6" data-name="left 6" d="M209.8,317.3l-44.1-98.6,62.8-17.4-18.7,116Z"/><path id="left_7" data-name="left 7" d="M271.3,311,220,279.5l-6.3,38.8Z"/><path id="left_8" data-name="left 8" d="M243.1,339.1l3.4-21.9,24.9-3.2-28.3,25.1Z"/></g><g id="logotype"><g id="sites"><path id="letter-s-3" d="M583.43,379.07a18,18,0,0,0-7-4.8,25.7,25.7,0,0,0-8.7-1.3,34.38,34.38,0,0,0-8.4.9,16.48,16.48,0,0,0-5.7,2.6,10.89,10.89,0,0,0-3.3,4.1,13.88,13.88,0,0,0-1,5.4,10.25,10.25,0,0,0,1,4.9,9.2,9.2,0,0,0,3.2,3.3,21.4,21.4,0,0,0,5.6,2.3q4,1.15,8.1,1.9c3.1.6,6,1.3,8.6,2a25.17,25.17,0,0,1,6.5,2.7,11.23,11.23,0,0,1,4.1,4,12.68,12.68,0,0,1-3.9,16.2c-3.6,2.4-8.5,3.5-14.7,3.5a33.57,33.57,0,0,1-12.2-2,28.15,28.15,0,0,1-9.9-6.4" fill="none" stroke="#000" stroke-width="2"/><path id="letter-e" d="M483.73,400.37h33m7-27.4h-39.5v53.8h40.5" fill="none" stroke="#000" stroke-width="2"/><path id="letter-t-3" d="M463.7,373.57H441.23v53.9" fill="none" stroke="#000" stroke-width="2"/><path id="letter-i" d="M398.23,373.47v53.8" fill="none" stroke="#000" stroke-width="2"/><path id="letter-s-2" d="M371.83,380.27a18,18,0,0,0-7-4.8,25.7,25.7,0,0,0-8.7-1.3,34.38,34.38,0,0,0-8.4.9,15.14,15.14,0,0,0-5.7,2.7,10.89,10.89,0,0,0-3.3,4.1,13.88,13.88,0,0,0-1,5.4,10.25,10.25,0,0,0,1,4.9,9.2,9.2,0,0,0,3.2,3.3,21.4,21.4,0,0,0,5.6,2.3q4,1.16,8.1,1.9c3.1.6,6,1.3,8.6,2a25.17,25.17,0,0,1,6.5,2.7,11.23,11.23,0,0,1,4.1,4,12.68,12.68,0,0,1-3.9,16.2c-3.6,2.4-8.5,3.5-14.7,3.5a33.57,33.57,0,0,1-12.2-2,28.15,28.15,0,0,1-9.9-6.4" fill="none" stroke="#000" stroke-width="2"/></g><g id="tasty"><path id="letter-y" d="M251.23,404.77l22-31.8m-44-.1,21.9,31.8v23.2" fill="none" stroke="#000" stroke-width="2"/><polyline id="letter-t-2" points="193.23 427.67 193.23 373.57 215.83 373.57" fill="none" stroke="#000" stroke-width="2"/><path id="letter-s-1" d="M154.53,379a19.27,19.27,0,0,0-7-4.9,25.7,25.7,0,0,0-8.7-1.3,34.38,34.38,0,0,0-8.4.9,15.14,15.14,0,0,0-5.7,2.7,10.89,10.89,0,0,0-3.3,4.1,14.25,14.25,0,0,0-1,5.4,10.25,10.25,0,0,0,1,4.9,9.2,9.2,0,0,0,3.2,3.3,21.4,21.4,0,0,0,5.6,2.3q4,1.15,8.1,1.9c3.2.6,6,1.3,8.6,2a25.17,25.17,0,0,1,6.5,2.7,11.23,11.23,0,0,1,4.1,4,12.8,12.8,0,0,1-3.9,16.3q-5.25,3.6-14.7,3.6a33.57,33.57,0,0,1-12.2-2,29.72,29.72,0,0,1-9.9-6.5" fill="none" stroke="#000" stroke-width="2"/><path id="letter-a" d="M54.53,427l24.8-54.2h1.4l24.7,54.2m-41.3-21.7h32" fill="none" stroke="#000" stroke-width="2"/><path id="letter-t-1" d="M27.23,426.87V372.63H4.73" fill="none" stroke="#000" stroke-width="2"/></g></g><g id="morphing-group"><circle id="morph_ball01" data-name="morph  ball01" cx="296.3" cy="144.57" r="5.77"/><circle id="morph_ball02" data-name="morph  ball02" cx="285.46" cy="147.04" r="5.77"/><circle id="morph_ball03" data-name="morph  ball03" cx="276.77" cy="153.98" r="5.77"/><circle id="morph_ball04" data-name="morph  ball04" cx="271.95" cy="163.98" r="5.77"/><circle id="morph_ball05" data-name="morph  ball05" cx="271.93" cy="175.09" r="5.77"/><circle id="morph_ball06" data-name="morph  ball06" cx="276.74" cy="185.11" r="5.77"/><circle id="morph_ball07" data-name="morph  ball07" cx="285.43" cy="192.04" r="5.77"/><circle id="morph_ball08" data-name="morph  ball08" cx="296.25" cy="194.53" r="5.77"/><circle id="morph_ball09" data-name="morph  ball09" cx="307.09" cy="192.09" r="5.77"/><circle id="morph_ball10" data-name="morph  ball10" cx="315.8" cy="185.17" r="5.77"/><circle id="morph_ball11" data-name="morph  ball11" cx="320.64" cy="175.18" r="5.77"/><circle id="morph_ball12" data-name="morph  ball12" cx="320.67" cy="164.06" r="5.77"/><circle id="morph_ball13" data-name="morph  ball13" cx="315.89" cy="154.04" r="5.77"/><circle id="morph_ball14" data-name="morph  ball14" cx="307.22" cy="147.09" r="5.77"/></g></g></g></svg>